<svg width="74" height="74" viewBox="0 0 74 74" fill="none" xmlns="http://www.w3.org/2000/svg">
<g filter="url(#filter0_d_2242_367)">
<circle cx="37" cy="33" r="33" fill="white"/>
</g>
<path d="M47.6253 24.5H38.417C38.417 22.9352 37.1485 21.6667 35.5837 21.6667H28.5003V19.5417C28.5003 19.1505 28.1832 18.8333 27.792 18.8333H26.3753C25.9841 18.8333 25.667 19.1505 25.667 19.5417V46.4583C25.667 46.8495 25.9841 47.1667 26.3753 47.1667H27.792C28.1832 47.1667 28.5003 46.8495 28.5003 46.4583V35.8333H35.5837C35.5837 37.3982 36.8522 38.6667 38.417 38.6667H47.6253C48.0165 38.6667 48.3337 38.3495 48.3337 37.9583V25.2083C48.3337 24.8171 48.0165 24.5 47.6253 24.5ZM45.5003 27.3333V30.1667H38.417V27.3333H45.5003ZM35.5837 24.5V27.3333H28.5003V24.5H35.5837ZM28.5003 33V30.1667H35.5837V33H28.5003ZM38.417 35.8333V33H45.5003V35.8333H38.417Z" fill="#622B86"/>
<defs>
<filter id="filter0_d_2242_367" x="0" y="0" width="74" height="74" filterUnits="userSpaceOnUse" color-interpolation-filters="sRGB">
<feFlood flood-opacity="0" result="BackgroundImageFix"/>
<feColorMatrix in="SourceAlpha" type="matrix" values="0 0 0 0 0 0 0 0 0 0 0 0 0 0 0 0 0 0 127 0" result="hardAlpha"/>
<feOffset dy="4"/>
<feGaussianBlur stdDeviation="2"/>
<feComposite in2="hardAlpha" operator="out"/>
<feColorMatrix type="matrix" values="0 0 0 0 0 0 0 0 0 0 0 0 0 0 0 0 0 0 0.25 0"/>
<feBlend mode="normal" in2="BackgroundImageFix" result="effect1_dropShadow_2242_367"/>
<feBlend mode="normal" in="SourceGraphic" in2="effect1_dropShadow_2242_367" result="shape"/>
</filter>
</defs>
</svg>
