<svg width="74" height="74" viewBox="0 0 74 74" fill="none" xmlns="http://www.w3.org/2000/svg">
<g filter="url(#filter0_d_2242_369)">
<circle cx="37" cy="33" r="33" fill="white"/>
</g>
<g clip-path="url(#clip0_2242_369)">
<path d="M44.0837 20.25H24.2503C22.6855 20.25 21.417 21.5185 21.417 23.0833V38.6667C21.417 40.2315 22.6855 41.5 24.2503 41.5H44.0837C45.6485 41.5 46.917 40.2315 46.917 38.6667V23.0833C46.917 21.5185 45.6485 20.25 44.0837 20.25ZM44.0837 23.0833V27.3333H24.2503V23.0833H44.0837ZM24.2503 38.6667V31.5833H44.0837V38.6667H24.2503ZM49.7503 25.9167V41.5C49.7503 43.0648 48.4818 44.3333 46.917 44.3333H27.0837C27.0837 45.8981 28.3522 47.1667 29.917 47.1667H46.917C50.0466 47.1667 52.5837 44.6296 52.5837 41.5V28.75C52.5837 27.1852 51.3151 25.9167 49.7503 25.9167Z" fill="#622B86"/>
</g>
<defs>
<filter id="filter0_d_2242_369" x="0" y="0" width="74" height="74" filterUnits="userSpaceOnUse" color-interpolation-filters="sRGB">
<feFlood flood-opacity="0" result="BackgroundImageFix"/>
<feColorMatrix in="SourceAlpha" type="matrix" values="0 0 0 0 0 0 0 0 0 0 0 0 0 0 0 0 0 0 127 0" result="hardAlpha"/>
<feOffset dy="4"/>
<feGaussianBlur stdDeviation="2"/>
<feComposite in2="hardAlpha" operator="out"/>
<feColorMatrix type="matrix" values="0 0 0 0 0 0 0 0 0 0 0 0 0 0 0 0 0 0 0.25 0"/>
<feBlend mode="normal" in2="BackgroundImageFix" result="effect1_dropShadow_2242_369"/>
<feBlend mode="normal" in="SourceGraphic" in2="effect1_dropShadow_2242_369" result="shape"/>
</filter>
<clipPath id="clip0_2242_369">
<rect width="34" height="34" fill="white" transform="translate(20 16)"/>
</clipPath>
</defs>
</svg>
