<svg width="1440" height="237" viewBox="0 0 1440 237" fill="none" xmlns="http://www.w3.org/2000/svg">
<path d="M74.9101 115.2L-24.1699 194.14C-24.1699 194.14 102.33 237.08 101.33 236.09C100.34 235.1 74.9101 115.21 74.9101 115.21V115.2ZM-1.97993 190.78L68.3801 134.72C68.3801 134.72 86.4401 219.86 87.1401 220.56C87.8401 221.26 -1.98992 190.77 -1.98992 190.77L-1.97993 190.78Z" fill="#F2F2F2"/>
<path d="M1399.03 115.2L1299.95 194.14C1299.95 194.14 1426.45 237.08 1425.45 236.09C1424.46 235.1 1399.03 115.21 1399.03 115.21V115.2ZM1322.14 190.78L1392.5 134.72C1392.5 134.72 1410.56 219.86 1411.26 220.56C1411.96 221.26 1322.13 190.77 1322.13 190.77L1322.14 190.78Z" fill="#F2F2F2"/>
<path d="M565.99 110.16L547.75 189.02C547.75 189.02 627.99 164.39 627.1 164.24C626.21 164.09 565.99 110.16 565.99 110.16ZM557.51 178.94L570.46 122.94C570.46 122.94 613.23 161.23 613.86 161.34C614.49 161.45 557.51 178.94 557.51 178.94Z" fill="#F2F2F2"/>
<path d="M210.04 33.37L111.93 145.36C111.93 145.36 258.71 182.35 257.46 181.24C256.21 180.13 210.04 33.37 210.04 33.37ZM136.05 138.21L205.72 58.68C205.72 58.68 238.51 162.9 239.39 163.69C240.27 164.48 136.04 138.21 136.04 138.21H136.05Z" fill="#F2F2F2"/>
<path d="M871.54 32.4399L768.85 140.25C768.85 140.25 913.96 183.32 912.76 182.16C911.56 181 871.55 32.4399 871.55 32.4399H871.54ZM793.24 134.11L866.17 57.5499C866.17 57.5499 894.58 163.05 895.44 163.87C896.3 164.69 793.25 134.11 793.25 134.11H793.24Z" fill="#F2F2F2"/>
<path d="M-24.1701 130.67C-24.4301 130.67 -24.7001 130.65 -24.9701 130.62C-28.2501 130.18 -30.5601 127.17 -30.1301 123.88L-25.9201 92.17C-25.6701 90.25 -24.5001 88.58 -22.8001 87.67C-21.0901 86.76 -19.0601 86.73 -17.3201 87.58L11.0199 101.55V64.34C11.0199 62.04 12.3399 59.94 14.4199 58.93C16.4999 57.93 18.9599 58.21 20.7599 59.64C20.8699 59.73 30.8199 67.65 41.5899 76.32C40.2499 74.04 38.8499 71.63 37.3799 69.11C26.4599 50.37 15.5599 31.39 15.4499 31.2C14.0799 28.82 14.5099 25.81 16.4799 23.9C18.4499 21.99 21.4699 21.66 23.8099 23.1L115.08 79.47C117.9 81.21 118.77 84.91 117.03 87.73C115.29 90.55 111.59 91.43 108.77 89.68L37.7199 45.8C51.2099 69.11 66.1099 94.54 69.4199 99.34C71.0199 101.03 72.1399 103.06 71.1399 105.92C70.2999 108.33 67.9999 109.95 65.4499 109.95C63.1199 109.95 61.6999 108.97 60.3199 107.22C56.3999 103.66 38.3199 89.05 23.0099 76.79V111.17C23.0099 113.24 21.9399 115.17 20.1799 116.26C18.4199 117.36 16.2199 117.46 14.3599 116.55L-15.1301 102.02L-18.2401 125.44C-18.6401 128.46 -21.2201 130.65 -24.1801 130.65L-24.1701 130.67Z" fill="#F2F2F2"/>
<path d="M642.5 130.67C642.24 130.67 641.97 130.65 641.7 130.62C638.42 130.18 636.11 127.17 636.54 123.88L640.75 92.1701C641 90.2501 642.17 88.5801 643.87 87.6701C645.58 86.7601 647.61 86.7301 649.35 87.5801L677.69 101.55V64.3401C677.69 62.0401 679.01 59.9401 681.09 58.9301C683.16 57.9301 685.63 58.2101 687.43 59.6401C687.54 59.7301 697.49 67.6501 708.26 76.3201C706.92 74.0401 705.52 71.6301 704.05 69.1101C693.13 50.3701 682.23 31.3901 682.12 31.2001C680.75 28.8201 681.18 25.8101 683.15 23.9001C685.12 21.9901 688.14 21.6601 690.48 23.1101L781.75 79.4801C784.57 81.2201 785.44 84.9201 783.7 87.7401C781.96 90.5601 778.26 91.4401 775.44 89.6901L704.39 45.8101C717.88 69.1201 732.78 94.5501 736.09 99.3501C737.69 101.04 738.81 103.07 737.81 105.93C736.97 108.34 734.67 109.96 732.12 109.96C729.79 109.96 728.37 108.98 726.99 107.23C723.07 103.67 704.99 89.0601 689.68 76.8001V111.18C689.68 113.25 688.61 115.18 686.85 116.27C685.09 117.37 682.89 117.47 681.03 116.56L651.54 102.03L648.43 125.45C648.03 128.47 645.45 130.66 642.49 130.66L642.5 130.67Z" fill="#F2F2F2"/>
<path d="M1298.66 130.67C1298.4 130.67 1298.13 130.65 1297.86 130.62C1294.57 130.18 1292.27 127.17 1292.7 123.88L1296.91 92.17C1297.16 90.25 1298.33 88.58 1300.03 87.67C1301.73 86.76 1303.77 86.73 1305.51 87.58L1333.85 101.55V64.34C1333.85 62.04 1335.17 59.94 1337.25 58.93C1339.33 57.93 1341.79 58.21 1343.59 59.64C1343.7 59.73 1353.64 67.65 1364.42 76.32C1363.08 74.04 1361.68 71.63 1360.21 69.11C1349.29 50.37 1338.39 31.39 1338.28 31.2C1336.91 28.82 1337.34 25.81 1339.31 23.9C1341.28 21.99 1344.3 21.66 1346.64 23.1L1437.91 79.47C1440.73 81.21 1441.6 84.91 1439.86 87.73C1438.12 90.55 1434.42 91.43 1431.6 89.68L1360.55 45.8C1374.04 69.11 1388.94 94.54 1392.25 99.34C1393.85 101.03 1394.97 103.06 1393.97 105.92C1393.13 108.33 1390.83 109.95 1388.28 109.95C1385.95 109.95 1384.53 108.97 1383.15 107.22C1379.22 103.66 1361.15 89.05 1345.84 76.79V111.17C1345.84 113.24 1344.77 115.17 1343.01 116.26C1341.25 117.36 1339.05 117.46 1337.19 116.55L1307.7 102.02L1304.59 125.44C1304.19 128.46 1301.61 130.65 1298.65 130.65L1298.66 130.67Z" fill="#F2F2F2"/>
<path d="M217.84 18.8199C217.34 18.8199 216.83 18.7599 216.33 18.6299C213.78 17.9699 211.96 15.71 211.85 13.08L207.51 -88.29L176.9 -31.0201C175.73 -28.8301 173.34 -27.6001 170.88 -27.8901C168.42 -28.1901 166.4 -29.9701 165.79 -32.3701L149.06 -98.42C148.25 -101.63 150.19 -104.9 153.4 -105.71C156.61 -106.52 159.88 -104.58 160.69 -101.37L173.62 -50.3301L207.27 -113.29C208.54 -115.68 211.26 -116.91 213.89 -116.31C216.53 -115.71 218.44 -113.42 218.55 -110.72L223 -6.99005L283.19 -104.8C284.93 -107.62 288.62 -108.5 291.44 -106.77C294.26 -105.03 295.14 -101.34 293.41 -98.5201L222.95 15.9799C221.84 17.7799 219.89 18.84 217.84 18.84V18.8199Z" fill="#F2F2F2"/>
<path d="M884.22 21.39C883.72 21.39 883.21 21.33 882.71 21.2C880.16 20.54 878.34 18.28 878.23 15.65L873.89 -85.72L843.28 -28.45C842.11 -26.27 839.72 -25.03 837.26 -25.32C834.8 -25.62 832.78 -27.4 832.17 -29.8L815.44 -95.85C814.63 -99.06 816.57 -102.33 819.78 -103.14C822.99 -103.95 826.26 -102.01 827.07 -98.8L840 -47.76L873.65 -110.72C874.92 -113.1 877.63 -114.34 880.27 -113.74C882.91 -113.14 884.82 -110.85 884.93 -108.15L889.38 -4.41996L949.57 -102.23C951.31 -105.05 955 -105.93 957.82 -104.2C960.64 -102.46 961.52 -98.77 959.79 -95.95L889.33 18.55C888.22 20.35 886.27 21.41 884.22 21.41V21.39Z" fill="#F2F2F2"/>
<path d="M552.5 96.9699C550.85 96.9699 549.21 96.2999 548.03 94.9699C545.82 92.4999 546.03 88.71 548.5 86.5L634.08 9.89999L531.2 23.94C528.52 24.31 525.93 22.83 524.87 20.34C523.81 17.85 524.55 14.9599 526.67 13.2899L582.66 -31L530.14 -34.67C526.83 -34.9 524.34 -37.77 524.57 -41.07C524.8 -44.38 527.68 -46.8701 530.97 -46.6401L598.95 -41.9001C601.42 -41.7301 603.53 -40.05 604.26 -37.69C604.99 -35.32 604.19 -32.7501 602.25 -31.2101L551.33 9.07998L651.87 -4.64005C654.48 -5.00005 657.02 -3.61006 658.13 -1.21006C659.24 1.17994 658.65 4.01999 656.68 5.77999L556.51 95.44C555.36 96.46 553.94 96.9699 552.51 96.9699H552.5Z" fill="#F2F2F2"/>
<path d="M1215.14 99.4899C1213.49 99.4899 1211.85 98.8199 1210.67 97.4899C1208.46 95.0199 1208.67 91.2299 1211.14 89.0199L1296.72 12.4199L1193.85 26.4599C1191.17 26.8199 1188.58 25.3499 1187.52 22.8699C1186.46 20.3799 1187.2 17.4899 1189.32 15.8099L1245.31 -28.4801L1192.79 -32.1501C1189.48 -32.3801 1186.99 -35.2501 1187.22 -38.5501C1187.45 -41.8501 1190.31 -44.3501 1193.62 -44.1201L1261.6 -39.3801C1264.07 -39.2101 1266.18 -37.5301 1266.91 -35.1701C1267.64 -32.8001 1266.84 -30.2301 1264.9 -28.6901L1213.98 11.5999L1314.52 -2.12009C1317.13 -2.48009 1319.67 -1.0901 1320.78 1.30991C1321.89 3.69991 1321.3 6.5399 1319.34 8.2999L1219.17 97.9599C1218.02 98.9799 1216.59 99.4899 1215.17 99.4899H1215.14Z" fill="#F2F2F2"/>
<path d="M272.44 147.84C270.76 147.84 269.08 147.14 267.9 145.76C265.73 143.25 266.01 139.46 268.52 137.3L375.53 44.82C378.04 42.66 381.83 42.93 383.99 45.44C386.16 47.95 385.88 51.74 383.37 53.9L276.36 146.38C275.23 147.36 273.83 147.84 272.44 147.84Z" fill="#F2F2F2"/>
<path d="M375.93 135.07C373.34 135.07 373.24 135.07 355.3 120.91C346.63 114.07 334.68 104.53 319.77 92.57C294.4 72.21 268.92 51.59 268.67 51.38C266.09 49.3 265.7 45.52 267.78 42.94C269.86 40.36 273.64 39.97 276.22 42.05C314.34 72.91 372.5 119.67 378.52 123.65C380.54 124.62 381.93 126.68 381.93 129.06C381.93 132.37 379.24 135.06 375.93 135.06V135.07Z" fill="#F2F2F2"/>
<path d="M935.46 147.84C933.78 147.84 932.1 147.14 930.92 145.76C928.75 143.25 929.03 139.46 931.54 137.3L1038.55 44.82C1041.06 42.65 1044.85 42.93 1047.01 45.44C1049.17 47.95 1048.9 51.74 1046.39 53.9L939.38 146.38C938.25 147.36 936.85 147.84 935.46 147.84Z" fill="#F2F2F2"/>
<path d="M1038.94 135.07C1036.35 135.07 1036.25 135.07 1018.31 120.91C1009.64 114.07 997.69 104.53 982.78 92.57C957.41 72.21 931.93 51.59 931.68 51.38C929.1 49.3 928.71 45.52 930.79 42.94C932.87 40.36 936.65 39.97 939.23 42.05C977.35 72.91 1035.51 119.67 1041.53 123.65C1043.55 124.62 1044.94 126.68 1044.94 129.06C1044.94 132.37 1042.25 135.06 1038.94 135.06V135.07Z" fill="#F2F2F2"/>
<path d="M457.941 175.72C446.871 175.72 434.7 164.53 420.83 141.65C410.66 124.87 403.311 107.94 403.001 107.23C401.691 104.19 403.081 100.66 406.131 99.34C409.171 98.03 412.7 99.42 414.02 102.46C427.38 133.35 448.511 165.34 458.631 163.65C460.951 163.27 461.751 162.43 462.191 161.74C465.581 156.4 460.98 140.26 456.93 126.02C454.17 116.33 451.321 106.31 449.711 96.56C449.191 93.4 447.611 83.77 454.251 78.71C462.231 72.63 475.111 78.56 487.561 84.29C492.421 86.53 499.69 89.88 502.12 89.89C504.311 88.93 505.641 87.59 506.191 85.81C507.211 82.52 505.731 77.49 502.141 72C494.591 60.48 488.63 51.38 497.66 40.27C499.75 37.7 503.53 37.31 506.1 39.4C508.67 41.49 509.06 45.27 506.97 47.84C504.28 51.15 503.47 52.14 512.18 65.43C519.42 76.48 519.15 84.55 517.66 89.37C516 94.72 512.09 98.79 506.35 101.13C500.57 103.49 493.01 100.01 482.54 95.19C476.7 92.5 464.601 86.93 461.571 88.24C461.421 88.56 460.831 90.17 461.561 94.61C463.051 103.68 465.81 113.37 468.48 122.73C473.91 141.81 478.601 158.29 472.331 168.17C470.591 170.92 467.131 174.42 460.581 175.49C459.711 175.63 458.841 175.7 457.961 175.7L457.941 175.72Z" fill="#F2F2F2"/>
<path d="M1120.55 175.72C1109.48 175.72 1097.31 164.53 1083.44 141.65C1073.27 124.87 1065.92 107.94 1065.61 107.23C1064.3 104.19 1065.69 100.66 1068.74 99.34C1071.78 98.03 1075.31 99.42 1076.63 102.46C1089.99 133.35 1111.12 165.34 1121.24 163.65C1123.56 163.27 1124.36 162.43 1124.8 161.74C1128.19 156.4 1123.59 140.26 1119.54 126.02C1116.78 116.33 1113.93 106.31 1112.32 96.56C1111.8 93.4 1110.22 83.77 1116.86 78.71C1124.84 72.63 1137.72 78.56 1150.16 84.29C1155.02 86.53 1162.29 89.88 1164.72 89.89C1166.91 88.93 1168.24 87.59 1168.79 85.81C1169.81 82.52 1168.33 77.49 1164.74 72C1157.19 60.48 1151.23 51.38 1160.26 40.27C1162.35 37.7 1166.13 37.31 1168.7 39.4C1171.27 41.49 1171.66 45.27 1169.57 47.84C1166.88 51.15 1166.07 52.14 1174.78 65.43C1182.02 76.48 1181.75 84.55 1180.26 89.37C1178.6 94.72 1174.69 98.79 1168.96 101.13C1163.18 103.49 1155.62 100.01 1145.15 95.19C1139.31 92.5 1127.21 86.93 1124.19 88.24C1124.03 88.56 1123.45 90.17 1124.18 94.61C1125.67 103.68 1128.43 113.37 1131.1 122.73C1136.53 141.81 1141.22 158.29 1134.95 168.17C1133.21 170.92 1129.75 174.42 1123.2 175.49C1122.33 175.63 1121.46 175.7 1120.58 175.7L1120.55 175.72Z" fill="#F2F2F2"/>
<path d="M368.93 18.82C368.59 18.82 368.25 18.79 367.9 18.73C344.85 14.74 308.68 3.17 307.15 2.68C303.99 1.67 302.26 -1.70998 303.27 -4.86999C304.28 -8.01999 307.66 -9.75999 310.82 -8.74999C311.19 -8.62999 347.73 3.06003 369.94 6.90003C373.21 7.47003 375.39 10.57 374.83 13.84C374.32 16.76 371.79 18.82 368.93 18.82Z" fill="#F2F2F2"/>
<path d="M348.631 45.24C348.411 45.24 348.191 45.23 347.961 45.2C347.091 45.1 326.591 42.74 311.721 33.29C308.921 31.51 308.101 27.81 309.871 25.01C311.651 22.21 315.351 21.39 318.151 23.16C330.641 31.09 349.101 33.25 349.291 33.2701C352.581 33.64 354.951 36.6101 354.581 39.9001C354.241 42.9701 351.641 45.23 348.631 45.23V45.24Z" fill="#F2F2F2"/>
<path d="M1035.22 18.82C1034.88 18.82 1034.54 18.79 1034.19 18.73C1011.14 14.74 974.97 3.17 973.44 2.68C970.28 1.67 968.55 -1.70998 969.56 -4.86999C970.57 -8.01999 973.95 -9.75999 977.11 -8.74999C977.48 -8.62999 1014.02 3.06003 1036.23 6.90003C1039.49 7.47003 1041.68 10.57 1041.12 13.84C1040.62 16.76 1038.08 18.82 1035.21 18.82H1035.22Z" fill="#F2F2F2"/>
<path d="M1014.92 45.24C1014.7 45.24 1014.47 45.23 1014.25 45.2C1013.38 45.1 992.88 42.74 978.01 33.29C975.21 31.51 974.38 27.81 976.16 25.01C977.94 22.21 981.64 21.38 984.44 23.16C996.99 31.13 1015.39 33.25 1015.57 33.27C1018.86 33.64 1021.24 36.6 1020.87 39.89C1020.53 42.96 1017.93 45.23 1014.91 45.23L1014.92 45.24Z" fill="#F2F2F2"/>
<path d="M126.68 45.2401C104.43 45.2401 86.3301 27.1401 86.3301 4.89008C86.3301 -17.3599 104.43 -35.46 126.68 -35.46C148.93 -35.46 167.03 -17.3599 167.03 4.89008C167.03 27.1401 148.93 45.2401 126.68 45.2401ZM126.68 -23.46C111.05 -23.46 98.3301 -10.7399 98.3301 4.89008C98.3301 20.5201 111.05 33.2401 126.68 33.2401C142.31 33.2401 155.03 20.5201 155.03 4.89008C155.03 -10.7399 142.31 -23.46 126.68 -23.46Z" fill="#F2F2F2"/>
<path d="M785.25 39.64C767.19 39.64 752.5 24.95 752.5 6.89001C752.5 -11.17 767.19 -25.86 785.25 -25.86C803.31 -25.86 818 -11.17 818 6.89001C818 24.95 803.31 39.64 785.25 39.64ZM785.25 -13.86C773.81 -13.86 764.5 -4.54998 764.5 6.89001C764.5 18.33 773.81 27.64 785.25 27.64C796.69 27.64 806 18.33 806 6.89001C806 -4.54998 796.69 -13.86 785.25 -13.86Z" fill="#F2F2F2"/>
<path d="M1123.12 54.82C1106.15 54.82 1092.35 41.02 1092.35 24.05C1092.35 7.07999 1106.15 -6.71997 1123.12 -6.71997C1140.09 -6.71997 1153.89 7.07999 1153.89 24.05C1153.89 41.02 1140.09 54.82 1123.12 54.82ZM1123.12 5.28003C1112.77 5.28003 1104.35 13.7 1104.35 24.05C1104.35 34.4 1112.77 42.82 1123.12 42.82C1133.47 42.82 1141.89 34.4 1141.89 24.05C1141.89 13.7 1133.47 5.28003 1123.12 5.28003Z" fill="#F2F2F2"/>
<path d="M460.51 49.61C443.68 49.61 429.99 35.9201 429.99 19.0901C429.99 2.26009 443.68 -11.4299 460.51 -11.4299C477.34 -11.4299 491.03 2.26009 491.03 19.0901C491.03 35.9201 477.34 49.61 460.51 49.61ZM460.51 0.570068C450.3 0.570068 441.99 8.88009 441.99 19.0901C441.99 29.3001 450.3 37.61 460.51 37.61C470.72 37.61 479.03 29.3001 479.03 19.0901C479.03 8.88009 470.72 0.570068 460.51 0.570068Z" fill="#F2F2F2"/>
</svg>
