<svg width="74" height="74" viewBox="0 0 74 74" fill="none" xmlns="http://www.w3.org/2000/svg">
<g filter="url(#filter0_d_2242_371)">
<circle cx="37" cy="33" r="33" fill="white"/>
</g>
<g clip-path="url(#clip0_2242_371)">
<path d="M36.9997 18.8333C29.1756 18.8333 22.833 25.176 22.833 33C22.833 40.824 29.1756 47.1667 36.9997 47.1667C44.8237 47.1667 51.1663 40.824 51.1663 33C51.1663 29.2428 49.6738 25.6394 47.017 22.9827C44.3603 20.3259 40.7569 18.8333 36.9997 18.8333ZM36.9997 44.3333C30.7404 44.3333 25.6663 39.2592 25.6663 33C25.6663 26.7408 30.7404 21.6667 36.9997 21.6667C43.2589 21.6667 48.333 26.7408 48.333 33C48.333 36.0058 47.139 38.8885 45.0136 41.0139C42.8881 43.1393 40.0055 44.3333 36.9997 44.3333ZM37.6513 24.84C37.5123 24.6164 37.2626 24.4861 36.9997 24.5C36.7517 24.5013 36.5218 24.6297 36.3905 24.84L31.5455 32.7025C31.4939 32.7868 31.4783 32.8883 31.5023 32.9843C31.5262 33.0802 31.5878 33.1624 31.673 33.2125L36.6597 35.8333C36.8722 35.9467 37.1272 35.9467 37.3397 35.8333L42.3263 33.1558C42.4116 33.1058 42.4731 33.0235 42.4971 32.9276C42.5211 32.8317 42.5055 32.7301 42.4538 32.6458L37.6513 24.84ZM37.3397 38.2983C37.1272 38.4117 36.8722 38.4117 36.6597 38.2983L32.0272 35.8333C32.0031 35.8082 31.9699 35.794 31.9351 35.794C31.9003 35.794 31.8671 35.8082 31.843 35.8333C31.8029 35.8882 31.8029 35.9627 31.843 36.0175L36.348 41.2592C36.4839 41.4139 36.6804 41.5018 36.8863 41.5H37.113C37.3189 41.5018 37.5154 41.4139 37.6513 41.2592L42.1563 36.0175C42.1965 35.9627 42.1965 35.8882 42.1563 35.8333C42.1323 35.8082 42.099 35.794 42.0643 35.794C42.0295 35.794 41.9962 35.8082 41.9722 35.8333L37.3397 38.2983Z" fill="#622B86"/>
</g>
<defs>
<filter id="filter0_d_2242_371" x="0" y="0" width="74" height="74" filterUnits="userSpaceOnUse" color-interpolation-filters="sRGB">
<feFlood flood-opacity="0" result="BackgroundImageFix"/>
<feColorMatrix in="SourceAlpha" type="matrix" values="0 0 0 0 0 0 0 0 0 0 0 0 0 0 0 0 0 0 127 0" result="hardAlpha"/>
<feOffset dy="4"/>
<feGaussianBlur stdDeviation="2"/>
<feComposite in2="hardAlpha" operator="out"/>
<feColorMatrix type="matrix" values="0 0 0 0 0 0 0 0 0 0 0 0 0 0 0 0 0 0 0.25 0"/>
<feBlend mode="normal" in2="BackgroundImageFix" result="effect1_dropShadow_2242_371"/>
<feBlend mode="normal" in="SourceGraphic" in2="effect1_dropShadow_2242_371" result="shape"/>
</filter>
<clipPath id="clip0_2242_371">
<rect width="34" height="34" fill="white" transform="translate(20 16)"/>
</clipPath>
</defs>
</svg>
