<svg width="74" height="74" viewBox="0 0 74 74" fill="none" xmlns="http://www.w3.org/2000/svg">
<g filter="url(#filter0_d_2242_368)">
<circle cx="37" cy="33" r="33" fill="white"/>
</g>
<g clip-path="url(#clip0_2242_368)">
<path d="M48.5033 23.2533L43.5025 18.2525C42.9701 17.7169 42.246 17.4161 41.4908 17.4167H32.5092C31.754 17.4161 31.0299 17.7169 30.4975 18.2525L25.4967 23.2533C24.6994 24.0496 24.251 25.1299 24.25 26.2567V34.5442C24.2526 38.0395 25.8679 41.3381 28.6275 43.4833L34.4075 47.9883C34.9059 48.3751 35.5191 48.5845 36.15 48.5833H37.85C38.4809 48.5845 39.0941 48.3751 39.5925 47.9883L45.3725 43.4833C48.1321 41.3381 49.7474 38.0395 49.75 34.5442V26.2567C49.749 25.1299 49.3006 24.0496 48.5033 23.2533ZM46.9167 34.5867C46.9279 37.211 45.7121 39.6899 43.63 41.2875L37.85 45.75H36.15L30.37 41.245C28.2879 39.6474 27.0721 37.1685 27.0833 34.5442V26.2567C27.0849 25.885 27.2324 25.5289 27.4942 25.265L32.5092 20.25H41.4908L46.5058 25.265C46.7676 25.5289 46.9151 25.885 46.9167 26.2567V34.5867ZM42.78 29.1183L39.0967 28.835L37.68 25.3925C37.5687 25.1313 37.3122 24.9618 37.0283 24.9618C36.7444 24.9618 36.4879 25.1313 36.3767 25.3925L34.96 28.835L31.2767 29.1183C30.9964 29.1501 30.7603 29.3422 30.672 29.6101C30.5837 29.878 30.6594 30.1728 30.8658 30.365L33.6992 32.7733L32.75 36.3717C32.6818 36.6486 32.7863 36.9395 33.0152 37.1096C33.2442 37.2798 33.5528 37.296 33.7983 37.1508L37 35.21L40.1875 37.1508C40.433 37.296 40.7417 37.2798 40.9706 37.1096C41.1995 36.9395 41.3041 36.6486 41.2358 36.3717L40.3717 32.7733L43.205 30.365C43.4124 30.1709 43.4867 29.8733 43.3951 29.6044C43.3034 29.3356 43.0628 29.1454 42.78 29.1183Z" fill="#622B86"/>
</g>
<defs>
<filter id="filter0_d_2242_368" x="0" y="0" width="74" height="74" filterUnits="userSpaceOnUse" color-interpolation-filters="sRGB">
<feFlood flood-opacity="0" result="BackgroundImageFix"/>
<feColorMatrix in="SourceAlpha" type="matrix" values="0 0 0 0 0 0 0 0 0 0 0 0 0 0 0 0 0 0 127 0" result="hardAlpha"/>
<feOffset dy="4"/>
<feGaussianBlur stdDeviation="2"/>
<feComposite in2="hardAlpha" operator="out"/>
<feColorMatrix type="matrix" values="0 0 0 0 0 0 0 0 0 0 0 0 0 0 0 0 0 0 0.25 0"/>
<feBlend mode="normal" in2="BackgroundImageFix" result="effect1_dropShadow_2242_368"/>
<feBlend mode="normal" in="SourceGraphic" in2="effect1_dropShadow_2242_368" result="shape"/>
</filter>
<clipPath id="clip0_2242_368">
<rect width="34" height="34" fill="white" transform="translate(20 16)"/>
</clipPath>
</defs>
</svg>
