<svg width="56" height="57" viewBox="0 0 56 57" fill="none" xmlns="http://www.w3.org/2000/svg">
<g clip-path="url(#clip0_56_1343)">
<path d="M46.6667 10.0258H39.6667V7.69246C39.6667 6.4038 38.622 5.35913 37.3333 5.35913H18.6667C17.378 5.35913 16.3333 6.4038 16.3333 7.69246V10.0258H9.33333C8.04467 10.0258 7 11.0705 7 12.3591V21.6925C7 26.8471 11.1787 31.0258 16.3333 31.0258H16.66C17.7212 35.1357 21.422 38.012 25.6667 38.0258V47.3591H19.8333C19.189 47.3591 18.6667 47.8815 18.6667 48.5258V50.8591C18.6667 51.5035 19.189 52.0258 19.8333 52.0258H36.1667C36.811 52.0258 37.3333 51.5035 37.3333 50.8591V48.5258C37.3333 47.8815 36.811 47.3591 36.1667 47.3591H30.3333V38.0258C34.578 38.012 38.2788 35.1357 39.34 31.0258H39.6667C44.8213 31.0258 49 26.8471 49 21.6925V12.3591C49 11.0705 47.9553 10.0258 46.6667 10.0258ZM11.6667 21.6925V14.6925H16.3333V26.3591C13.756 26.3591 11.6667 24.2698 11.6667 21.6925ZM35 28.6925C35 31.2698 32.9107 33.3591 30.3333 33.3591H25.6667C23.0893 33.3591 21 31.2698 21 28.6925V10.0258H35V28.6925ZM44.3333 21.6925C44.3333 24.2698 42.244 26.3591 39.6667 26.3591V14.6925H44.3333V21.6925Z" fill="white"/>
</g>
<defs>
<clipPath id="clip0_56_1343">
<rect width="56" height="56" fill="white" transform="translate(0 0.692383)"/>
</clipPath>
</defs>
</svg>
