<svg width="1294" height="1090" viewBox="0 0 1294 1090" fill="none" xmlns="http://www.w3.org/2000/svg">
<mask id="mask0_36_471" style="mask-type:alpha" maskUnits="userSpaceOnUse" x="0" y="0" width="1551" height="1090">
<path d="M161.91 968.2L62.8301 1047.14C62.8301 1047.14 189.33 1090.08 188.33 1089.09C187.34 1088.1 161.91 968.21 161.91 968.21V968.2ZM85.0201 1043.78L155.38 987.72C155.38 987.72 173.44 1072.86 174.14 1073.56C174.84 1074.26 85.0101 1043.77 85.0101 1043.77L85.0201 1043.78Z" fill="#F2F2F2"/>
<path d="M161.91 83.8201L62.8301 162.76C62.8301 162.76 189.33 205.7 188.33 204.71C187.34 203.72 161.91 83.8301 161.91 83.8301V83.8201ZM85.0201 159.4L155.38 103.34C155.38 103.34 173.44 188.48 174.14 189.18C174.84 189.88 85.0101 159.39 85.0101 159.39L85.0201 159.4Z" fill="#F2F2F2"/>
<path d="M613.26 679.11L531.9 766.31C531.9 766.31 652.43 793.98 651.41 793.13C650.39 792.28 613.25 679.11 613.25 679.11H613.26ZM551.78 760.63L609.56 698.71C609.56 698.71 635.93 779.08 636.66 779.68C637.39 780.28 551.79 760.63 551.79 760.63H551.78Z" fill="#F2F2F2"/>
<path d="M652.99 963.16L634.75 1042.02C634.75 1042.02 714.99 1017.39 714.1 1017.24C713.21 1017.09 652.99 963.16 652.99 963.16ZM644.51 1031.94L657.46 975.94C657.46 975.94 700.23 1014.23 700.86 1014.34C701.49 1014.45 644.51 1031.94 644.51 1031.94Z" fill="#F2F2F2"/>
<path d="M820.65 95.28L729.49 172.17C729.49 172.17 845.87 213.99 844.96 213.03C844.05 212.06 820.65 95.28 820.65 95.28ZM749.9 168.9L814.64 114.3C814.64 114.3 831.26 197.23 831.9 197.92C832.54 198.61 749.9 168.9 749.9 168.9Z" fill="#F2F2F2"/>
<path d="M237.02 310.62L166.64 406.89C166.64 406.89 289.61 419.99 288.5 419.27C287.39 418.55 237.02 310.61 237.02 310.61V310.62ZM185.7 398.89L235.68 330.52C235.68 330.52 271.44 407.17 272.24 407.68C273.04 408.19 185.7 398.89 185.7 398.89Z" fill="#F2F2F2"/>
<path d="M891.97 314.76L821.59 411.03C821.59 411.03 944.56 424.13 943.45 423.41C942.34 422.69 891.97 314.75 891.97 314.75V314.76ZM840.65 403.03L890.63 334.66C890.63 334.66 926.39 411.31 927.19 411.82C927.99 412.33 840.65 403.03 840.65 403.03Z" fill="#F2F2F2"/>
<path d="M1274.14 679.11L1192.78 766.31C1192.78 766.31 1313.31 793.98 1312.29 793.13C1311.27 792.28 1274.13 679.11 1274.13 679.11H1274.14ZM1212.66 760.63L1270.44 698.71C1270.44 698.71 1296.81 779.08 1297.54 779.68C1298.27 780.28 1212.67 760.63 1212.67 760.63H1212.66Z" fill="#F2F2F2"/>
<path d="M297.04 886.37L198.93 998.36C198.93 998.36 345.71 1035.35 344.46 1034.24C343.21 1033.13 297.04 886.37 297.04 886.37ZM223.05 991.21L292.72 911.68C292.72 911.68 325.51 1015.9 326.39 1016.69C327.27 1017.48 223.04 991.21 223.04 991.21H223.05Z" fill="#F2F2F2"/>
<path d="M0 365.6L52.86 504.79C52.86 504.79 154.4 392.53 152.83 393.12C151.26 393.7 0 365.6 0 365.6ZM57.86 480.14L20.32 381.29C20.32 381.29 127.74 401.24 128.85 400.83C129.96 400.42 57.86 480.14 57.86 480.14Z" fill="#F2F2F2"/>
<path d="M655.62 365.6L708.48 504.79C708.48 504.79 810.02 392.53 808.45 393.12C806.88 393.7 655.62 365.6 655.62 365.6ZM713.48 480.14L675.94 381.29C675.94 381.29 783.36 401.24 784.47 400.83C785.58 400.42 713.48 480.14 713.48 480.14Z" fill="#F2F2F2"/>
<path d="M301.63 8.94995L198.94 116.76C198.94 116.76 344.05 159.83 342.85 158.67C341.65 157.51 301.64 8.94995 301.64 8.94995H301.63ZM223.33 110.62L296.26 34.06C296.26 34.06 324.67 139.56 325.53 140.38C326.39 141.2 223.34 110.62 223.34 110.62H223.33Z" fill="#F2F2F2"/>
<path d="M958.54 0L855.85 107.81C855.85 107.81 1000.96 150.88 999.76 149.72C998.56 148.56 958.55 0 958.55 0H958.54ZM880.24 101.67L953.17 25.11C953.17 25.11 981.58 130.61 982.44 131.43C983.3 132.25 880.25 101.67 880.25 101.67H880.24Z" fill="#F2F2F2"/>
<path d="M958.54 885.44L855.85 993.25C855.85 993.25 1000.96 1036.32 999.76 1035.16C998.56 1034 958.55 885.44 958.55 885.44H958.54ZM880.24 987.11L953.17 910.55C953.17 910.55 981.58 1016.05 982.44 1016.87C983.3 1017.69 880.25 987.11 880.25 987.11H880.24Z" fill="#F2F2F2"/>
<path d="M961.59 585.67L918 728.04C918 728.04 1067.04 701.62 1065.45 701.11C1063.86 700.61 961.59 585.67 961.59 585.67ZM937.07 711.63L968.02 610.53C968.02 610.53 1040.64 692.16 1041.77 692.51C1042.9 692.86 937.06 711.63 937.06 711.63H937.07Z" fill="#F2F2F2"/>
<path d="M302.85 585.67L259.26 728.04C259.26 728.04 408.3 701.62 406.71 701.11C405.12 700.61 302.85 585.67 302.85 585.67ZM278.33 711.63L309.28 610.53C309.28 610.53 381.9 692.16 383.03 692.51C384.16 692.86 278.32 711.63 278.32 711.63H278.33Z" fill="#F2F2F2"/>
<path d="M62.8301 983.67C62.5701 983.67 62.3001 983.65 62.0301 983.62C58.7501 983.18 56.4401 980.17 56.8701 976.88L61.0801 945.17C61.3301 943.25 62.5001 941.58 64.2001 940.67C65.9101 939.76 67.9401 939.73 69.6801 940.58L98.0201 954.55V917.34C98.0201 915.04 99.3401 912.94 101.42 911.93C103.5 910.93 105.96 911.21 107.76 912.64C107.87 912.73 117.82 920.65 128.59 929.32C127.25 927.04 125.85 924.63 124.38 922.11C113.46 903.37 102.56 884.39 102.45 884.2C101.08 881.82 101.51 878.81 103.48 876.9C105.45 874.99 108.47 874.66 110.81 876.1L202.08 932.47C204.9 934.21 205.77 937.91 204.03 940.73C202.29 943.55 198.59 944.43 195.77 942.68L124.72 898.8C138.21 922.11 153.11 947.54 156.42 952.34C158.02 954.03 159.14 956.06 158.14 958.92C157.3 961.33 155 962.95 152.45 962.95C150.12 962.95 148.7 961.97 147.32 960.22C143.4 956.66 125.32 942.05 110.01 929.79V964.17C110.01 966.24 108.94 968.17 107.18 969.26C105.42 970.36 103.22 970.46 101.36 969.55L71.8701 955.02L68.7601 978.44C68.3601 981.46 65.7801 983.65 62.8201 983.65L62.8301 983.67Z" fill="#F2F2F2"/>
<path d="M145.02 597.34C143.28 597.34 141.56 596.59 140.38 595.14L117.55 567.28C116.32 565.78 115.9 563.79 116.4 561.92C116.9 560.05 118.27 558.54 120.08 557.86L154.51 544.87L123.03 515.41C121.35 513.84 120.72 511.44 121.4 509.24C122.09 507.04 123.97 505.43 126.25 505.09C126.42 505.06 143.17 502.6 160.08 500.22C156.01 499.3 151.61 498.3 146.89 497.23C123.08 491.79 99.09 486.15 98.85 486.09C96.18 485.46 94.27 483.1 94.23 480.35C94.18 477.6 96.01 475.18 98.66 474.46L215.24 442.78C218.44 441.91 221.74 443.8 222.6 447C223.47 450.2 221.58 453.49 218.38 454.36L124.72 479.81C155.11 486.86 189.53 494.66 196.18 495.64C198.63 495.62 200.9 496.18 202.31 498.88C203.49 501.14 203.11 503.93 201.37 505.79C199.77 507.5 198.07 507.87 195.72 507.66C189.68 508.15 162.58 511.94 140.32 515.16L169.74 542.69C171.25 544.11 171.93 546.2 171.53 548.24C171.13 550.27 169.7 551.95 167.76 552.69L132.13 566.13L149.66 587.53C151.76 590.09 151.38 593.87 148.82 595.97C147.7 596.88 146.36 597.33 145.02 597.33V597.34Z" fill="#F2F2F2"/>
<path d="M702.68 609.58C701.26 609.58 699.86 609.07 698.76 608.12C697.3 606.86 696.53 604.97 696.71 603.04L700.35 562.64L656.13 579.7C653.98 580.53 651.55 580.05 649.87 578.48C648.19 576.9 647.56 574.5 648.25 572.31C648.31 572.13 654.01 553.99 659.76 536.08C659.92 535.57 660.09 535.06 660.25 534.56C656.99 538.66 653.39 543.17 649.47 548.08C632.97 568.69 616.19 589.38 616.03 589.59C614.3 591.72 611.34 592.41 608.85 591.26C606.36 590.11 604.97 587.41 605.47 584.71L629.51 456.34C630.12 453.08 633.25 450.94 636.51 451.55C639.77 452.16 641.91 455.29 641.3 458.55L621.63 563.58C643.11 536.94 667.75 506.06 671.91 499.93C672.99 497.6 674.48 495.82 677.55 495.72C680.11 495.64 682.45 497.2 683.36 499.58C684.21 501.78 683.81 503.47 682.53 505.59C680.13 511.78 670.84 540.67 663.44 564.05L705.03 548.01C706.96 547.26 709.15 547.57 710.8 548.82C712.46 550.07 713.35 552.08 713.16 554.15L709.41 595.83L739.14 588.68C742.36 587.91 745.6 589.89 746.38 593.11C747.15 596.33 745.17 599.57 741.95 600.35L704.09 609.46C703.63 609.57 703.15 609.63 702.69 609.63L702.68 609.58Z" fill="#F2F2F2"/>
<path d="M1367.9 602.17C1366.48 602.17 1365.08 601.66 1363.98 600.71C1362.52 599.45 1361.75 597.56 1361.93 595.63L1365.56 555.23L1321.34 572.29C1319.19 573.12 1316.76 572.64 1315.08 571.07C1313.4 569.49 1312.77 567.09 1313.46 564.9C1313.52 564.72 1319.22 546.58 1324.97 528.67C1325.14 528.16 1325.3 527.65 1325.46 527.15C1322.2 531.25 1318.6 535.76 1314.68 540.67C1298.18 561.28 1281.4 581.97 1281.24 582.18C1279.51 584.31 1276.55 585 1274.06 583.85C1271.57 582.7 1270.18 580 1270.68 577.3L1294.72 448.93C1295.33 445.67 1298.46 443.53 1301.72 444.14C1304.98 444.75 1307.12 447.88 1306.51 451.14L1286.84 556.17C1308.32 529.53 1332.97 498.65 1337.12 492.52C1338.2 490.19 1339.69 488.41 1342.76 488.31C1345.3 488.24 1347.66 489.79 1348.57 492.17C1349.42 494.38 1349.02 496.06 1347.74 498.18C1345.34 504.37 1336.05 533.26 1328.64 556.64L1370.23 540.6C1372.17 539.85 1374.35 540.16 1376 541.41C1377.66 542.66 1378.55 544.67 1378.36 546.74L1374.61 588.42L1404.34 581.27C1407.57 580.5 1410.8 582.48 1411.58 585.7C1412.35 588.92 1410.37 592.16 1407.15 592.94L1369.29 602.05C1368.83 602.16 1368.35 602.22 1367.89 602.22L1367.9 602.17Z" fill="#F2F2F2"/>
<path d="M1257.78 373.07C1255.5 373.07 1253.38 371.77 1252.37 369.65L1196.12 251.78C1194.69 248.79 1195.96 245.21 1198.95 243.78C1201.94 242.35 1205.52 243.62 1206.95 246.61L1252.97 343.04C1254.62 308.86 1256.32 269.39 1256.07 261.98C1255.57 259.46 1255.72 257.14 1258.14 255.25C1260.15 253.68 1262.97 253.56 1265.11 254.94C1267.1 256.22 1267.77 257.82 1267.98 260.28C1269.69 266.7 1279.21 295.51 1287.01 318.76L1311.15 281.29C1312.26 279.57 1314.16 278.54 1316.19 278.54C1316.22 278.54 1316.25 278.54 1316.28 278.54C1318.35 278.57 1320.26 279.67 1321.33 281.45L1342.87 317.33L1362.67 294.03C1364.82 291.5 1368.6 291.2 1371.13 293.34C1373.65 295.49 1373.96 299.27 1371.82 301.8L1346.6 331.47C1345.35 332.94 1343.45 333.72 1341.54 333.56C1339.61 333.4 1337.88 332.33 1336.89 330.67L1316.01 295.89L1290.34 335.73C1289.09 337.67 1286.85 338.72 1284.56 338.44C1282.27 338.16 1280.35 336.59 1279.61 334.41C1279.55 334.23 1273.46 316.22 1267.55 298.36C1267.38 297.85 1267.21 297.34 1267.05 296.84C1266.84 302.07 1266.59 307.84 1266.31 314.12C1265.14 340.49 1263.78 367.1 1263.76 367.37C1263.62 370.11 1261.64 372.41 1258.94 372.95C1258.55 373.03 1258.15 373.07 1257.76 373.07H1257.78Z" fill="#F2F2F2"/>
<path d="M602.26 370.96C599.98 370.96 597.86 369.66 596.85 367.54L540.6 249.67C539.17 246.68 540.44 243.1 543.43 241.67C546.42 240.24 550 241.51 551.43 244.5L597.45 340.93C599.1 306.74 600.8 267.27 600.55 259.88C600.05 257.36 600.2 255.04 602.62 253.15C604.63 251.58 607.45 251.46 609.59 252.84C611.58 254.12 612.25 255.72 612.46 258.18C614.17 264.6 623.69 293.41 631.49 316.66L655.63 279.19C656.75 277.45 658.71 276.43 660.77 276.44C662.84 276.47 664.75 277.57 665.82 279.35L687.36 315.23L707.16 291.93C709.31 289.4 713.09 289.1 715.62 291.24C718.15 293.39 718.45 297.17 716.31 299.7L691.09 329.37C689.84 330.84 687.96 331.62 686.03 331.46C684.1 331.3 682.37 330.23 681.38 328.57L660.5 293.79L634.83 333.64C633.58 335.58 631.33 336.63 629.05 336.35C626.76 336.07 624.84 334.5 624.1 332.32C624.04 332.14 617.95 314.13 612.04 296.27C611.87 295.76 611.7 295.25 611.54 294.75C611.33 299.98 611.08 305.75 610.8 312.02C609.62 338.39 608.27 365 608.25 365.27C608.11 368.01 606.13 370.31 603.43 370.85C603.04 370.93 602.64 370.97 602.25 370.97L602.26 370.96Z" fill="#F2F2F2"/>
<path d="M808.1 600.47C806.36 600.47 804.64 599.72 803.45 598.27L780.62 570.41C779.4 568.91 778.97 566.92 779.47 565.05C779.97 563.18 781.34 561.67 783.15 560.99L817.58 548L786.1 518.54C784.42 516.97 783.79 514.57 784.47 512.37C785.16 510.17 787.04 508.56 789.32 508.22C789.49 508.19 806.25 505.73 823.15 503.35C819.08 502.43 814.68 501.43 809.96 500.36C786.15 494.92 762.16 489.28 761.92 489.22C759.25 488.59 757.34 486.23 757.3 483.48C757.25 480.73 759.08 478.31 761.73 477.59L878.31 445.91C881.5 445.04 884.8 446.93 885.67 450.13C886.54 453.33 884.65 456.62 881.45 457.49L787.79 482.94C818.18 489.99 852.6 497.79 859.25 498.77C861.75 498.76 863.97 499.31 865.38 502.01C866.56 504.27 866.18 507.06 864.44 508.92C862.84 510.63 861.14 511 858.8 510.79C852.76 511.28 825.66 515.07 803.4 518.29L832.82 545.82C834.33 547.24 835.01 549.33 834.61 551.37C834.21 553.4 832.78 555.08 830.84 555.82L795.21 569.26L812.74 590.66C814.84 593.22 814.46 597 811.9 599.1C810.78 600.01 809.44 600.46 808.1 600.46V600.47Z" fill="#F2F2F2"/>
<path d="M729.5 983.67C729.24 983.67 728.97 983.65 728.7 983.62C725.42 983.18 723.11 980.17 723.54 976.88L727.75 945.17C728 943.25 729.17 941.58 730.87 940.67C732.58 939.76 734.61 939.73 736.35 940.58L764.69 954.55V917.34C764.69 915.04 766.01 912.94 768.09 911.93C770.16 910.93 772.63 911.21 774.43 912.64C774.54 912.73 784.49 920.65 795.26 929.32C793.92 927.04 792.52 924.63 791.05 922.11C780.13 903.37 769.23 884.39 769.12 884.2C767.75 881.82 768.18 878.81 770.15 876.9C772.12 874.99 775.14 874.66 777.48 876.11L868.75 932.48C871.57 934.22 872.44 937.92 870.7 940.74C868.96 943.56 865.26 944.44 862.44 942.69L791.39 898.81C804.88 922.12 819.78 947.55 823.09 952.35C824.69 954.04 825.81 956.07 824.81 958.93C823.97 961.34 821.67 962.96 819.12 962.96C816.79 962.96 815.37 961.98 813.99 960.23C810.07 956.67 791.99 942.06 776.68 929.8V964.18C776.68 966.25 775.61 968.18 773.85 969.27C772.09 970.37 769.89 970.47 768.03 969.56L738.54 955.03L735.43 978.45C735.03 981.47 732.45 983.66 729.49 983.66L729.5 983.67Z" fill="#F2F2F2"/>
<path d="M487.6 803.18C486.37 803.18 485.14 802.81 484.07 802.03C481.39 800.08 480.81 796.32 482.76 793.65L496.68 774.56L465.31 764.7C463.33 764.08 461.82 762.48 461.3 760.47C460.78 758.46 461.34 756.33 462.77 754.83L486.52 729.97C466.98 728.26 443.81 726.34 438.52 726.21C436.31 726.52 434.61 726.25 432.93 724.64C431.08 722.88 430.55 720.12 431.6 717.8C432.85 715.04 435.06 714.35 437.39 714.23C443.1 713.05 471.44 704.95 497.3 697.41L415.61 680.07C412.37 679.38 410.3 676.2 410.99 672.95C411.68 669.71 414.86 667.64 418.1 668.33L523.04 690.6C525.73 691.17 527.68 693.49 527.79 696.23C527.9 698.97 526.13 701.44 523.49 702.22C523.28 702.28 502.29 708.48 481.45 714.49C478.65 715.3 475.97 716.07 473.43 716.79C487.21 717.96 499.87 719.1 500.01 719.11C502.3 719.32 504.28 720.82 505.09 722.98C505.9 725.14 505.4 727.57 503.81 729.23L478.11 756.14L508.25 765.61C510.09 766.19 511.55 767.62 512.15 769.46C512.75 771.3 512.44 773.31 511.3 774.87L492.45 800.71C491.28 802.32 489.45 803.17 487.6 803.17V803.18Z" fill="#F2F2F2"/>
<path d="M1155.24 803.18C1154.01 803.18 1152.78 802.81 1151.71 802.03C1149.03 800.08 1148.45 796.32 1150.4 793.65L1164.32 774.56L1132.95 764.7C1130.97 764.08 1129.45 762.48 1128.94 760.47C1128.42 758.46 1128.98 756.33 1130.41 754.83L1154.16 729.97C1134.62 728.26 1111.45 726.34 1106.16 726.21C1103.96 726.52 1102.25 726.25 1100.57 724.64C1098.72 722.88 1098.18 720.12 1099.24 717.79C1100.49 715.03 1102.7 714.34 1105.03 714.22C1110.74 713.04 1139.08 704.94 1164.94 697.4L1083.25 680.06C1080.01 679.37 1077.94 676.19 1078.63 672.94C1079.32 669.7 1082.51 667.63 1085.75 668.32L1190.69 690.59C1193.38 691.16 1195.33 693.48 1195.44 696.22C1195.55 698.96 1193.78 701.43 1191.14 702.21C1190.93 702.27 1169.94 708.47 1149.1 714.48C1146.3 715.29 1143.62 716.06 1141.08 716.78C1154.86 717.95 1167.52 719.09 1167.66 719.1C1169.95 719.31 1171.93 720.81 1172.74 722.97C1173.55 725.13 1173.05 727.56 1171.46 729.22L1145.76 756.13L1175.9 765.6C1177.74 766.18 1179.2 767.61 1179.8 769.45C1180.4 771.29 1180.09 773.3 1178.95 774.86L1160.1 800.7C1158.93 802.31 1157.1 803.16 1155.25 803.16L1155.24 803.18Z" fill="#F2F2F2"/>
<path d="M304.84 871.82C304.34 871.82 303.83 871.76 303.33 871.63C300.78 870.97 298.96 868.71 298.85 866.08L294.51 764.71L263.9 821.98C262.73 824.17 260.34 825.4 257.88 825.11C255.42 824.81 253.4 823.03 252.79 820.63L236.06 754.58C235.25 751.37 237.19 748.1 240.4 747.29C243.61 746.48 246.88 748.42 247.69 751.63L260.62 802.67L294.27 739.71C295.54 737.32 298.26 736.09 300.89 736.69C303.53 737.29 305.44 739.58 305.55 742.28L310 846.01L370.19 748.2C371.93 745.38 375.62 744.5 378.44 746.23C381.26 747.97 382.14 751.66 380.41 754.48L309.95 868.98C308.84 870.78 306.89 871.84 304.84 871.84V871.82Z" fill="#F2F2F2"/>
<path d="M1077.08 648.69C1075.28 648.69 1073.5 647.88 1072.32 646.34L1010.73 566.08C1009.12 563.99 1009.07 561.09 1010.6 558.95C1012.13 556.81 1014.88 555.91 1017.38 556.74L1084.67 579.17L1056.18 546.38C1054.56 544.51 1054.25 541.83 1055.4 539.64C1056.56 537.45 1058.94 536.19 1061.4 536.48L1112.33 542.44C1115.62 542.82 1117.98 545.81 1117.59 549.1C1117.21 552.39 1114.21 554.76 1110.93 554.36L1075.39 550.2L1108.11 587.86C1109.88 589.9 1110.07 592.88 1108.57 595.13C1107.07 597.38 1104.25 598.34 1101.68 597.49L1032.15 574.31L1081.82 639.04C1083.84 641.67 1083.34 645.44 1080.71 647.45C1079.62 648.29 1078.34 648.69 1077.06 648.69H1077.08Z" fill="#F2F2F2"/>
<path d="M404.44 641.79C402.64 641.79 400.86 640.98 399.68 639.44L338.09 559.18C336.49 557.09 336.43 554.19 337.96 552.05C339.49 549.9 342.24 549.01 344.74 549.84L412.03 572.27L383.54 539.48C381.92 537.61 381.61 534.93 382.76 532.74C383.91 530.55 386.3 529.3 388.76 529.58L439.69 535.54C442.98 535.93 445.34 538.91 444.95 542.2C444.56 545.49 441.6 547.85 438.29 547.46L402.75 543.3L435.47 580.96C437.24 583 437.43 585.98 435.93 588.23C434.43 590.48 431.61 591.44 429.04 590.59L359.51 567.41L409.18 632.13C411.2 634.76 410.7 638.53 408.07 640.54C406.98 641.38 405.7 641.78 404.42 641.78L404.44 641.79Z" fill="#F2F2F2"/>
<path d="M971.22 874.39C970.72 874.39 970.21 874.33 969.71 874.2C967.16 873.54 965.34 871.28 965.23 868.65L960.89 767.28L930.28 824.55C929.11 826.73 926.72 827.97 924.26 827.68C921.8 827.38 919.78 825.6 919.17 823.2L902.44 757.15C901.63 753.94 903.57 750.67 906.78 749.86C909.99 749.05 913.26 750.99 914.07 754.2L927 805.24L960.65 742.28C961.92 739.9 964.63 738.66 967.27 739.26C969.91 739.86 971.82 742.15 971.93 744.85L976.38 848.58L1036.57 750.77C1038.31 747.95 1042 747.07 1044.82 748.8C1047.64 750.54 1048.52 754.23 1046.79 757.05L976.33 871.55C975.22 873.35 973.27 874.41 971.22 874.41V874.39Z" fill="#F2F2F2"/>
<path d="M639.5 949.97C637.85 949.97 636.21 949.3 635.03 947.97C632.82 945.5 633.03 941.71 635.5 939.5L721.08 862.9L618.2 876.94C615.52 877.31 612.93 875.83 611.87 873.34C610.81 870.85 611.55 867.96 613.67 866.29L669.66 822L617.14 818.33C613.83 818.1 611.34 815.23 611.57 811.93C611.8 808.62 614.68 806.13 617.97 806.36L685.95 811.1C688.42 811.27 690.53 812.95 691.26 815.31C691.99 817.68 691.19 820.25 689.25 821.79L638.33 862.08L738.87 848.36C741.48 848 744.02 849.39 745.13 851.79C746.24 854.18 745.65 857.02 743.68 858.78L643.51 948.44C642.36 949.46 640.94 949.97 639.51 949.97H639.5Z" fill="#F2F2F2"/>
<path d="M1302.14 952.49C1300.49 952.49 1298.85 951.82 1297.67 950.49C1295.46 948.02 1295.67 944.23 1298.14 942.02L1383.72 865.42L1280.85 879.46C1278.17 879.82 1275.58 878.35 1274.52 875.87C1273.46 873.38 1274.2 870.49 1276.32 868.81L1332.31 824.52L1279.79 820.85C1276.48 820.62 1273.99 817.75 1274.22 814.45C1274.45 811.15 1277.31 808.65 1280.62 808.88L1348.6 813.62C1351.07 813.79 1353.18 815.47 1353.91 817.83C1354.64 820.2 1353.84 822.77 1351.9 824.31L1300.98 864.6L1401.52 850.88C1404.13 850.52 1406.67 851.91 1407.78 854.31C1408.89 856.7 1408.3 859.54 1406.34 861.3L1306.17 950.96C1305.02 951.98 1303.59 952.49 1302.17 952.49H1302.14Z" fill="#F2F2F2"/>
<path d="M1242.81 663.97C1240 663.97 1237.49 661.99 1236.93 659.13L1214.7 546.45L1174.3 642.09C1173.25 644.58 1170.66 646.05 1167.98 645.7C1165.3 645.34 1163.19 643.23 1162.83 640.55L1153.29 569.8L1123.35 613.1C1121.46 615.83 1117.73 616.51 1115 614.62C1112.27 612.74 1111.59 609 1113.48 606.27L1152.24 550.22C1153.65 548.18 1156.16 547.22 1158.58 547.8C1160.99 548.38 1162.79 550.38 1163.13 552.83L1171.8 617.18L1211.29 523.71C1212.32 521.28 1214.81 519.81 1217.43 520.08C1220.05 520.35 1222.19 522.3 1222.7 524.89L1248.72 656.79C1249.36 660.04 1247.25 663.2 1243.99 663.84C1243.6 663.92 1243.21 663.95 1242.82 663.95L1242.81 663.97Z" fill="#F2F2F2"/>
<path d="M575.77 665.73C572.96 665.73 570.45 663.75 569.89 660.89L547.66 548.21L507.26 643.85C506.21 646.34 503.62 647.81 500.94 647.46C498.26 647.1 496.15 644.99 495.79 642.31L486.25 571.56L456.31 614.86C454.43 617.59 450.69 618.27 447.96 616.38C445.23 614.5 444.55 610.76 446.44 608.03L485.2 551.98C486.61 549.94 489.12 548.98 491.53 549.56C493.94 550.14 495.75 552.14 496.08 554.59L504.75 618.94L544.24 525.47C545.27 523.04 547.76 521.57 550.38 521.84C553 522.11 555.14 524.06 555.65 526.65L581.67 658.55C582.31 661.8 580.2 664.96 576.94 665.6C576.55 665.68 576.16 665.71 575.77 665.71V665.73Z" fill="#F2F2F2"/>
<path d="M141.78 347.25C140.26 347.25 138.74 346.67 137.57 345.52L89.07 297.66C87.31 295.92 86.79 293.27 87.78 291C88.77 288.73 91.06 287.29 93.52 287.39L158.4 289.98L73.17 234.93C70.96 233.5 69.93 230.79 70.65 228.25C71.37 225.71 73.66 223.94 76.3 223.89L210.71 221.07C214.04 220.99 216.77 223.63 216.83 226.94C216.9 230.25 214.27 233 210.96 233.06L96.13 235.47L183.35 291.81C185.62 293.28 186.63 296.08 185.81 298.66C184.99 301.24 182.55 302.96 179.85 302.84L108.52 300L145.99 336.98C148.35 339.31 148.37 343.11 146.05 345.46C144.88 346.65 143.33 347.25 141.78 347.25Z" fill="#F2F2F2"/>
<path d="M803.52 347.25C802 347.25 800.48 346.67 799.31 345.52L750.81 297.66C749.05 295.92 748.53 293.27 749.52 291C750.51 288.73 752.81 287.29 755.26 287.39L820.14 289.98L734.91 234.93C732.7 233.5 731.67 230.79 732.39 228.25C733.11 225.71 735.4 223.94 738.04 223.89L872.45 221.07C875.75 221 878.5 223.63 878.57 226.94C878.64 230.25 876.01 233 872.7 233.06L757.87 235.47L845.09 291.81C847.36 293.28 848.37 296.08 847.55 298.66C846.73 301.24 844.31 302.95 841.59 302.84L770.26 300L807.73 336.98C810.09 339.31 810.11 343.11 807.79 345.46C806.62 346.65 805.07 347.25 803.52 347.25Z" fill="#F2F2F2"/>
<path d="M359.44 1000.84C357.76 1000.84 356.08 1000.14 354.9 998.76C352.73 996.25 353.01 992.46 355.52 990.3L462.53 897.82C465.04 895.66 468.83 895.93 470.99 898.44C473.16 900.95 472.88 904.74 470.37 906.9L363.36 999.38C362.23 1000.36 360.83 1000.84 359.44 1000.84Z" fill="#F2F2F2"/>
<path d="M462.93 988.07C460.34 988.07 460.24 988.07 442.3 973.91C433.63 967.07 421.68 957.53 406.77 945.57C381.4 925.21 355.92 904.59 355.67 904.38C353.09 902.3 352.7 898.52 354.78 895.94C356.86 893.36 360.64 892.97 363.22 895.05C401.34 925.91 459.5 972.67 465.52 976.65C467.54 977.62 468.93 979.68 468.93 982.06C468.93 985.37 466.24 988.06 462.93 988.06V988.07Z" fill="#F2F2F2"/>
<path d="M1022.46 1000.84C1020.78 1000.84 1019.1 1000.14 1017.92 998.76C1015.75 996.25 1016.03 992.46 1018.54 990.3L1125.55 897.82C1128.06 895.65 1131.85 895.93 1134.01 898.44C1136.17 900.95 1135.9 904.74 1133.39 906.9L1026.38 999.38C1025.25 1000.36 1023.85 1000.84 1022.46 1000.84Z" fill="#F2F2F2"/>
<path d="M1125.94 988.07C1123.35 988.07 1123.25 988.07 1105.31 973.91C1096.64 967.07 1084.69 957.53 1069.78 945.57C1044.41 925.21 1018.93 904.59 1018.68 904.38C1016.1 902.3 1015.71 898.52 1017.79 895.94C1019.87 893.36 1023.65 892.97 1026.23 895.05C1064.35 925.91 1122.51 972.67 1128.53 976.65C1130.55 977.62 1131.94 979.68 1131.94 982.06C1131.94 985.37 1129.25 988.06 1125.94 988.06V988.07Z" fill="#F2F2F2"/>
<path d="M111.01 781.81C108.82 781.81 106.7 780.6 105.65 778.51C104.16 775.55 105.35 771.94 108.31 770.45L234.59 706.76C237.55 705.27 241.16 706.46 242.65 709.42C244.14 712.38 242.95 715.99 239.99 717.48L113.71 781.17C112.84 781.61 111.92 781.81 111.01 781.81Z" fill="#F2F2F2"/>
<path d="M214.16 810.39C212.34 810.39 210.54 809.56 209.36 808C179.88 768.8 134.84 709.3 129.97 703.98C128.25 702.55 127.4 700.21 127.98 697.9C128.79 694.69 132.05 692.73 135.26 693.54C137.77 694.17 137.87 694.19 151.83 712.29C158.58 721.03 167.85 733.19 179.4 748.42C199.06 774.34 218.76 800.54 218.96 800.8C220.95 803.45 220.42 807.21 217.77 809.2C216.69 810.01 215.42 810.4 214.17 810.4L214.16 810.39Z" fill="#F2F2F2"/>
<path d="M888.1 808.62C886.27 808.62 884.47 807.79 883.29 806.21L798.65 692.9C796.67 690.24 797.21 686.48 799.87 684.5C802.52 682.51 806.29 683.06 808.27 685.72L892.91 799.03C894.89 801.69 894.35 805.45 891.69 807.43C890.61 808.24 889.35 808.62 888.1 808.62Z" fill="#F2F2F2"/>
<path d="M793.21 801.86C791.74 801.86 790.27 801.32 789.11 800.24C786.69 797.98 786.56 794.18 788.82 791.76C822.31 755.93 873.08 701.23 877.48 695.51C878.59 693.57 880.74 692.32 883.13 692.49C886.44 692.73 888.92 695.6 888.69 698.9C888.51 701.48 888.5 701.58 873.1 718.47C865.66 726.63 855.3 737.88 842.31 751.9C820.2 775.76 797.82 799.71 797.59 799.95C796.41 801.21 794.81 801.85 793.21 801.85V801.86Z" fill="#F2F2F2"/>
<path d="M1091.62 409.85C1091.21 409.85 1090.79 409.81 1090.37 409.72C1087.13 409.03 1085.06 405.85 1085.74 402.61L1115.03 264.24C1115.72 261 1118.9 258.93 1122.14 259.61C1125.38 260.3 1127.45 263.48 1126.77 266.72L1097.48 405.09C1096.88 407.91 1094.39 409.85 1091.62 409.85Z" fill="#F2F2F2"/>
<path d="M1160.86 337.29C1157.39 337.29 1152.37 337.2 1144.94 337.07C1133.9 336.87 1118.61 336.5 1099.51 335.99C1066.99 335.12 1034.23 334.11 1033.9 334.09C1030.59 333.99 1027.99 331.22 1028.09 327.91C1028.19 324.6 1030.97 322 1034.27 322.1C1083.29 323.62 1157.88 325.68 1165.09 325.21C1167.28 324.76 1169.64 325.56 1171.08 327.46C1173.08 330.1 1172.57 333.86 1169.93 335.87C1168.54 336.93 1168.05 337.3 1160.86 337.3V337.29Z" fill="#F2F2F2"/>
<path d="M435.64 406.45C435.23 406.45 434.81 406.41 434.39 406.32C431.15 405.63 429.08 402.45 429.76 399.21L459.05 260.84C459.74 257.6 462.92 255.53 466.16 256.21C469.4 256.9 471.47 260.08 470.79 263.32L441.5 401.69C440.9 404.51 438.41 406.45 435.64 406.45Z" fill="#F2F2F2"/>
<path d="M504.88 333.89C501.41 333.89 496.39 333.8 488.96 333.67C477.92 333.47 462.63 333.1 443.53 332.59C411.01 331.72 378.25 330.71 377.92 330.69C374.61 330.59 372.01 327.82 372.11 324.51C372.21 321.2 374.98 318.59 378.29 318.7C427.31 320.22 501.91 322.28 509.11 321.81C511.3 321.36 513.66 322.16 515.1 324.06C517.1 326.7 516.59 330.46 513.95 332.47C512.56 333.53 512.07 333.9 504.88 333.9V333.89Z" fill="#F2F2F2"/>
<path d="M544.94 1028.72C533.87 1028.72 521.7 1017.53 507.83 994.65C497.66 977.87 490.31 960.94 490 960.23C488.69 957.19 490.08 953.66 493.13 952.34C496.17 951.03 499.7 952.42 501.02 955.46C514.38 986.35 535.51 1018.34 545.63 1016.65C547.95 1016.27 548.75 1015.43 549.19 1014.74C552.58 1009.4 547.98 993.26 543.93 979.02C541.17 969.33 538.32 959.31 536.71 949.56C536.19 946.4 534.61 936.77 541.25 931.71C549.23 925.63 562.11 931.56 574.56 937.29C579.42 939.53 586.69 942.88 589.12 942.89C591.31 941.93 592.64 940.59 593.19 938.81C594.21 935.52 592.73 930.49 589.14 925C581.59 913.48 575.63 904.38 584.66 893.27C586.75 890.7 590.53 890.31 593.1 892.4C595.67 894.49 596.06 898.27 593.97 900.84C591.28 904.15 590.47 905.14 599.18 918.43C606.42 929.48 606.15 937.55 604.66 942.37C603 947.72 599.09 951.79 593.35 954.13C587.57 956.49 580.01 953.01 569.54 948.19C563.7 945.5 551.6 939.93 548.57 941.24C548.42 941.56 547.83 943.17 548.56 947.61C550.05 956.68 552.81 966.37 555.48 975.73C560.91 994.81 565.6 1011.29 559.33 1021.17C557.59 1023.92 554.13 1027.42 547.58 1028.49C546.71 1028.63 545.84 1028.7 544.96 1028.7L544.94 1028.72Z" fill="#F2F2F2"/>
<path d="M278.39 577.19C277.74 577.19 277.08 577.08 276.43 576.86C275.7 576.61 258.26 570.57 240.76 561.7C214.99 548.65 202.96 536.54 203.98 524.66C204.55 518.04 207.77 514.33 210.38 512.38C219.76 505.37 236.54 508.8 255.98 512.76C265.52 514.71 275.39 516.72 284.55 517.52C289.03 517.91 290.59 517.2 290.9 517.02C291.98 513.9 285.5 502.27 282.37 496.64C276.76 486.57 272.71 479.29 274.63 473.35C276.53 467.45 280.29 463.25 285.5 461.18C290.2 459.32 298.22 458.44 309.79 464.82C323.7 472.49 324.63 471.6 327.72 468.67C330.13 466.39 333.92 466.49 336.2 468.9C338.48 471.31 338.38 475.1 335.97 477.38C325.58 487.23 316.05 481.98 303.99 475.33C298.24 472.16 293.12 471.07 289.92 472.34C288.19 473.03 286.95 474.46 286.16 476.71C286.36 479.13 290.25 486.13 292.85 490.81C299.52 502.79 306.41 515.17 300.95 523.59C296.41 530.59 286.69 529.75 283.5 529.47C273.66 528.61 263.45 526.53 253.57 524.52C239.06 521.56 222.62 518.21 217.55 521.99C216.9 522.48 216.12 523.34 215.92 525.68C215.04 535.92 248.51 554.54 280.33 565.5C283.46 566.58 285.13 570 284.05 573.13C283.19 575.62 280.87 577.18 278.38 577.18L278.39 577.19Z" fill="#F2F2F2"/>
<path d="M938.85 574.51C938.2 574.51 937.54 574.4 936.89 574.18C936.16 573.93 918.72 567.89 901.22 559.02C875.45 545.97 863.42 533.86 864.44 521.98C865.01 515.36 868.23 511.65 870.84 509.7C880.22 502.69 897 506.12 916.44 510.08C925.98 512.03 935.85 514.04 945.01 514.84C949.49 515.23 951.05 514.52 951.36 514.34C952.44 511.22 945.96 499.59 942.83 493.96C937.22 483.89 933.17 476.61 935.09 470.67C936.99 464.77 940.75 460.57 945.96 458.5C950.65 456.64 958.68 455.76 970.25 462.14C984.16 469.81 985.09 468.92 988.18 465.99C990.59 463.71 994.38 463.81 996.66 466.22C998.94 468.63 998.84 472.42 996.43 474.7C986.04 484.55 976.51 479.29 964.45 472.64C958.7 469.47 953.57 468.38 950.38 469.65C948.65 470.34 947.41 471.77 946.62 474.02C946.82 476.44 950.71 483.44 953.31 488.12C959.98 500.1 966.87 512.48 961.41 520.9C956.87 527.9 947.16 527.06 943.96 526.78C934.12 525.92 923.91 523.84 914.04 521.83C899.53 518.87 883.09 515.51 878.02 519.3C877.37 519.79 876.59 520.65 876.39 522.99C875.51 533.23 908.98 551.85 940.8 562.81C943.93 563.89 945.6 567.31 944.52 570.44C943.66 572.93 941.34 574.49 938.85 574.49V574.51Z" fill="#F2F2F2"/>
<path d="M1207.55 1028.72C1196.48 1028.72 1184.31 1017.53 1170.44 994.65C1160.27 977.87 1152.92 960.94 1152.61 960.23C1151.3 957.19 1152.69 953.66 1155.74 952.34C1158.78 951.03 1162.31 952.42 1163.63 955.46C1176.99 986.35 1198.12 1018.34 1208.24 1016.65C1210.56 1016.27 1211.36 1015.43 1211.8 1014.74C1215.19 1009.4 1210.59 993.26 1206.54 979.02C1203.78 969.33 1200.93 959.31 1199.32 949.56C1198.8 946.4 1197.22 936.77 1203.86 931.71C1211.84 925.63 1224.72 931.56 1237.16 937.29C1242.02 939.53 1249.29 942.88 1251.72 942.89C1253.91 941.93 1255.24 940.59 1255.79 938.81C1256.81 935.52 1255.33 930.49 1251.74 925C1244.19 913.48 1238.23 904.38 1247.26 893.27C1249.35 890.7 1253.13 890.31 1255.7 892.4C1258.27 894.49 1258.66 898.27 1256.57 900.84C1253.88 904.15 1253.07 905.14 1261.78 918.43C1269.02 929.48 1268.75 937.55 1267.26 942.37C1265.6 947.72 1261.69 951.79 1255.96 954.13C1250.18 956.49 1242.62 953.01 1232.15 948.19C1226.31 945.5 1214.21 939.93 1211.19 941.24C1211.03 941.56 1210.45 943.17 1211.18 947.61C1212.67 956.68 1215.43 966.37 1218.1 975.73C1223.53 994.81 1228.22 1011.29 1221.95 1021.17C1220.21 1023.92 1216.75 1027.42 1210.2 1028.49C1209.33 1028.63 1208.46 1028.7 1207.58 1028.7L1207.55 1028.72Z" fill="#F2F2F2"/>
<path d="M1209.69 483.38C1205.47 483.38 1200.9 483.19 1195.96 482.82C1176.39 481.35 1158.35 477.49 1157.59 477.33C1154.35 476.63 1152.29 473.44 1152.99 470.2C1153.69 466.96 1156.87 464.9 1160.12 465.6C1193.02 472.67 1231.3 474.06 1235.84 464.85C1236.88 462.74 1236.66 461.6 1236.36 460.85C1233.98 454.99 1218.18 449.35 1204.23 444.38C1194.74 441 1184.93 437.5 1176.06 433.13C1173.18 431.71 1164.43 427.41 1164.17 419.07C1163.86 409.04 1176.17 402.01 1188.07 395.21C1192.71 392.56 1199.67 388.58 1201.09 386.61C1201.58 384.27 1201.26 382.41 1200.13 380.92C1198.05 378.18 1193.1 376.46 1186.54 376.2C1172.78 375.65 1161.91 375.22 1158.11 361.41C1157.23 358.21 1159.11 354.91 1162.3 354.03C1165.49 353.15 1168.8 355.03 1169.68 358.22C1170.81 362.33 1171.15 363.57 1187.02 364.2C1200.22 364.73 1206.63 369.63 1209.69 373.65C1213.08 378.11 1214.12 383.65 1212.69 389.68C1211.26 395.76 1204.02 399.89 1194.02 405.61C1188.44 408.8 1176.88 415.41 1176.18 418.63C1176.35 418.94 1177.32 420.36 1181.35 422.34C1189.6 426.4 1199.09 429.78 1208.26 433.05C1226.94 439.71 1243.08 445.47 1247.48 456.32C1248.7 459.34 1249.54 464.18 1246.6 470.14C1242.23 479 1230.1 483.36 1209.69 483.36V483.38Z" fill="#F2F2F2"/>
<path d="M552.55 483.38C548.33 483.38 543.76 483.19 538.82 482.82C519.25 481.35 501.21 477.49 500.45 477.33C497.21 476.63 495.15 473.44 495.85 470.2C496.55 466.96 499.74 464.9 502.98 465.6C535.88 472.67 574.16 474.06 578.7 464.85C579.74 462.74 579.52 461.6 579.22 460.85C576.84 454.99 561.04 449.35 547.09 444.38C537.6 441 527.79 437.5 518.92 433.13C516.04 431.71 507.29 427.41 507.03 419.07C506.72 409.04 519.02 402.01 530.93 395.21C535.57 392.56 542.53 388.58 543.95 386.61C544.44 384.27 544.12 382.41 542.99 380.92C540.91 378.18 535.96 376.46 529.4 376.2C515.64 375.65 504.77 375.22 500.97 361.41C500.09 358.21 501.97 354.91 505.16 354.03C508.36 353.15 511.66 355.03 512.54 358.22C513.67 362.33 514.01 363.57 529.88 364.2C543.08 364.73 549.49 369.63 552.55 373.65C555.94 378.11 556.98 383.65 555.55 389.68C554.12 395.76 546.88 399.89 536.88 405.61C531.3 408.8 519.74 415.41 519.04 418.63C519.21 418.94 520.18 420.36 524.22 422.34C532.47 426.4 541.95 429.78 551.13 433.05C569.81 439.71 585.95 445.47 590.35 456.32C591.57 459.34 592.41 464.18 589.47 470.14C585.1 479 572.97 483.36 552.56 483.36L552.55 483.38Z" fill="#F2F2F2"/>
<path d="M421.9 247.75C417.68 247.75 413.11 247.56 408.17 247.19C388.6 245.72 370.56 241.86 369.8 241.7C366.56 241 364.5 237.81 365.2 234.57C365.9 231.33 369.09 229.27 372.33 229.97C405.23 237.04 443.51 238.43 448.05 229.22C449.09 227.11 448.87 225.97 448.57 225.22C446.19 219.36 430.39 213.72 416.44 208.75C406.95 205.37 397.14 201.87 388.27 197.51C385.39 196.09 376.64 191.79 376.38 183.45C376.07 173.42 388.37 166.39 400.28 159.59C404.92 156.94 411.88 152.96 413.3 150.99C413.79 148.65 413.47 146.79 412.35 145.3C410.27 142.56 405.32 140.84 398.76 140.58C385 140.03 374.13 139.6 370.33 125.79C369.45 122.6 371.33 119.29 374.52 118.41C377.71 117.53 381.02 119.41 381.9 122.6C383.03 126.71 383.37 127.95 399.24 128.58C412.44 129.11 418.85 134.01 421.91 138.04C425.3 142.5 426.34 148.04 424.91 154.07C423.48 160.15 416.24 164.28 406.24 170C400.66 173.19 389.09 179.8 388.4 183.02C388.57 183.33 389.54 184.74 393.58 186.73C401.83 190.79 411.31 194.17 420.49 197.44C439.17 204.1 455.31 209.86 459.71 220.71C460.93 223.73 461.77 228.57 458.84 234.53C454.47 243.39 442.34 247.75 421.93 247.75H421.9Z" fill="#F2F2F2"/>
<path d="M1084.92 247.75C1080.7 247.75 1076.13 247.56 1071.19 247.19C1051.62 245.72 1033.58 241.86 1032.82 241.7C1029.58 241 1027.52 237.81 1028.22 234.57C1028.92 231.33 1032.1 229.27 1035.35 229.97C1068.25 237.04 1106.53 238.43 1111.07 229.22C1112.11 227.11 1111.89 225.97 1111.59 225.22C1109.21 219.36 1093.41 213.72 1079.46 208.75C1069.97 205.37 1060.16 201.87 1051.29 197.51C1048.41 196.09 1039.66 191.79 1039.4 183.45C1039.09 173.42 1051.39 166.39 1063.29 159.59C1067.93 156.94 1074.89 152.96 1076.31 150.99C1076.8 148.65 1076.48 146.79 1075.36 145.3C1073.28 142.56 1068.32 140.84 1061.77 140.58C1048.01 140.03 1037.14 139.6 1033.34 125.79C1032.46 122.59 1034.34 119.29 1037.53 118.41C1040.72 117.53 1044.03 119.41 1044.91 122.6C1046.04 126.71 1046.38 127.95 1062.25 128.58C1075.45 129.11 1081.86 134.01 1084.92 138.04C1088.31 142.5 1089.35 148.04 1087.92 154.07C1086.49 160.15 1079.25 164.28 1069.25 170C1063.67 173.19 1052.1 179.8 1051.41 183.02C1051.58 183.33 1052.55 184.74 1056.58 186.73C1064.83 190.79 1074.31 194.17 1083.49 197.44C1102.17 204.1 1118.31 209.86 1122.71 220.71C1123.93 223.73 1124.77 228.57 1121.83 234.53C1117.46 243.39 1105.33 247.75 1084.92 247.75Z" fill="#F2F2F2"/>
<path d="M546.01 147.1C534.94 147.1 522.77 135.91 508.9 113.03C498.73 96.25 491.38 79.33 491.07 78.61C489.76 75.57 491.15 72.04 494.2 70.72C497.24 69.4 500.77 70.8 502.09 73.85C515.45 104.74 536.56 136.68 546.7 135.04C549.02 134.66 549.82 133.82 550.26 133.13C553.65 127.79 549.05 111.65 545 97.41C542.24 87.72 539.39 77.7 537.78 67.95C537.26 64.79 535.68 55.16 542.32 50.1C550.3 44.02 563.18 49.95 575.62 55.68C580.48 57.92 587.75 61.27 590.18 61.28C592.37 60.32 593.7 58.98 594.25 57.2C595.27 53.92 593.79 48.88 590.2 43.39C582.65 31.87 576.69 22.77 585.72 11.66C587.81 9.09003 591.59 8.70003 594.16 10.79C596.73 12.88 597.12 16.66 595.03 19.23C592.34 22.54 591.53 23.53 600.24 36.82C607.48 47.87 607.21 55.94 605.72 60.76C604.06 66.11 600.15 70.18 594.41 72.52C588.63 74.89 581.07 71.4 570.6 66.58C564.76 63.89 552.66 58.32 549.64 59.63C549.49 59.95 548.9 61.56 549.63 66C551.12 75.07 553.88 84.76 556.55 94.12C561.98 113.2 566.67 129.68 560.4 139.56C558.66 142.31 555.2 145.81 548.65 146.88C547.78 147.02 546.91 147.09 546.03 147.09L546.01 147.1Z" fill="#F2F2F2"/>
<path d="M1208.62 147.1C1197.55 147.1 1185.38 135.91 1171.51 113.03C1161.34 96.25 1153.99 79.33 1153.68 78.61C1152.37 75.57 1153.76 72.04 1156.81 70.72C1159.85 69.41 1163.38 70.8 1164.7 73.85C1178.06 104.74 1199.18 136.68 1209.31 135.04C1211.63 134.66 1212.43 133.82 1212.87 133.13C1216.26 127.79 1211.66 111.65 1207.61 97.41C1204.85 87.72 1202 77.7 1200.39 67.95C1199.87 64.79 1198.29 55.16 1204.93 50.1C1212.91 44.02 1225.79 49.95 1238.23 55.68C1243.09 57.92 1250.36 61.27 1252.79 61.28C1254.98 60.32 1256.31 58.98 1256.86 57.2C1257.88 53.92 1256.4 48.88 1252.81 43.39C1245.26 31.87 1239.3 22.77 1248.33 11.66C1250.42 9.09003 1254.2 8.70003 1256.77 10.79C1259.34 12.88 1259.73 16.66 1257.64 19.23C1254.95 22.54 1254.14 23.53 1262.85 36.82C1270.09 47.87 1269.82 55.94 1268.33 60.76C1266.67 66.11 1262.76 70.18 1257.02 72.52C1251.24 74.88 1243.68 71.4 1233.21 66.58C1227.37 63.89 1215.27 58.32 1212.25 59.63C1212.09 59.95 1211.51 61.56 1212.24 66C1213.73 75.07 1216.49 84.76 1219.16 94.12C1224.59 113.2 1229.29 129.68 1223.01 139.56C1221.27 142.31 1217.81 145.81 1211.26 146.88C1210.39 147.02 1209.52 147.09 1208.64 147.09L1208.62 147.1Z" fill="#F2F2F2"/>
<path d="M477.24 836.81C477.13 836.81 477.02 836.81 476.91 836.81C427.85 834.16 375.7 818.07 373.51 817.39C370.35 816.41 368.58 813.04 369.56 809.88C370.54 806.72 373.91 804.95 377.07 805.93C377.59 806.09 430.02 822.25 477.56 824.82C480.87 825 483.41 827.83 483.23 831.14C483.06 834.34 480.41 836.82 477.24 836.82V836.81Z" fill="#F2F2F2"/>
<path d="M455.93 871.82C455.59 871.82 455.25 871.79 454.9 871.73C431.85 867.74 395.68 856.17 394.15 855.68C390.99 854.67 389.26 851.29 390.27 848.13C391.28 844.98 394.66 843.24 397.82 844.25C398.19 844.37 434.73 856.06 456.94 859.9C460.21 860.47 462.39 863.57 461.83 866.84C461.32 869.76 458.79 871.82 455.93 871.82Z" fill="#F2F2F2"/>
<path d="M435.63 898.24C435.41 898.24 435.19 898.23 434.96 898.2C434.09 898.1 413.59 895.74 398.72 886.29C395.92 884.51 395.1 880.81 396.87 878.01C398.65 875.21 402.35 874.39 405.15 876.16C417.64 884.09 436.1 886.25 436.29 886.27C439.58 886.64 441.95 889.61 441.58 892.9C441.24 895.97 438.64 898.23 435.63 898.23V898.24Z" fill="#F2F2F2"/>
<path d="M1143.53 836.81C1143.42 836.81 1143.31 836.81 1143.2 836.81C1094.14 834.16 1041.99 818.07 1039.8 817.39C1036.64 816.41 1034.87 813.04 1035.85 809.88C1036.83 806.72 1040.2 804.95 1043.36 805.93C1043.88 806.09 1096.31 822.25 1143.85 824.82C1147.16 825 1149.7 827.83 1149.52 831.14C1149.35 834.34 1146.7 836.82 1143.53 836.82V836.81Z" fill="#F2F2F2"/>
<path d="M1122.22 871.82C1121.88 871.82 1121.54 871.79 1121.19 871.73C1098.14 867.74 1061.97 856.17 1060.44 855.68C1057.28 854.67 1055.55 851.29 1056.56 848.13C1057.57 844.98 1060.95 843.24 1064.11 844.25C1064.48 844.37 1101.02 856.06 1123.23 859.9C1126.49 860.47 1128.68 863.57 1128.12 866.84C1127.62 869.76 1125.08 871.82 1122.21 871.82H1122.22Z" fill="#F2F2F2"/>
<path d="M1101.92 898.24C1101.7 898.24 1101.47 898.23 1101.25 898.2C1100.38 898.1 1079.88 895.74 1065.01 886.29C1062.21 884.51 1061.38 880.81 1063.16 878.01C1064.94 875.21 1068.64 874.38 1071.44 876.16C1083.99 884.13 1102.39 886.25 1102.57 886.27C1105.86 886.64 1108.24 889.6 1107.87 892.89C1107.53 895.96 1104.93 898.23 1101.91 898.23L1101.92 898.24Z" fill="#F2F2F2"/>
<path d="M736.7 653.55C736.59 653.55 736.48 653.55 736.37 653.55C687.31 650.9 635.16 634.81 632.97 634.13C629.81 633.15 628.04 629.78 629.02 626.62C630 623.46 633.37 621.69 636.53 622.67C637.05 622.83 689.48 638.99 737.02 641.56C740.33 641.74 742.87 644.57 742.69 647.88C742.52 651.08 739.87 653.56 736.7 653.56V653.55Z" fill="#F2F2F2"/>
<path d="M715.39 688.56C715.05 688.56 714.71 688.53 714.36 688.47C691.31 684.48 655.14 672.91 653.61 672.42C650.45 671.41 648.72 668.03 649.73 664.87C650.74 661.72 654.12 659.98 657.28 660.99C657.65 661.11 694.19 672.8 716.4 676.64C719.67 677.21 721.85 680.31 721.29 683.58C720.79 686.5 718.25 688.56 715.39 688.56Z" fill="#F2F2F2"/>
<path d="M695.09 714.99C694.87 714.99 694.65 714.98 694.42 714.95C693.55 714.85 673.05 712.49 658.18 703.04C655.38 701.26 654.56 697.56 656.33 694.76C658.11 691.96 661.81 691.14 664.61 692.91C677.16 700.88 695.56 703 695.74 703.02C699.03 703.39 701.41 706.35 701.04 709.64C700.7 712.71 698.1 714.98 695.08 714.98L695.09 714.99Z" fill="#F2F2F2"/>
<path d="M336.8 382.56C335.03 382.56 333.29 381.78 332.1 380.3C331.76 379.87 297.49 337.03 259.63 308.18C256.99 306.17 256.49 302.41 258.49 299.77C260.49 297.13 264.26 296.63 266.9 298.63C305.98 328.41 340.06 371.03 341.49 372.83C343.55 375.42 343.12 379.2 340.53 381.26C339.43 382.14 338.11 382.57 336.8 382.57V382.56Z" fill="#F2F2F2"/>
<path d="M341.23 339.24C339.45 339.24 337.68 338.45 336.5 336.93C336.26 336.63 312.62 306.41 296.41 290.74C294.03 288.44 293.96 284.64 296.27 282.26C298.57 279.88 302.37 279.81 304.75 282.12C321.57 298.38 344.97 328.29 345.96 329.55C348 332.16 347.54 335.93 344.92 337.97C343.82 338.83 342.52 339.24 341.23 339.24Z" fill="#F2F2F2"/>
<path d="M353.89 310.05C351.57 310.05 349.36 308.7 348.38 306.43C342.51 292.85 328.46 280.68 328.32 280.56C325.81 278.4 325.52 274.62 327.67 272.1C329.83 269.59 333.61 269.29 336.12 271.44C336.78 272.01 352.4 285.49 359.39 301.66C360.7 304.7 359.3 308.23 356.26 309.55C355.48 309.88 354.68 310.04 353.88 310.04L353.89 310.05Z" fill="#F2F2F2"/>
<path d="M1003.19 385.96C1001.42 385.96 999.68 385.18 998.49 383.7C998.15 383.27 963.88 340.43 926.02 311.58C923.38 309.57 922.88 305.81 924.88 303.17C926.89 300.53 930.65 300.03 933.29 302.03C972.37 331.81 1006.45 374.43 1007.88 376.23C1009.94 378.82 1009.51 382.6 1006.92 384.66C1005.82 385.54 1004.5 385.97 1003.19 385.97V385.96Z" fill="#F2F2F2"/>
<path d="M1007.62 342.64C1005.84 342.64 1004.07 341.85 1002.89 340.33C1002.65 340.03 979.01 309.81 962.8 294.14C960.42 291.84 960.35 288.04 962.66 285.66C964.96 283.28 968.76 283.21 971.14 285.52C987.96 301.78 1011.36 331.69 1012.35 332.95C1014.39 335.56 1013.93 339.33 1011.31 341.37C1010.21 342.23 1008.91 342.64 1007.62 342.64Z" fill="#F2F2F2"/>
<path d="M1020.28 313.44C1017.96 313.44 1015.75 312.09 1014.77 309.82C1008.9 296.24 994.85 284.07 994.71 283.95C992.2 281.79 991.91 278.01 994.06 275.49C996.22 272.98 1000 272.68 1002.52 274.83C1003.18 275.4 1018.81 288.88 1025.79 305.05C1027.1 308.09 1025.7 311.62 1022.66 312.94C1021.88 313.27 1021.08 313.43 1020.28 313.43V313.44Z" fill="#F2F2F2"/>
<path d="M644.13 235.05C643.46 235.05 642.77 234.94 642.1 234.69C638.98 233.57 637.36 230.13 638.49 227.01C655.13 180.78 685.51 135.45 686.8 133.55C688.65 130.8 692.38 130.08 695.13 131.93C697.88 133.78 698.6 137.51 696.75 140.26C696.44 140.72 665.9 186.29 649.78 231.08C648.9 233.53 646.59 235.05 644.13 235.05Z" fill="#F2F2F2"/>
<path d="M616.72 204.57C615.82 204.57 614.91 204.37 614.05 203.94C611.08 202.46 609.88 198.86 611.36 195.89C621.8 174.96 643.28 143.64 644.19 142.32C646.07 139.59 649.8 138.9 652.53 140.77C655.26 142.65 655.95 146.38 654.08 149.11C653.86 149.43 632.16 181.07 622.1 201.24C621.05 203.34 618.93 204.56 616.73 204.56L616.72 204.57Z" fill="#F2F2F2"/>
<path d="M597.25 177.53C596.47 177.53 595.67 177.38 594.9 177.05C591.85 175.75 590.43 172.23 591.73 169.18C592.07 168.38 600.23 149.42 613.55 137.89C616.05 135.72 619.84 135.99 622.01 138.5C624.18 141 623.91 144.79 621.4 146.96C610.16 156.69 602.84 173.71 602.77 173.88C601.8 176.16 599.58 177.53 597.25 177.53Z" fill="#F2F2F2"/>
<path d="M1276.02 204.57C1275.12 204.57 1274.21 204.37 1273.35 203.94C1270.39 202.46 1269.18 198.86 1270.66 195.89C1281.1 174.96 1302.58 143.64 1303.49 142.32C1305.37 139.59 1309.1 138.9 1311.83 140.77C1314.56 142.65 1315.25 146.38 1313.38 149.11C1313.16 149.43 1291.46 181.07 1281.4 201.24C1280.35 203.34 1278.23 204.56 1276.03 204.56L1276.02 204.57Z" fill="#F2F2F2"/>
<path d="M1256.55 177.53C1255.76 177.53 1254.97 177.38 1254.2 177.05C1251.15 175.75 1249.73 172.23 1251.03 169.18C1251.37 168.38 1259.53 149.42 1272.85 137.89C1275.35 135.72 1279.14 135.99 1281.31 138.5C1283.48 141 1283.21 144.79 1280.7 146.96C1269.51 156.65 1262.14 173.71 1262.07 173.88C1261.1 176.16 1258.88 177.53 1256.55 177.53Z" fill="#F2F2F2"/>
<path d="M213.68 898.24C191.43 898.24 173.33 880.14 173.33 857.89C173.33 835.64 191.43 817.54 213.68 817.54C235.93 817.54 254.03 835.64 254.03 857.89C254.03 880.14 235.93 898.24 213.68 898.24ZM213.68 829.54C198.05 829.54 185.33 842.26 185.33 857.89C185.33 873.52 198.05 886.24 213.68 886.24C229.31 886.24 242.03 873.52 242.03 857.89C242.03 842.26 229.31 829.54 213.68 829.54Z" fill="#F2F2F2"/>
<path d="M205.75 686.2C181.32 686.2 161.44 666.32 161.44 641.89C161.44 617.46 181.32 597.58 205.75 597.58C230.18 597.58 250.06 617.46 250.06 641.89C250.06 666.32 230.18 686.2 205.75 686.2ZM205.75 609.58C187.93 609.58 173.44 624.08 173.44 641.89C173.44 659.7 187.94 674.2 205.75 674.2C223.56 674.2 238.06 659.7 238.06 641.89C238.06 624.08 223.56 609.58 205.75 609.58Z" fill="#F2F2F2"/>
<path d="M401.94 515.78C375.32 515.78 353.67 494.12 353.67 467.5C353.67 440.88 375.33 419.23 401.94 419.23C428.55 419.23 450.22 440.89 450.22 467.5C450.22 494.11 428.56 515.78 401.94 515.78ZM401.94 431.23C381.94 431.23 365.67 447.5 365.67 467.5C365.67 487.5 381.94 503.78 401.94 503.78C421.94 503.78 438.22 487.51 438.22 467.5C438.22 447.49 421.95 431.23 401.94 431.23Z" fill="#F2F2F2"/>
<path d="M738.16 794.53C720.28 794.53 705.74 779.99 705.74 762.11C705.74 744.23 720.28 729.69 738.16 729.69C756.04 729.69 770.58 744.23 770.58 762.11C770.58 779.99 756.04 794.53 738.16 794.53ZM738.16 741.69C726.9 741.69 717.74 750.85 717.74 762.11C717.74 773.37 726.9 782.53 738.16 782.53C749.42 782.53 758.58 773.37 758.58 762.11C758.58 750.85 749.42 741.69 738.16 741.69Z" fill="#F2F2F2"/>
<path d="M872.25 892.64C854.19 892.64 839.5 877.95 839.5 859.89C839.5 841.83 854.19 827.14 872.25 827.14C890.31 827.14 905 841.83 905 859.89C905 877.95 890.31 892.64 872.25 892.64ZM872.25 839.14C860.81 839.14 851.5 848.45 851.5 859.89C851.5 871.33 860.81 880.64 872.25 880.64C883.69 880.64 893 871.33 893 859.89C893 848.45 883.69 839.14 872.25 839.14Z" fill="#F2F2F2"/>
<path d="M1065.46 523.38C1037.02 523.38 1013.88 500.24 1013.88 471.8C1013.88 443.36 1037.02 420.22 1065.46 420.22C1093.9 420.22 1117.04 443.36 1117.04 471.8C1117.04 500.24 1093.9 523.38 1065.46 523.38ZM1065.46 432.22C1043.64 432.22 1025.88 449.97 1025.88 471.8C1025.88 493.63 1043.63 511.38 1065.46 511.38C1087.29 511.38 1105.04 493.63 1105.04 471.8C1105.04 449.97 1087.29 432.22 1065.46 432.22Z" fill="#F2F2F2"/>
<path d="M1210.12 907.82C1193.15 907.82 1179.35 894.02 1179.35 877.05C1179.35 860.08 1193.15 846.28 1210.12 846.28C1227.09 846.28 1240.89 860.08 1240.89 877.05C1240.89 894.02 1227.09 907.82 1210.12 907.82ZM1210.12 858.28C1199.77 858.28 1191.35 866.7 1191.35 877.05C1191.35 887.4 1199.77 895.82 1210.12 895.82C1220.47 895.82 1228.89 887.4 1228.89 877.05C1228.89 866.7 1220.47 858.28 1210.12 858.28Z" fill="#F2F2F2"/>
<path d="M1172.47 229.6C1157.96 229.6 1146.16 217.8 1146.16 203.29C1146.16 188.78 1157.96 176.98 1172.47 176.98C1186.98 176.98 1198.78 188.78 1198.78 203.29C1198.78 217.8 1186.98 229.6 1172.47 229.6ZM1172.47 188.98C1164.58 188.98 1158.16 195.4 1158.16 203.29C1158.16 211.18 1164.58 217.6 1172.47 217.6C1180.36 217.6 1186.78 211.18 1186.78 203.29C1186.78 195.4 1180.36 188.98 1172.47 188.98Z" fill="#F2F2F2"/>
<path d="M935.66 252.9C912.14 252.9 893 233.76 893 210.24C893 186.72 912.14 167.58 935.66 167.58C959.18 167.58 978.32 186.72 978.32 210.24C978.32 233.76 959.18 252.9 935.66 252.9ZM935.66 179.58C918.75 179.58 905 193.33 905 210.24C905 227.15 918.75 240.9 935.66 240.9C952.57 240.9 966.32 227.15 966.32 210.24C966.32 193.33 952.57 179.58 935.66 179.58Z" fill="#F2F2F2"/>
<path d="M513.57 233.06C497.15 233.06 483.79 219.7 483.79 203.28C483.79 186.86 497.15 173.5 513.57 173.5C529.99 173.5 543.35 186.86 543.35 203.28C543.35 219.7 529.99 233.06 513.57 233.06ZM513.57 185.5C503.77 185.5 495.79 193.48 495.79 203.28C495.79 213.08 503.77 221.06 513.57 221.06C523.37 221.06 531.35 213.08 531.35 203.28C531.35 193.48 523.37 185.5 513.57 185.5Z" fill="#F2F2F2"/>
<path d="M282.71 252.9C259.19 252.9 240.05 233.76 240.05 210.24C240.05 186.72 259.19 167.58 282.71 167.58C306.23 167.58 325.37 186.72 325.37 210.24C325.37 233.76 306.23 252.9 282.71 252.9ZM282.71 179.58C265.8 179.58 252.05 193.33 252.05 210.24C252.05 227.15 265.8 240.9 282.71 240.9C299.62 240.9 313.37 227.15 313.37 210.24C313.37 193.33 299.62 179.58 282.71 179.58Z" fill="#F2F2F2"/>
<path d="M547.51 902.61C530.68 902.61 516.99 888.92 516.99 872.09C516.99 855.26 530.68 841.57 547.51 841.57C564.34 841.57 578.03 855.26 578.03 872.09C578.03 888.92 564.34 902.61 547.51 902.61ZM547.51 853.57C537.3 853.57 528.99 861.88 528.99 872.09C528.99 882.3 537.3 890.61 547.51 890.61C557.72 890.61 566.03 882.3 566.03 872.09C566.03 861.88 557.72 853.57 547.51 853.57Z" fill="#F2F2F2"/>
<path d="M865.31 681.58C843.43 681.58 825.62 663.78 825.62 641.89C825.62 620 843.42 602.2 865.31 602.2C887.2 602.2 905 620 905 641.89C905 663.78 887.2 681.58 865.31 681.58ZM865.31 614.2C850.04 614.2 837.62 626.62 837.62 641.89C837.62 657.16 850.04 669.58 865.31 669.58C880.58 669.58 893 657.16 893 641.89C893 626.62 880.58 614.2 865.31 614.2Z" fill="#F2F2F2"/>
<path d="M379.5 101.28C377.58 101.28 375.69 100.36 374.53 98.6501C372.67 95.9101 373.39 92.1801 376.13 90.3201C376.58 90.0101 421.92 59.1201 453.58 23.5601C455.78 21.0901 459.58 20.8701 462.05 23.0701C464.52 25.2701 464.74 29.0701 462.54 31.5401C429.86 68.2301 384.77 98.9601 382.86 100.25C381.83 100.95 380.66 101.28 379.5 101.28Z" fill="#F2F2F2"/>
<path d="M1045.22 101.28C1043.3 101.28 1041.41 100.36 1040.25 98.6501C1038.39 95.9101 1039.11 92.1801 1041.85 90.3201C1042.3 90.0101 1087.64 59.1201 1119.3 23.5601C1121.5 21.0901 1125.3 20.8701 1127.77 23.0701C1130.24 25.2701 1130.46 29.0701 1128.26 31.5401C1095.58 68.2301 1050.49 98.9601 1048.58 100.25C1047.55 100.95 1046.38 101.28 1045.22 101.28Z" fill="#F2F2F2"/>
</mask>
<g mask="url(#mask0_36_471)">
<rect x="119" y="586" width="991" height="418" rx="10" fill="#6A308F"/>
</g>
</svg>
