<svg width="1440" height="237" viewBox="0 0 1440 237" fill="none" xmlns="http://www.w3.org/2000/svg">
<path d="M74.9101 115.2L-24.1699 194.14C-24.1699 194.14 102.33 237.08 101.33 236.09C100.34 235.1 74.9101 115.21 74.9101 115.21V115.2ZM-1.97993 190.78L68.3801 134.72C68.3801 134.72 86.4401 219.86 87.1401 220.56C87.8401 221.26 -1.98992 190.77 -1.98992 190.77L-1.97993 190.78Z" fill="#23022E"/>
<path d="M1399.03 115.2L1299.95 194.14C1299.95 194.14 1426.45 237.08 1425.45 236.09C1424.46 235.1 1399.03 115.21 1399.03 115.21V115.2ZM1322.14 190.78L1392.5 134.72C1392.5 134.72 1410.56 219.86 1411.26 220.56C1411.96 221.26 1322.13 190.77 1322.13 190.77L1322.14 190.78Z" fill="#23022E"/>
<path d="M565.99 110.16L547.75 189.02C547.75 189.02 627.99 164.39 627.1 164.24C626.21 164.09 565.99 110.16 565.99 110.16ZM557.51 178.94L570.46 122.94C570.46 122.94 613.23 161.23 613.86 161.34C614.49 161.45 557.51 178.94 557.51 178.94Z" fill="#23022E"/>
<path d="M210.04 33.3701L111.93 145.36C111.93 145.36 258.71 182.35 257.46 181.24C256.21 180.13 210.04 33.3701 210.04 33.3701ZM136.05 138.21L205.72 58.6801C205.72 58.6801 238.51 162.9 239.39 163.69C240.27 164.48 136.04 138.21 136.04 138.21H136.05Z" fill="#23022E"/>
<path d="M871.54 32.4399L768.85 140.25C768.85 140.25 913.96 183.32 912.76 182.16C911.56 181 871.55 32.4399 871.55 32.4399H871.54ZM793.24 134.11L866.17 57.5499C866.17 57.5499 894.58 163.05 895.44 163.87C896.3 164.69 793.25 134.11 793.25 134.11H793.24Z" fill="#23022E"/>
<path d="M-24.1699 130.67C-24.4299 130.67 -24.6999 130.65 -24.9699 130.62C-28.2499 130.18 -30.5599 127.17 -30.1299 123.88L-25.9199 92.1699C-25.6699 90.2499 -24.4999 88.5799 -22.7999 87.6699C-21.0899 86.7599 -19.0599 86.7299 -17.3199 87.5799L11.0201 101.55V64.3399C11.0201 62.0399 12.3401 59.9399 14.4201 58.9299C16.5001 57.9299 18.9601 58.2099 20.7601 59.6399C20.8701 59.7299 30.8201 67.6499 41.5901 76.3199C40.2501 74.0399 38.8501 71.6299 37.3801 69.1099C26.4601 50.3699 15.5601 31.3899 15.4501 31.1999C14.0801 28.8199 14.5101 25.8099 16.4801 23.8999C18.4501 21.9899 21.4701 21.6599 23.8101 23.0999L115.08 79.4699C117.9 81.2099 118.77 84.9099 117.03 87.7299C115.29 90.5499 111.59 91.4299 108.77 89.6799L37.7201 45.7999C51.2101 69.1099 66.1101 94.5399 69.4201 99.3399C71.0201 101.03 72.1401 103.06 71.1401 105.92C70.3001 108.33 68.0001 109.95 65.4501 109.95C63.1201 109.95 61.7001 108.97 60.3201 107.22C56.4001 103.66 38.3201 89.0499 23.0101 76.7899V111.17C23.0101 113.24 21.9401 115.17 20.1801 116.26C18.4201 117.36 16.2201 117.46 14.3601 116.55L-15.1299 102.02L-18.2399 125.44C-18.6399 128.46 -21.2199 130.65 -24.1799 130.65L-24.1699 130.67Z" fill="#23022E"/>
<path d="M642.5 130.67C642.24 130.67 641.97 130.65 641.7 130.62C638.42 130.18 636.11 127.17 636.54 123.88L640.75 92.1698C641 90.2498 642.17 88.5798 643.87 87.6698C645.58 86.7598 647.61 86.7299 649.35 87.5799L677.69 101.55V64.3399C677.69 62.0399 679.01 59.9398 681.09 58.9298C683.16 57.9298 685.63 58.2099 687.43 59.6399C687.54 59.7299 697.49 67.6499 708.26 76.3199C706.92 74.0399 705.52 71.6298 704.05 69.1098C693.13 50.3698 682.23 31.3899 682.12 31.1999C680.75 28.8199 681.18 25.8099 683.15 23.8999C685.12 21.9899 688.14 21.6598 690.48 23.1098L781.75 79.4798C784.57 81.2198 785.44 84.9198 783.7 87.7398C781.96 90.5598 778.26 91.4398 775.44 89.6898L704.39 45.8098C717.88 69.1198 732.78 94.5498 736.09 99.3498C737.69 101.04 738.81 103.07 737.81 105.93C736.97 108.34 734.67 109.96 732.12 109.96C729.79 109.96 728.37 108.98 726.99 107.23C723.07 103.67 704.99 89.0598 689.68 76.7998V111.18C689.68 113.25 688.61 115.18 686.85 116.27C685.09 117.37 682.89 117.47 681.03 116.56L651.54 102.03L648.43 125.45C648.03 128.47 645.45 130.66 642.49 130.66L642.5 130.67Z" fill="#23022E"/>
<path d="M1298.66 130.67C1298.4 130.67 1298.13 130.65 1297.86 130.62C1294.57 130.18 1292.27 127.17 1292.7 123.88L1296.91 92.1699C1297.16 90.2499 1298.33 88.5799 1300.03 87.6699C1301.73 86.7599 1303.77 86.7299 1305.51 87.5799L1333.85 101.55V64.3399C1333.85 62.0399 1335.17 59.9399 1337.25 58.9299C1339.33 57.9299 1341.79 58.2099 1343.59 59.6399C1343.7 59.7299 1353.64 67.6499 1364.42 76.3199C1363.08 74.0399 1361.68 71.6299 1360.21 69.1099C1349.29 50.3699 1338.39 31.3899 1338.28 31.1999C1336.91 28.8199 1337.34 25.8099 1339.31 23.8999C1341.28 21.9899 1344.3 21.6599 1346.64 23.0999L1437.91 79.4699C1440.73 81.2099 1441.6 84.9099 1439.86 87.7299C1438.12 90.5499 1434.42 91.4299 1431.6 89.6799L1360.55 45.7999C1374.04 69.1099 1388.94 94.5399 1392.25 99.3399C1393.85 101.03 1394.97 103.06 1393.97 105.92C1393.13 108.33 1390.83 109.95 1388.28 109.95C1385.95 109.95 1384.53 108.97 1383.15 107.22C1379.22 103.66 1361.15 89.0499 1345.84 76.7899V111.17C1345.84 113.24 1344.77 115.17 1343.01 116.26C1341.25 117.36 1339.05 117.46 1337.19 116.55L1307.7 102.02L1304.59 125.44C1304.19 128.46 1301.61 130.65 1298.65 130.65L1298.66 130.67Z" fill="#23022E"/>
<path d="M217.84 18.8197C217.34 18.8197 216.83 18.7597 216.33 18.6297C213.78 17.9697 211.96 15.7097 211.85 13.0797L207.51 -88.2903L176.9 -31.0203C175.73 -28.8303 173.34 -27.6003 170.88 -27.8903C168.42 -28.1903 166.4 -29.9703 165.79 -32.3703L149.06 -98.4203C148.25 -101.63 150.19 -104.9 153.4 -105.71C156.61 -106.52 159.88 -104.58 160.69 -101.37L173.62 -50.3303L207.27 -113.29C208.54 -115.68 211.26 -116.91 213.89 -116.31C216.53 -115.71 218.44 -113.42 218.55 -110.72L223 -6.9903L283.19 -104.8C284.93 -107.62 288.62 -108.5 291.44 -106.77C294.26 -105.03 295.14 -101.34 293.41 -98.5203L222.95 15.9797C221.84 17.7797 219.89 18.8397 217.84 18.8397V18.8197Z" fill="#23022E"/>
<path d="M884.22 21.3903C883.72 21.3903 883.21 21.3303 882.71 21.2003C880.16 20.5403 878.34 18.2803 878.23 15.6503L873.89 -85.7197L843.28 -28.4497C842.11 -26.2697 839.72 -25.0297 837.26 -25.3197C834.8 -25.6197 832.78 -27.3997 832.17 -29.7997L815.44 -95.8497C814.63 -99.0597 816.57 -102.33 819.78 -103.14C822.99 -103.95 826.26 -102.01 827.07 -98.7997L840 -47.7597L873.65 -110.72C874.92 -113.1 877.63 -114.34 880.27 -113.74C882.91 -113.14 884.82 -110.85 884.93 -108.15L889.38 -4.41972L949.57 -102.23C951.31 -105.05 955 -105.93 957.82 -104.2C960.64 -102.46 961.52 -98.7697 959.79 -95.9497L889.33 18.5502C888.22 20.3503 886.27 21.4102 884.22 21.4102V21.3903Z" fill="#23022E"/>
<path d="M552.5 96.9699C550.85 96.9699 549.21 96.2999 548.03 94.9699C545.82 92.4999 546.03 88.71 548.5 86.5L634.08 9.89999L531.2 23.94C528.52 24.31 525.93 22.83 524.87 20.34C523.81 17.85 524.55 14.9599 526.67 13.2899L582.66 -31L530.14 -34.67C526.83 -34.9 524.34 -37.77 524.57 -41.07C524.8 -44.38 527.68 -46.8701 530.97 -46.6401L598.95 -41.9001C601.42 -41.7301 603.53 -40.05 604.26 -37.69C604.99 -35.32 604.19 -32.7501 602.25 -31.2101L551.33 9.07998L651.87 -4.64005C654.48 -5.00005 657.02 -3.61006 658.13 -1.21006C659.24 1.17994 658.65 4.01999 656.68 5.77999L556.51 95.44C555.36 96.46 553.94 96.9699 552.51 96.9699H552.5Z" fill="#23022E"/>
<path d="M1215.14 99.4899C1213.49 99.4899 1211.85 98.8199 1210.67 97.4899C1208.46 95.0199 1208.67 91.2299 1211.14 89.0199L1296.72 12.4199L1193.85 26.4599C1191.17 26.8199 1188.58 25.3499 1187.52 22.8699C1186.46 20.3799 1187.2 17.4899 1189.32 15.8099L1245.31 -28.4801L1192.79 -32.1501C1189.48 -32.3801 1186.99 -35.2501 1187.22 -38.5501C1187.45 -41.8501 1190.31 -44.3501 1193.62 -44.1201L1261.6 -39.3801C1264.07 -39.2101 1266.18 -37.5301 1266.91 -35.1701C1267.64 -32.8001 1266.84 -30.2301 1264.9 -28.6901L1213.98 11.5999L1314.52 -2.12009C1317.13 -2.48009 1319.67 -1.0901 1320.78 1.30991C1321.89 3.69991 1321.3 6.5399 1319.34 8.2999L1219.17 97.9599C1218.02 98.9799 1216.59 99.4899 1215.17 99.4899H1215.14Z" fill="#23022E"/>
<path d="M272.44 147.84C270.76 147.84 269.08 147.14 267.9 145.76C265.73 143.25 266.01 139.46 268.52 137.3L375.53 44.8204C378.04 42.6604 381.83 42.9304 383.99 45.4404C386.16 47.9504 385.88 51.7404 383.37 53.9004L276.36 146.38C275.23 147.36 273.83 147.84 272.44 147.84Z" fill="#23022E"/>
<path d="M375.93 135.07C373.34 135.07 373.24 135.07 355.3 120.91C346.63 114.07 334.68 104.53 319.77 92.5702C294.4 72.2102 268.92 51.5902 268.67 51.3802C266.09 49.3002 265.7 45.5202 267.78 42.9402C269.86 40.3602 273.64 39.9702 276.22 42.0502C314.34 72.9102 372.5 119.67 378.52 123.65C380.54 124.62 381.93 126.68 381.93 129.06C381.93 132.37 379.24 135.06 375.93 135.06V135.07Z" fill="#23022E"/>
<path d="M935.46 147.84C933.78 147.84 932.1 147.14 930.92 145.76C928.75 143.25 929.03 139.46 931.54 137.3L1038.55 44.8201C1041.06 42.6501 1044.85 42.9301 1047.01 45.4401C1049.17 47.9501 1048.9 51.7401 1046.39 53.9001L939.38 146.38C938.25 147.36 936.85 147.84 935.46 147.84Z" fill="#23022E"/>
<path d="M1038.94 135.07C1036.35 135.07 1036.25 135.07 1018.31 120.91C1009.64 114.07 997.69 104.53 982.78 92.5702C957.41 72.2102 931.93 51.5902 931.68 51.3802C929.1 49.3002 928.71 45.5202 930.79 42.9402C932.87 40.3602 936.65 39.9702 939.23 42.0502C977.35 72.9102 1035.51 119.67 1041.53 123.65C1043.55 124.62 1044.94 126.68 1044.94 129.06C1044.94 132.37 1042.25 135.06 1038.94 135.06V135.07Z" fill="#23022E"/>
<path d="M457.94 175.72C446.87 175.72 434.7 164.53 420.83 141.65C410.66 124.87 403.31 107.94 403 107.23C401.69 104.19 403.08 100.66 406.13 99.34C409.17 98.03 412.7 99.42 414.02 102.46C427.38 133.35 448.51 165.34 458.63 163.65C460.95 163.27 461.75 162.43 462.19 161.74C465.58 156.4 460.98 140.26 456.93 126.02C454.17 116.33 451.32 106.31 449.71 96.56C449.19 93.4 447.61 83.77 454.25 78.71C462.23 72.63 475.11 78.56 487.56 84.29C492.42 86.53 499.69 89.88 502.12 89.89C504.31 88.93 505.64 87.59 506.19 85.81C507.21 82.52 505.73 77.49 502.14 72C494.59 60.48 488.63 51.38 497.66 40.27C499.75 37.7 503.53 37.31 506.1 39.4C508.67 41.49 509.06 45.27 506.97 47.84C504.28 51.15 503.47 52.14 512.18 65.43C519.42 76.48 519.15 84.55 517.66 89.37C516 94.72 512.09 98.79 506.35 101.13C500.57 103.49 493.01 100.01 482.54 95.19C476.7 92.5 464.6 86.93 461.57 88.24C461.42 88.56 460.83 90.17 461.56 94.61C463.05 103.68 465.81 113.37 468.48 122.73C473.91 141.81 478.6 158.29 472.33 168.17C470.59 170.92 467.13 174.42 460.58 175.49C459.71 175.63 458.84 175.7 457.96 175.7L457.94 175.72Z" fill="#23022E"/>
<path d="M1120.55 175.72C1109.48 175.72 1097.31 164.53 1083.44 141.65C1073.27 124.87 1065.92 107.94 1065.61 107.23C1064.3 104.19 1065.69 100.66 1068.74 99.34C1071.78 98.03 1075.31 99.42 1076.63 102.46C1089.99 133.35 1111.12 165.34 1121.24 163.65C1123.56 163.27 1124.36 162.43 1124.8 161.74C1128.19 156.4 1123.59 140.26 1119.54 126.02C1116.78 116.33 1113.93 106.31 1112.32 96.56C1111.8 93.4 1110.22 83.77 1116.86 78.71C1124.84 72.63 1137.72 78.56 1150.16 84.29C1155.02 86.53 1162.29 89.88 1164.72 89.89C1166.91 88.93 1168.24 87.59 1168.79 85.81C1169.81 82.52 1168.33 77.49 1164.74 72C1157.19 60.48 1151.23 51.38 1160.26 40.27C1162.35 37.7 1166.13 37.31 1168.7 39.4C1171.27 41.49 1171.66 45.27 1169.57 47.84C1166.88 51.15 1166.07 52.14 1174.78 65.43C1182.02 76.48 1181.75 84.55 1180.26 89.37C1178.6 94.72 1174.69 98.79 1168.96 101.13C1163.18 103.49 1155.62 100.01 1145.15 95.19C1139.31 92.5 1127.21 86.93 1124.19 88.24C1124.03 88.56 1123.45 90.17 1124.18 94.61C1125.67 103.68 1128.43 113.37 1131.1 122.73C1136.53 141.81 1141.22 158.29 1134.95 168.17C1133.21 170.92 1129.75 174.42 1123.2 175.49C1122.33 175.63 1121.46 175.7 1120.58 175.7L1120.55 175.72Z" fill="#23022E"/>
<path d="M368.93 18.82C368.59 18.82 368.25 18.79 367.9 18.73C344.85 14.74 308.68 3.17 307.15 2.68C303.99 1.67 302.26 -1.70998 303.27 -4.86999C304.28 -8.01999 307.66 -9.75999 310.82 -8.74999C311.19 -8.62999 347.73 3.06003 369.94 6.90003C373.21 7.47003 375.39 10.57 374.83 13.84C374.32 16.76 371.79 18.82 368.93 18.82Z" fill="#23022E"/>
<path d="M348.63 45.2397C348.41 45.2397 348.19 45.2297 347.96 45.1997C347.09 45.0997 326.59 42.7397 311.72 33.2897C308.92 31.5097 308.1 27.8097 309.87 25.0097C311.65 22.2097 315.35 21.3897 318.15 23.1597C330.64 31.0897 349.1 33.2497 349.29 33.2697C352.58 33.6397 354.95 36.6097 354.58 39.8997C354.24 42.9697 351.64 45.2297 348.63 45.2297V45.2397Z" fill="#23022E"/>
<path d="M1035.22 18.82C1034.88 18.82 1034.54 18.79 1034.19 18.73C1011.14 14.74 974.97 3.17 973.44 2.68C970.28 1.67 968.55 -1.70998 969.56 -4.86999C970.57 -8.01999 973.95 -9.75999 977.11 -8.74999C977.48 -8.62999 1014.02 3.06003 1036.23 6.90003C1039.49 7.47003 1041.68 10.57 1041.12 13.84C1040.62 16.76 1038.08 18.82 1035.21 18.82H1035.22Z" fill="#23022E"/>
<path d="M1014.92 45.2397C1014.7 45.2397 1014.47 45.2298 1014.25 45.1998C1013.38 45.0998 992.88 42.7397 978.01 33.2897C975.21 31.5097 974.38 27.8098 976.16 25.0098C977.94 22.2098 981.64 21.3797 984.44 23.1597C996.99 31.1297 1015.39 33.2498 1015.57 33.2698C1018.86 33.6398 1021.24 36.5998 1020.87 39.8898C1020.53 42.9598 1017.93 45.2297 1014.91 45.2297L1014.92 45.2397Z" fill="#23022E"/>
<path d="M126.68 45.2401C104.43 45.2401 86.33 27.1401 86.33 4.89008C86.33 -17.3599 104.43 -35.46 126.68 -35.46C148.93 -35.46 167.03 -17.3599 167.03 4.89008C167.03 27.1401 148.93 45.2401 126.68 45.2401ZM126.68 -23.46C111.05 -23.46 98.33 -10.7399 98.33 4.89008C98.33 20.5201 111.05 33.2401 126.68 33.2401C142.31 33.2401 155.03 20.5201 155.03 4.89008C155.03 -10.7399 142.31 -23.46 126.68 -23.46Z" fill="#23022E"/>
<path d="M785.25 39.6401C767.19 39.6401 752.5 24.9501 752.5 6.89014C752.5 -11.1699 767.19 -25.8599 785.25 -25.8599C803.31 -25.8599 818 -11.1699 818 6.89014C818 24.9501 803.31 39.6401 785.25 39.6401ZM785.25 -13.8599C773.81 -13.8599 764.5 -4.54986 764.5 6.89014C764.5 18.3301 773.81 27.6401 785.25 27.6401C796.69 27.6401 806 18.3301 806 6.89014C806 -4.54986 796.69 -13.8599 785.25 -13.8599Z" fill="#23022E"/>
<path d="M1123.12 54.8203C1106.15 54.8203 1092.35 41.0202 1092.35 24.0502C1092.35 7.08023 1106.15 -6.71973 1123.12 -6.71973C1140.09 -6.71973 1153.89 7.08023 1153.89 24.0502C1153.89 41.0202 1140.09 54.8203 1123.12 54.8203ZM1123.12 5.28027C1112.77 5.28027 1104.35 13.7002 1104.35 24.0502C1104.35 34.4002 1112.77 42.8203 1123.12 42.8203C1133.47 42.8203 1141.89 34.4002 1141.89 24.0502C1141.89 13.7002 1133.47 5.28027 1123.12 5.28027Z" fill="#23022E"/>
<path d="M460.51 49.6103C443.68 49.6103 429.99 35.9203 429.99 19.0903C429.99 2.26033 443.68 -11.4297 460.51 -11.4297C477.34 -11.4297 491.03 2.26033 491.03 19.0903C491.03 35.9203 477.34 49.6103 460.51 49.6103ZM460.51 0.570312C450.3 0.570312 441.99 8.88033 441.99 19.0903C441.99 29.3003 450.3 37.6103 460.51 37.6103C470.72 37.6103 479.03 29.3003 479.03 19.0903C479.03 8.88033 470.72 0.570312 460.51 0.570312Z" fill="#23022E"/>
</svg>
