<svg width="1351" height="1090" viewBox="0 0 1351 1090" fill="none" xmlns="http://www.w3.org/2000/svg">
<path d="M1286.03 968.2L1186.95 1047.14C1186.95 1047.14 1313.45 1090.08 1312.45 1089.09C1311.46 1088.1 1286.03 968.21 1286.03 968.21V968.2ZM1209.14 1043.78L1279.5 987.72C1279.5 987.72 1297.56 1072.86 1298.26 1073.56C1298.96 1074.26 1209.13 1043.77 1209.13 1043.77L1209.14 1043.78Z" fill="#F2F2F2"/>
<path d="M1280.09 83.82L1181.01 162.76C1181.01 162.76 1307.51 205.7 1306.51 204.71C1305.52 203.72 1280.09 83.83 1280.09 83.83V83.82ZM1203.2 159.4L1273.56 103.34C1273.56 103.34 1291.62 188.48 1292.32 189.18C1293.02 189.88 1203.19 159.39 1203.19 159.39L1203.2 159.4Z" fill="#F2F2F2"/>
<path d="M413.26 679.11L331.9 766.31C331.9 766.31 452.43 793.98 451.41 793.13C450.39 792.28 413.25 679.11 413.25 679.11H413.26ZM351.78 760.63L409.56 698.71C409.56 698.71 435.93 779.08 436.66 779.68C437.39 780.28 351.79 760.63 351.79 760.63H351.78Z" fill="#F2F2F2"/>
<path d="M452.99 963.16L434.75 1042.02C434.75 1042.02 514.99 1017.39 514.1 1017.24C513.21 1017.09 452.99 963.16 452.99 963.16ZM444.51 1031.94L457.46 975.94C457.46 975.94 500.23 1014.23 500.86 1014.34C501.49 1014.45 444.51 1031.94 444.51 1031.94Z" fill="#F2F2F2"/>
<path d="M620.65 95.28L529.49 172.17C529.49 172.17 645.87 213.99 644.96 213.03C644.05 212.06 620.65 95.28 620.65 95.28ZM549.9 168.9L614.64 114.3C614.64 114.3 631.26 197.23 631.9 197.92C632.54 198.61 549.9 168.9 549.9 168.9Z" fill="#F2F2F2"/>
<path d="M37.0201 310.62L-33.3599 406.89C-33.3599 406.89 89.6101 419.99 88.5001 419.27C87.3901 418.55 37.0201 310.61 37.0201 310.61V310.62ZM-14.2999 398.89L35.6801 330.52C35.6801 330.52 71.4401 407.17 72.2401 407.68C73.0401 408.19 -14.2999 398.89 -14.2999 398.89Z" fill="#F2F2F2"/>
<path d="M691.97 314.76L621.59 411.03C621.59 411.03 744.56 424.13 743.45 423.41C742.34 422.69 691.97 314.75 691.97 314.75V314.76ZM640.65 403.03L690.63 334.66C690.63 334.66 726.39 411.31 727.19 411.82C727.99 412.33 640.65 403.03 640.65 403.03Z" fill="#F2F2F2"/>
<path d="M1074.14 679.11L992.78 766.31C992.78 766.31 1113.31 793.98 1112.29 793.13C1111.27 792.28 1074.13 679.11 1074.13 679.11H1074.14ZM1012.66 760.63L1070.44 698.71C1070.44 698.71 1096.81 779.08 1097.54 779.68C1098.27 780.28 1012.67 760.63 1012.67 760.63H1012.66Z" fill="#F2F2F2"/>
<path d="M97.0399 886.37L-1.07007 998.36C-1.07007 998.36 145.71 1035.35 144.46 1034.24C143.21 1033.13 97.0399 886.37 97.0399 886.37ZM23.0499 991.21L92.7199 911.68C92.7199 911.68 125.51 1015.9 126.39 1016.69C127.27 1017.48 23.0399 991.21 23.0399 991.21H23.0499Z" fill="#F2F2F2"/>
<path d="M455.62 365.6L508.48 504.79C508.48 504.79 610.02 392.53 608.45 393.12C606.88 393.7 455.62 365.6 455.62 365.6ZM513.48 480.14L475.94 381.29C475.94 381.29 583.36 401.24 584.47 400.83C585.58 400.42 513.48 480.14 513.48 480.14Z" fill="#F2F2F2"/>
<path d="M1120.84 365.6L1173.7 504.79C1173.7 504.79 1275.24 392.53 1273.67 393.12C1272.1 393.7 1120.84 365.6 1120.84 365.6ZM1178.7 480.14L1141.16 381.29C1141.16 381.29 1248.58 401.24 1249.69 400.83C1250.8 400.42 1178.7 480.14 1178.7 480.14Z" fill="#F2F2F2"/>
<path d="M101.63 8.95001L-1.06006 116.76C-1.06006 116.76 144.05 159.83 142.85 158.67C141.65 157.51 101.64 8.95001 101.64 8.95001H101.63ZM23.3299 110.62L96.2599 34.06C96.2599 34.06 124.67 139.56 125.53 140.38C126.39 141.2 23.3399 110.62 23.3399 110.62H23.3299Z" fill="#F2F2F2"/>
<path d="M758.54 0L655.85 107.81C655.85 107.81 800.96 150.88 799.76 149.72C798.56 148.56 758.55 0 758.55 0H758.54ZM680.24 101.67L753.17 25.11C753.17 25.11 781.58 130.61 782.44 131.43C783.3 132.25 680.25 101.67 680.25 101.67H680.24Z" fill="#F2F2F2"/>
<path d="M758.54 885.44L655.85 993.25C655.85 993.25 800.96 1036.32 799.76 1035.16C798.56 1034 758.55 885.44 758.55 885.44H758.54ZM680.24 987.11L753.17 910.55C753.17 910.55 781.58 1016.05 782.44 1016.87C783.3 1017.69 680.25 987.11 680.25 987.11H680.24Z" fill="#F2F2F2"/>
<path d="M761.59 585.67L718 728.04C718 728.04 867.04 701.62 865.45 701.11C863.86 700.61 761.59 585.67 761.59 585.67ZM737.07 711.63L768.02 610.53C768.02 610.53 840.64 692.16 841.77 692.51C842.9 692.86 737.06 711.63 737.06 711.63H737.07Z" fill="#F2F2F2"/>
<path d="M102.85 585.67L59.26 728.04C59.26 728.04 208.3 701.62 206.71 701.11C205.12 700.61 102.85 585.67 102.85 585.67ZM78.33 711.63L109.28 610.53C109.28 610.53 181.9 692.16 183.03 692.51C184.16 692.86 78.32 711.63 78.32 711.63H78.33Z" fill="#F2F2F2"/>
<path d="M-137.17 983.67C-137.43 983.67 -137.7 983.65 -137.97 983.62C-141.25 983.18 -143.56 980.17 -143.13 976.88L-138.92 945.17C-138.67 943.25 -137.5 941.58 -135.8 940.67C-134.09 939.76 -132.06 939.73 -130.32 940.58L-101.98 954.55V917.34C-101.98 915.04 -100.66 912.94 -98.5799 911.93C-96.4999 910.93 -94.0399 911.21 -92.2399 912.64C-92.1299 912.73 -82.1799 920.65 -71.4099 929.32C-72.7499 927.04 -74.1499 924.63 -75.6199 922.11C-86.5399 903.37 -97.4399 884.39 -97.5499 884.2C-98.9199 881.82 -98.4899 878.81 -96.5199 876.9C-94.5499 874.99 -91.5299 874.66 -89.1899 876.1L2.08011 932.47C4.90012 934.21 5.77011 937.91 4.03011 940.73C2.2901 943.55 -1.40988 944.43 -4.22989 942.68L-75.2799 898.8C-61.7899 922.11 -46.8899 947.54 -43.5799 952.34C-41.9799 954.03 -40.8599 956.06 -41.8599 958.92C-42.6999 961.33 -44.9999 962.95 -47.5499 962.95C-49.8799 962.95 -51.2999 961.97 -52.6799 960.22C-56.5999 956.66 -74.6799 942.05 -89.9899 929.79V964.17C-89.9899 966.24 -91.0599 968.17 -92.8199 969.26C-94.5799 970.36 -96.7799 970.46 -98.6399 969.55L-128.13 955.02L-131.24 978.44C-131.64 981.46 -134.22 983.65 -137.18 983.65L-137.17 983.67Z" fill="#F2F2F2"/>
<path d="M-54.98 597.34C-56.72 597.34 -58.44 596.59 -59.62 595.14L-82.45 567.28C-83.68 565.78 -84.1 563.79 -83.6 561.92C-83.1 560.05 -81.73 558.54 -79.92 557.86L-45.49 544.87L-76.97 515.41C-78.65 513.84 -79.28 511.44 -78.6 509.24C-77.91 507.04 -76.03 505.43 -73.75 505.09C-73.58 505.06 -56.83 502.6 -39.92 500.22C-43.99 499.3 -48.39 498.3 -53.11 497.23C-76.92 491.79 -100.91 486.15 -101.15 486.09C-103.82 485.46 -105.73 483.1 -105.77 480.35C-105.82 477.6 -103.99 475.18 -101.34 474.46L15.24 442.78C18.44 441.91 21.74 443.8 22.6 447C23.47 450.2 21.58 453.49 18.38 454.36L-75.28 479.81C-44.89 486.86 -10.47 494.66 -3.82001 495.64C-1.37001 495.62 0.899994 496.18 2.31 498.88C3.49 501.14 3.10999 503.93 1.37 505.79C-0.230003 507.5 -1.93 507.87 -4.28 507.66C-10.32 508.15 -37.42 511.94 -59.68 515.16L-30.26 542.69C-28.75 544.11 -28.07 546.2 -28.47 548.24C-28.87 550.27 -30.3 551.95 -32.24 552.69L-67.87 566.13L-50.34 587.53C-48.24 590.09 -48.62 593.87 -51.18 595.97C-52.3 596.88 -53.64 597.33 -54.98 597.33V597.34Z" fill="#F2F2F2"/>
<path d="M502.68 609.58C501.26 609.58 499.86 609.07 498.76 608.12C497.3 606.86 496.53 604.97 496.71 603.04L500.35 562.64L456.13 579.7C453.98 580.53 451.55 580.05 449.87 578.48C448.19 576.9 447.56 574.5 448.25 572.31C448.31 572.13 454.01 553.99 459.76 536.08C459.92 535.57 460.09 535.06 460.25 534.56C456.99 538.66 453.39 543.17 449.47 548.08C432.97 568.69 416.19 589.38 416.03 589.59C414.3 591.72 411.34 592.41 408.85 591.26C406.36 590.11 404.97 587.41 405.47 584.71L429.51 456.34C430.12 453.08 433.25 450.94 436.51 451.55C439.77 452.16 441.91 455.29 441.3 458.55L421.63 563.58C443.11 536.94 467.75 506.06 471.91 499.93C472.99 497.6 474.48 495.82 477.55 495.72C480.11 495.64 482.45 497.2 483.36 499.58C484.21 501.78 483.81 503.47 482.53 505.59C480.13 511.78 470.84 540.67 463.44 564.05L505.03 548.01C506.96 547.26 509.15 547.57 510.8 548.82C512.46 550.07 513.35 552.08 513.16 554.15L509.41 595.83L539.14 588.68C542.36 587.91 545.6 589.89 546.38 593.11C547.15 596.33 545.17 599.57 541.95 600.35L504.09 609.46C503.63 609.57 503.15 609.63 502.69 609.63L502.68 609.58Z" fill="#F2F2F2"/>
<path d="M1167.9 602.17C1166.48 602.17 1165.08 601.66 1163.98 600.71C1162.52 599.45 1161.75 597.56 1161.93 595.63L1165.56 555.23L1121.34 572.29C1119.19 573.12 1116.76 572.64 1115.08 571.07C1113.4 569.49 1112.77 567.09 1113.46 564.9C1113.52 564.72 1119.22 546.58 1124.97 528.67C1125.14 528.16 1125.3 527.65 1125.46 527.15C1122.2 531.25 1118.6 535.76 1114.68 540.67C1098.18 561.28 1081.4 581.97 1081.24 582.18C1079.51 584.31 1076.55 585 1074.06 583.85C1071.57 582.7 1070.18 580 1070.68 577.3L1094.72 448.93C1095.33 445.67 1098.46 443.53 1101.72 444.14C1104.98 444.75 1107.12 447.88 1106.51 451.14L1086.84 556.17C1108.32 529.53 1132.97 498.65 1137.12 492.52C1138.2 490.19 1139.69 488.41 1142.76 488.31C1145.3 488.24 1147.66 489.79 1148.57 492.17C1149.42 494.38 1149.02 496.06 1147.74 498.18C1145.34 504.37 1136.05 533.26 1128.64 556.64L1170.23 540.6C1172.17 539.85 1174.35 540.16 1176 541.41C1177.66 542.66 1178.55 544.67 1178.36 546.74L1174.61 588.42L1204.34 581.27C1207.57 580.5 1210.8 582.48 1211.58 585.7C1212.35 588.92 1210.37 592.16 1207.15 592.94L1169.29 602.05C1168.83 602.16 1168.35 602.22 1167.89 602.22L1167.9 602.17Z" fill="#F2F2F2"/>
<path d="M1057.78 373.07C1055.5 373.07 1053.38 371.77 1052.37 369.65L996.12 251.78C994.69 248.79 995.96 245.21 998.95 243.78C1001.94 242.35 1005.52 243.62 1006.95 246.61L1052.97 343.04C1054.62 308.86 1056.32 269.39 1056.07 261.98C1055.57 259.46 1055.72 257.14 1058.14 255.25C1060.15 253.68 1062.97 253.56 1065.11 254.94C1067.1 256.22 1067.77 257.82 1067.98 260.28C1069.69 266.7 1079.21 295.51 1087.01 318.76L1111.15 281.29C1112.26 279.57 1114.16 278.54 1116.19 278.54C1116.22 278.54 1116.25 278.54 1116.28 278.54C1118.35 278.57 1120.26 279.67 1121.33 281.45L1142.87 317.33L1162.67 294.03C1164.82 291.5 1168.6 291.2 1171.13 293.34C1173.65 295.49 1173.96 299.27 1171.82 301.8L1146.6 331.47C1145.35 332.94 1143.45 333.72 1141.54 333.56C1139.61 333.4 1137.88 332.33 1136.89 330.67L1116.01 295.89L1090.34 335.73C1089.09 337.67 1086.85 338.72 1084.56 338.44C1082.27 338.16 1080.35 336.59 1079.61 334.41C1079.55 334.23 1073.46 316.22 1067.55 298.36C1067.38 297.85 1067.21 297.34 1067.05 296.84C1066.84 302.07 1066.59 307.84 1066.31 314.12C1065.14 340.49 1063.78 367.1 1063.76 367.37C1063.62 370.11 1061.64 372.41 1058.94 372.95C1058.55 373.03 1058.15 373.07 1057.76 373.07H1057.78Z" fill="#F2F2F2"/>
<path d="M402.26 370.96C399.98 370.96 397.86 369.66 396.85 367.54L340.6 249.67C339.17 246.68 340.44 243.1 343.43 241.67C346.42 240.24 350 241.51 351.43 244.5L397.45 340.93C399.1 306.74 400.8 267.27 400.55 259.88C400.05 257.36 400.2 255.04 402.62 253.15C404.63 251.58 407.45 251.46 409.59 252.84C411.58 254.12 412.25 255.72 412.46 258.18C414.17 264.6 423.69 293.41 431.49 316.66L455.63 279.19C456.75 277.45 458.71 276.43 460.77 276.44C462.84 276.47 464.75 277.57 465.82 279.35L487.36 315.23L507.16 291.93C509.31 289.4 513.09 289.1 515.62 291.24C518.15 293.39 518.45 297.17 516.31 299.7L491.09 329.37C489.84 330.84 487.96 331.62 486.03 331.46C484.1 331.3 482.37 330.23 481.38 328.57L460.5 293.79L434.83 333.64C433.58 335.58 431.33 336.63 429.05 336.35C426.76 336.07 424.84 334.5 424.1 332.32C424.04 332.14 417.95 314.13 412.04 296.27C411.87 295.76 411.7 295.25 411.54 294.75C411.33 299.98 411.08 305.75 410.8 312.02C409.62 338.39 408.27 365 408.25 365.27C408.11 368.01 406.13 370.31 403.43 370.85C403.04 370.93 402.64 370.97 402.25 370.97L402.26 370.96Z" fill="#F2F2F2"/>
<path d="M608.1 600.47C606.36 600.47 604.64 599.72 603.45 598.27L580.62 570.41C579.4 568.91 578.97 566.92 579.47 565.05C579.97 563.18 581.34 561.67 583.15 560.99L617.58 548L586.1 518.54C584.42 516.97 583.79 514.57 584.47 512.37C585.16 510.17 587.04 508.56 589.32 508.22C589.49 508.19 606.25 505.73 623.15 503.35C619.08 502.43 614.68 501.43 609.96 500.36C586.15 494.92 562.16 489.28 561.92 489.22C559.25 488.59 557.34 486.23 557.3 483.48C557.25 480.73 559.08 478.31 561.73 477.59L678.31 445.91C681.5 445.04 684.8 446.93 685.67 450.13C686.54 453.33 684.65 456.62 681.45 457.49L587.79 482.94C618.18 489.99 652.6 497.79 659.25 498.77C661.75 498.76 663.97 499.31 665.38 502.01C666.56 504.27 666.18 507.06 664.44 508.92C662.84 510.63 661.14 511 658.8 510.79C652.76 511.28 625.66 515.07 603.4 518.29L632.82 545.82C634.33 547.24 635.01 549.33 634.61 551.37C634.21 553.4 632.78 555.08 630.84 555.82L595.21 569.26L612.74 590.66C614.84 593.22 614.46 597 611.9 599.1C610.78 600.01 609.44 600.46 608.1 600.46V600.47Z" fill="#F2F2F2"/>
<path d="M1272.57 600.47C1270.83 600.47 1269.11 599.72 1267.92 598.27L1245.09 570.41C1243.87 568.91 1243.44 566.92 1243.94 565.05C1244.44 563.18 1245.81 561.67 1247.62 560.99L1282.05 548L1250.57 518.54C1248.89 516.97 1248.26 514.57 1248.94 512.37C1249.63 510.17 1251.51 508.56 1253.79 508.22C1253.96 508.19 1270.72 505.73 1287.62 503.35C1283.55 502.43 1279.15 501.43 1274.43 500.36C1250.62 494.92 1226.63 489.28 1226.39 489.22C1223.72 488.59 1221.81 486.23 1221.77 483.48C1221.72 480.73 1223.55 478.31 1226.2 477.59L1342.78 445.91C1345.98 445.04 1349.27 446.93 1350.14 450.13C1351.01 453.33 1349.12 456.62 1345.92 457.49L1252.26 482.94C1282.65 489.99 1317.07 497.79 1323.72 498.77C1326.22 498.76 1328.44 499.31 1329.85 502.01C1331.03 504.27 1330.65 507.06 1328.91 508.92C1327.31 510.63 1325.61 511 1323.27 510.79C1317.23 511.28 1290.13 515.07 1267.87 518.29L1297.29 545.82C1298.8 547.24 1299.48 549.33 1299.08 551.37C1298.68 553.4 1297.25 555.08 1295.31 555.82L1259.68 569.26L1277.21 590.66C1279.31 593.22 1278.93 597 1276.37 599.1C1275.25 600.01 1273.91 600.46 1272.57 600.46V600.47Z" fill="#F2F2F2"/>
<path d="M529.5 983.67C529.24 983.67 528.97 983.65 528.7 983.62C525.42 983.18 523.11 980.17 523.54 976.88L527.75 945.17C528 943.25 529.17 941.58 530.87 940.67C532.58 939.76 534.61 939.73 536.35 940.58L564.69 954.55V917.34C564.69 915.04 566.01 912.94 568.09 911.93C570.16 910.93 572.63 911.21 574.43 912.64C574.54 912.73 584.49 920.65 595.26 929.32C593.92 927.04 592.52 924.63 591.05 922.11C580.13 903.37 569.23 884.39 569.12 884.2C567.75 881.82 568.18 878.81 570.15 876.9C572.12 874.99 575.14 874.66 577.48 876.11L668.75 932.48C671.57 934.22 672.44 937.92 670.7 940.74C668.96 943.56 665.26 944.44 662.44 942.69L591.39 898.81C604.88 922.12 619.78 947.55 623.09 952.35C624.69 954.04 625.81 956.07 624.81 958.93C623.97 961.34 621.67 962.96 619.12 962.96C616.79 962.96 615.37 961.98 613.99 960.23C610.07 956.67 591.99 942.06 576.68 929.8V964.18C576.68 966.25 575.61 968.18 573.85 969.27C572.09 970.37 569.89 970.47 568.03 969.56L538.54 955.03L535.43 978.45C535.03 981.47 532.45 983.66 529.49 983.66L529.5 983.67Z" fill="#F2F2F2"/>
<path d="M1185.66 983.67C1185.4 983.67 1185.13 983.65 1184.86 983.62C1181.57 983.18 1179.27 980.17 1179.7 976.88L1183.91 945.17C1184.16 943.25 1185.33 941.58 1187.03 940.67C1188.73 939.76 1190.77 939.73 1192.51 940.58L1220.85 954.55V917.34C1220.85 915.04 1222.17 912.94 1224.25 911.93C1226.33 910.93 1228.79 911.21 1230.59 912.64C1230.7 912.73 1240.64 920.65 1251.42 929.32C1250.08 927.04 1248.68 924.63 1247.21 922.11C1236.29 903.37 1225.39 884.39 1225.28 884.2C1223.91 881.82 1224.34 878.81 1226.31 876.9C1228.28 874.99 1231.3 874.66 1233.64 876.1L1324.91 932.47C1327.73 934.21 1328.6 937.91 1326.86 940.73C1325.12 943.55 1321.42 944.43 1318.6 942.68L1247.55 898.8C1261.04 922.11 1275.94 947.54 1279.25 952.34C1280.85 954.03 1281.97 956.06 1280.97 958.92C1280.13 961.33 1277.83 962.95 1275.28 962.95C1272.95 962.95 1271.53 961.97 1270.15 960.22C1266.22 956.66 1248.15 942.05 1232.84 929.79V964.17C1232.84 966.24 1231.77 968.17 1230.01 969.26C1228.25 970.36 1226.05 970.46 1224.19 969.55L1194.7 955.02L1191.59 978.44C1191.19 981.46 1188.61 983.65 1185.65 983.65L1185.66 983.67Z" fill="#F2F2F2"/>
<path d="M287.6 803.18C286.37 803.18 285.14 802.81 284.07 802.03C281.39 800.08 280.81 796.32 282.76 793.65L296.68 774.56L265.31 764.7C263.33 764.08 261.82 762.48 261.3 760.47C260.78 758.46 261.34 756.33 262.77 754.83L286.52 729.97C266.98 728.26 243.81 726.34 238.52 726.21C236.31 726.52 234.61 726.25 232.93 724.64C231.08 722.88 230.55 720.12 231.6 717.8C232.85 715.04 235.06 714.35 237.39 714.23C243.1 713.05 271.44 704.95 297.3 697.41L215.61 680.07C212.37 679.38 210.3 676.2 210.99 672.95C211.68 669.71 214.86 667.64 218.1 668.33L323.04 690.6C325.73 691.17 327.68 693.49 327.79 696.23C327.9 698.97 326.13 701.44 323.49 702.22C323.28 702.28 302.29 708.48 281.45 714.49C278.65 715.3 275.97 716.07 273.43 716.79C287.21 717.96 299.87 719.1 300.01 719.11C302.3 719.32 304.28 720.82 305.09 722.98C305.9 725.14 305.4 727.57 303.81 729.23L278.11 756.14L308.25 765.61C310.09 766.19 311.55 767.62 312.15 769.46C312.75 771.3 312.44 773.31 311.3 774.87L292.45 800.71C291.28 802.32 289.45 803.17 287.6 803.17V803.18Z" fill="#F2F2F2"/>
<path d="M955.24 803.18C954.01 803.18 952.78 802.81 951.71 802.03C949.03 800.08 948.45 796.32 950.4 793.65L964.32 774.56L932.95 764.7C930.97 764.08 929.45 762.48 928.94 760.47C928.42 758.46 928.98 756.33 930.41 754.83L954.16 729.97C934.62 728.26 911.45 726.34 906.16 726.21C903.96 726.52 902.25 726.25 900.57 724.64C898.72 722.88 898.18 720.12 899.24 717.79C900.49 715.03 902.7 714.34 905.03 714.22C910.74 713.04 939.08 704.94 964.94 697.4L883.25 680.06C880.01 679.37 877.94 676.19 878.63 672.94C879.32 669.7 882.51 667.63 885.75 668.32L990.69 690.59C993.38 691.16 995.33 693.48 995.44 696.22C995.55 698.96 993.78 701.43 991.14 702.21C990.93 702.27 969.94 708.47 949.1 714.48C946.3 715.29 943.62 716.06 941.08 716.78C954.86 717.95 967.52 719.09 967.66 719.1C969.95 719.31 971.93 720.81 972.74 722.97C973.55 725.13 973.05 727.56 971.46 729.22L945.76 756.13L975.9 765.6C977.74 766.18 979.2 767.61 979.8 769.45C980.4 771.29 980.09 773.3 978.95 774.86L960.1 800.7C958.93 802.31 957.1 803.16 955.25 803.16L955.24 803.18Z" fill="#F2F2F2"/>
<path d="M104.84 871.82C104.34 871.82 103.83 871.76 103.33 871.63C100.78 870.97 98.96 868.71 98.85 866.08L94.51 764.71L63.8999 821.98C62.7299 824.17 60.34 825.4 57.88 825.11C55.42 824.81 53.3999 823.03 52.7899 820.63L36.0599 754.58C35.2499 751.37 37.1899 748.1 40.3999 747.29C43.6099 746.48 46.88 748.42 47.69 751.63L60.6199 802.67L94.2699 739.71C95.5399 737.32 98.26 736.09 100.89 736.69C103.53 737.29 105.44 739.58 105.55 742.28L110 846.01L170.19 748.2C171.93 745.38 175.62 744.5 178.44 746.23C181.26 747.97 182.14 751.66 180.41 754.48L109.95 868.98C108.84 870.78 106.89 871.84 104.84 871.84V871.82Z" fill="#F2F2F2"/>
<path d="M877.08 648.69C875.28 648.69 873.5 647.88 872.32 646.34L810.73 566.08C809.12 563.99 809.07 561.09 810.6 558.95C812.13 556.81 814.88 555.91 817.38 556.74L884.67 579.17L856.18 546.38C854.56 544.51 854.25 541.83 855.4 539.64C856.56 537.45 858.94 536.19 861.4 536.48L912.33 542.44C915.62 542.82 917.98 545.81 917.59 549.1C917.21 552.39 914.21 554.76 910.93 554.36L875.39 550.2L908.11 587.86C909.88 589.9 910.07 592.88 908.57 595.13C907.07 597.38 904.25 598.34 901.68 597.49L832.15 574.31L881.82 639.04C883.84 641.67 883.34 645.44 880.71 647.45C879.62 648.29 878.34 648.69 877.06 648.69H877.08Z" fill="#F2F2F2"/>
<path d="M204.44 641.79C202.64 641.79 200.86 640.98 199.68 639.44L138.09 559.18C136.49 557.09 136.43 554.19 137.96 552.05C139.49 549.9 142.24 549.01 144.74 549.84L212.03 572.27L183.54 539.48C181.92 537.61 181.61 534.93 182.76 532.74C183.91 530.55 186.3 529.3 188.76 529.58L239.69 535.54C242.98 535.93 245.34 538.91 244.95 542.2C244.56 545.49 241.6 547.85 238.29 547.46L202.75 543.3L235.47 580.96C237.24 583 237.43 585.98 235.93 588.23C234.43 590.48 231.61 591.44 229.04 590.59L159.51 567.41L209.18 632.13C211.2 634.76 210.7 638.53 208.07 640.54C206.98 641.38 205.7 641.78 204.42 641.78L204.44 641.79Z" fill="#F2F2F2"/>
<path d="M771.22 874.39C770.72 874.39 770.21 874.33 769.71 874.2C767.16 873.54 765.34 871.28 765.23 868.65L760.89 767.28L730.28 824.55C729.11 826.73 726.72 827.97 724.26 827.68C721.8 827.38 719.78 825.6 719.17 823.2L702.44 757.15C701.63 753.94 703.57 750.67 706.78 749.86C709.99 749.05 713.26 750.99 714.07 754.2L727 805.24L760.65 742.28C761.92 739.9 764.63 738.66 767.27 739.26C769.91 739.86 771.82 742.15 771.93 744.85L776.38 848.58L836.57 750.77C838.31 747.95 842 747.07 844.82 748.8C847.64 750.54 848.52 754.23 846.79 757.05L776.33 871.55C775.22 873.35 773.27 874.41 771.22 874.41V874.39Z" fill="#F2F2F2"/>
<path d="M439.5 949.97C437.85 949.97 436.21 949.3 435.03 947.97C432.82 945.5 433.03 941.71 435.5 939.5L521.08 862.9L418.2 876.94C415.52 877.31 412.93 875.83 411.87 873.34C410.81 870.85 411.55 867.96 413.67 866.29L469.66 822L417.14 818.33C413.83 818.1 411.34 815.23 411.57 811.93C411.8 808.62 414.68 806.13 417.97 806.36L485.95 811.1C488.42 811.27 490.53 812.95 491.26 815.31C491.99 817.68 491.19 820.25 489.25 821.79L438.33 862.08L538.87 848.36C541.48 848 544.02 849.39 545.13 851.79C546.24 854.18 545.65 857.02 543.68 858.78L443.51 948.44C442.36 949.46 440.94 949.97 439.51 949.97H439.5Z" fill="#F2F2F2"/>
<path d="M1102.14 952.49C1100.49 952.49 1098.85 951.82 1097.67 950.49C1095.46 948.02 1095.67 944.23 1098.14 942.02L1183.72 865.42L1080.85 879.46C1078.17 879.82 1075.58 878.35 1074.52 875.87C1073.46 873.38 1074.2 870.49 1076.32 868.81L1132.31 824.52L1079.79 820.85C1076.48 820.62 1073.99 817.75 1074.22 814.45C1074.45 811.15 1077.31 808.65 1080.62 808.88L1148.6 813.62C1151.07 813.79 1153.18 815.47 1153.91 817.83C1154.64 820.2 1153.84 822.77 1151.9 824.31L1100.98 864.6L1201.52 850.88C1204.13 850.52 1206.67 851.91 1207.78 854.31C1208.89 856.7 1208.3 859.54 1206.34 861.3L1106.17 950.96C1105.02 951.98 1103.59 952.49 1102.17 952.49H1102.14Z" fill="#F2F2F2"/>
<path d="M1042.81 663.97C1040 663.97 1037.49 661.99 1036.93 659.13L1014.7 546.45L974.3 642.09C973.25 644.58 970.66 646.05 967.98 645.7C965.3 645.34 963.19 643.23 962.83 640.55L953.29 569.8L923.35 613.1C921.46 615.83 917.73 616.51 915 614.62C912.27 612.74 911.59 609 913.48 606.27L952.24 550.22C953.65 548.18 956.16 547.22 958.58 547.8C960.99 548.38 962.79 550.38 963.13 552.83L971.8 617.18L1011.29 523.71C1012.32 521.28 1014.81 519.81 1017.43 520.08C1020.05 520.35 1022.19 522.3 1022.7 524.89L1048.72 656.79C1049.36 660.04 1047.25 663.2 1043.99 663.84C1043.6 663.92 1043.21 663.95 1042.82 663.95L1042.81 663.97Z" fill="#F2F2F2"/>
<path d="M375.77 665.73C372.96 665.73 370.45 663.75 369.89 660.89L347.66 548.21L307.26 643.85C306.21 646.34 303.62 647.81 300.94 647.46C298.26 647.1 296.15 644.99 295.79 642.31L286.25 571.56L256.31 614.86C254.43 617.59 250.69 618.27 247.96 616.38C245.23 614.5 244.55 610.76 246.44 608.03L285.2 551.98C286.61 549.94 289.12 548.98 291.53 549.56C293.94 550.14 295.75 552.14 296.08 554.59L304.75 618.94L344.24 525.47C345.27 523.04 347.76 521.57 350.38 521.84C353 522.11 355.14 524.06 355.65 526.65L381.67 658.55C382.31 661.8 380.2 664.96 376.94 665.6C376.55 665.68 376.16 665.71 375.77 665.71V665.73Z" fill="#F2F2F2"/>
<path d="M-58.22 347.25C-59.74 347.25 -61.26 346.67 -62.43 345.52L-110.93 297.66C-112.69 295.92 -113.21 293.27 -112.22 291C-111.23 288.73 -108.94 287.29 -106.48 287.39L-41.6 289.98L-126.83 234.93C-129.04 233.5 -130.07 230.79 -129.35 228.25C-128.63 225.71 -126.34 223.94 -123.7 223.89L10.71 221.07C14.04 220.99 16.77 223.63 16.83 226.94C16.9 230.25 14.27 233 10.96 233.06L-103.87 235.47L-16.65 291.81C-14.38 293.28 -13.37 296.08 -14.19 298.66C-15.01 301.24 -17.45 302.96 -20.15 302.84L-91.48 300L-54.01 336.98C-51.65 339.31 -51.63 343.11 -53.95 345.46C-55.12 346.65 -56.67 347.25 -58.22 347.25Z" fill="#F2F2F2"/>
<path d="M603.52 347.25C602 347.25 600.48 346.67 599.31 345.52L550.81 297.66C549.05 295.92 548.53 293.27 549.52 291C550.51 288.73 552.81 287.29 555.26 287.39L620.14 289.98L534.91 234.93C532.7 233.5 531.67 230.79 532.39 228.25C533.11 225.71 535.4 223.94 538.04 223.89L672.45 221.07C675.75 221 678.5 223.63 678.57 226.94C678.64 230.25 676.01 233 672.7 233.06L557.87 235.47L645.09 291.81C647.36 293.28 648.37 296.08 647.55 298.66C646.73 301.24 644.31 302.95 641.59 302.84L570.26 300L607.73 336.98C610.09 339.31 610.11 343.11 607.79 345.46C606.62 346.65 605.07 347.25 603.52 347.25Z" fill="#F2F2F2"/>
<path d="M1260.79 347.25C1259.27 347.25 1257.75 346.67 1256.58 345.52L1208.08 297.66C1206.32 295.92 1205.8 293.27 1206.79 291C1207.77 288.73 1210.02 287.3 1212.53 287.39L1277.41 289.98L1192.18 234.93C1189.97 233.5 1188.94 230.79 1189.66 228.25C1190.38 225.71 1192.67 223.94 1195.31 223.89L1329.72 221.07C1333 221 1335.77 223.63 1335.84 226.94C1335.91 230.25 1333.28 233 1329.97 233.06L1215.14 235.47L1302.36 291.81C1304.63 293.28 1305.64 296.08 1304.82 298.66C1304 301.24 1301.57 302.95 1298.86 302.84L1227.53 300L1265 336.98C1267.36 339.31 1267.38 343.11 1265.06 345.46C1263.89 346.65 1262.34 347.25 1260.79 347.25Z" fill="#F2F2F2"/>
<path d="M159.44 1000.84C157.76 1000.84 156.08 1000.14 154.9 998.76C152.73 996.25 153.01 992.46 155.52 990.3L262.53 897.82C265.04 895.66 268.83 895.93 270.99 898.44C273.16 900.95 272.88 904.74 270.37 906.9L163.36 999.38C162.23 1000.36 160.83 1000.84 159.44 1000.84Z" fill="#F2F2F2"/>
<path d="M262.93 988.07C260.34 988.07 260.24 988.07 242.3 973.91C233.63 967.07 221.68 957.53 206.77 945.57C181.4 925.21 155.92 904.59 155.67 904.38C153.09 902.3 152.7 898.52 154.78 895.94C156.86 893.36 160.64 892.97 163.22 895.05C201.34 925.91 259.5 972.67 265.52 976.65C267.54 977.62 268.93 979.68 268.93 982.06C268.93 985.37 266.24 988.06 262.93 988.06V988.07Z" fill="#F2F2F2"/>
<path d="M822.46 1000.84C820.78 1000.84 819.1 1000.14 817.92 998.76C815.75 996.25 816.03 992.46 818.54 990.3L925.55 897.82C928.06 895.65 931.85 895.93 934.01 898.44C936.17 900.95 935.9 904.74 933.39 906.9L826.38 999.38C825.25 1000.36 823.85 1000.84 822.46 1000.84Z" fill="#F2F2F2"/>
<path d="M925.94 988.07C923.35 988.07 923.25 988.07 905.31 973.91C896.64 967.07 884.69 957.53 869.78 945.57C844.41 925.21 818.93 904.59 818.68 904.38C816.1 902.3 815.71 898.52 817.79 895.94C819.87 893.36 823.65 892.97 826.23 895.05C864.35 925.91 922.51 972.67 928.53 976.65C930.55 977.62 931.94 979.68 931.94 982.06C931.94 985.37 929.25 988.06 925.94 988.06V988.07Z" fill="#F2F2F2"/>
<path d="M-88.9901 781.81C-91.1801 781.81 -93.3001 780.6 -94.3501 778.51C-95.8401 775.55 -94.6501 771.94 -91.6901 770.45L34.5899 706.76C37.5499 705.27 41.1599 706.46 42.6499 709.42C44.1399 712.38 42.95 715.99 39.9899 717.48L-86.2901 781.17C-87.1601 781.61 -88.0801 781.81 -88.9901 781.81Z" fill="#F2F2F2"/>
<path d="M14.16 810.39C12.34 810.39 10.54 809.56 9.35999 808C-20.12 768.8 -65.16 709.3 -70.03 703.98C-71.75 702.55 -72.6 700.21 -72.02 697.9C-71.21 694.69 -67.95 692.73 -64.74 693.54C-62.23 694.17 -62.13 694.19 -48.17 712.29C-41.42 721.03 -32.15 733.19 -20.6 748.42C-0.940018 774.34 18.76 800.54 18.96 800.8C20.95 803.45 20.42 807.21 17.77 809.2C16.69 810.01 15.42 810.4 14.17 810.4L14.16 810.39Z" fill="#F2F2F2"/>
<path d="M688.1 808.62C686.27 808.62 684.47 807.79 683.29 806.21L598.65 692.9C596.67 690.24 597.21 686.48 599.87 684.5C602.52 682.51 606.29 683.06 608.27 685.72L692.91 799.03C694.89 801.69 694.35 805.45 691.69 807.43C690.61 808.24 689.35 808.62 688.1 808.62Z" fill="#F2F2F2"/>
<path d="M593.21 801.86C591.74 801.86 590.27 801.32 589.11 800.24C586.69 797.98 586.56 794.18 588.82 791.76C622.31 755.93 673.08 701.23 677.48 695.51C678.59 693.57 680.74 692.32 683.13 692.49C686.44 692.73 688.92 695.6 688.69 698.9C688.51 701.48 688.5 701.58 673.1 718.47C665.66 726.63 655.3 737.88 642.31 751.9C620.2 775.76 597.82 799.71 597.59 799.95C596.41 801.21 594.81 801.85 593.21 801.85V801.86Z" fill="#F2F2F2"/>
<path d="M891.62 409.85C891.21 409.85 890.79 409.81 890.37 409.72C887.13 409.03 885.06 405.85 885.74 402.61L915.03 264.24C915.72 261 918.9 258.93 922.14 259.61C925.38 260.3 927.45 263.48 926.77 266.72L897.48 405.09C896.88 407.91 894.39 409.85 891.62 409.85Z" fill="#F2F2F2"/>
<path d="M960.86 337.29C957.39 337.29 952.37 337.2 944.94 337.07C933.9 336.87 918.61 336.5 899.51 335.99C866.99 335.12 834.23 334.11 833.9 334.09C830.59 333.99 827.99 331.22 828.09 327.91C828.19 324.6 830.97 322 834.27 322.1C883.29 323.62 957.88 325.68 965.09 325.21C967.28 324.76 969.64 325.56 971.08 327.46C973.08 330.1 972.57 333.86 969.93 335.87C968.54 336.93 968.05 337.3 960.86 337.3V337.29Z" fill="#F2F2F2"/>
<path d="M235.64 406.45C235.23 406.45 234.81 406.41 234.39 406.32C231.15 405.63 229.08 402.45 229.76 399.21L259.05 260.84C259.74 257.6 262.92 255.53 266.16 256.21C269.4 256.9 271.47 260.08 270.79 263.32L241.5 401.69C240.9 404.51 238.41 406.45 235.64 406.45Z" fill="#F2F2F2"/>
<path d="M304.88 333.89C301.41 333.89 296.39 333.8 288.96 333.67C277.92 333.47 262.63 333.1 243.53 332.59C211.01 331.72 178.25 330.71 177.92 330.69C174.61 330.59 172.01 327.82 172.11 324.51C172.21 321.2 174.98 318.59 178.29 318.7C227.31 320.22 301.91 322.28 309.11 321.81C311.3 321.36 313.66 322.16 315.1 324.06C317.1 326.7 316.59 330.46 313.95 332.47C312.56 333.53 312.07 333.9 304.88 333.9V333.89Z" fill="#F2F2F2"/>
<path d="M344.94 1028.72C333.87 1028.72 321.7 1017.53 307.83 994.65C297.66 977.87 290.31 960.94 290 960.23C288.69 957.19 290.08 953.66 293.13 952.34C296.17 951.03 299.7 952.42 301.02 955.46C314.38 986.35 335.51 1018.34 345.63 1016.65C347.95 1016.27 348.75 1015.43 349.19 1014.74C352.58 1009.4 347.98 993.26 343.93 979.02C341.17 969.33 338.32 959.31 336.71 949.56C336.19 946.4 334.61 936.77 341.25 931.71C349.23 925.63 362.11 931.56 374.56 937.29C379.42 939.53 386.69 942.88 389.12 942.89C391.31 941.93 392.64 940.59 393.19 938.81C394.21 935.52 392.73 930.49 389.14 925C381.59 913.48 375.63 904.38 384.66 893.27C386.75 890.7 390.53 890.31 393.1 892.4C395.67 894.49 396.06 898.27 393.97 900.84C391.28 904.15 390.47 905.14 399.18 918.43C406.42 929.48 406.15 937.55 404.66 942.37C403 947.72 399.09 951.79 393.35 954.13C387.57 956.49 380.01 953.01 369.54 948.19C363.7 945.5 351.6 939.93 348.57 941.24C348.42 941.56 347.83 943.17 348.56 947.61C350.05 956.68 352.81 966.37 355.48 975.73C360.91 994.81 365.6 1011.29 359.33 1021.17C357.59 1023.92 354.13 1027.42 347.58 1028.49C346.71 1028.63 345.84 1028.7 344.96 1028.7L344.94 1028.72Z" fill="#F2F2F2"/>
<path d="M78.3902 577.19C77.7402 577.19 77.0802 577.08 76.4302 576.86C75.7002 576.61 58.2602 570.57 40.7602 561.7C14.9902 548.65 2.96016 536.54 3.98016 524.66C4.55016 518.04 7.77017 514.33 10.3802 512.38C19.7602 505.37 36.5402 508.8 55.9802 512.76C65.5202 514.71 75.3902 516.72 84.5502 517.52C89.0302 517.91 90.5902 517.2 90.9002 517.02C91.9802 513.9 85.5002 502.27 82.3702 496.64C76.7602 486.57 72.7102 479.29 74.6302 473.35C76.5302 467.45 80.2902 463.25 85.5002 461.18C90.2002 459.32 98.2202 458.44 109.79 464.82C123.7 472.49 124.63 471.6 127.72 468.67C130.13 466.39 133.92 466.49 136.2 468.9C138.48 471.31 138.38 475.1 135.97 477.38C125.58 487.23 116.05 481.98 103.99 475.33C98.2402 472.16 93.1202 471.07 89.9202 472.34C88.1902 473.03 86.9502 474.46 86.1602 476.71C86.3602 479.13 90.2502 486.13 92.8502 490.81C99.5202 502.79 106.41 515.17 100.95 523.59C96.4102 530.59 86.6902 529.75 83.5002 529.47C73.6602 528.61 63.4502 526.53 53.5702 524.52C39.0602 521.56 22.6202 518.21 17.5502 521.99C16.9002 522.48 16.1202 523.34 15.9202 525.68C15.0402 535.92 48.5102 554.54 80.3302 565.5C83.4602 566.58 85.1302 570 84.0502 573.13C83.1902 575.62 80.8702 577.18 78.3802 577.18L78.3902 577.19Z" fill="#F2F2F2"/>
<path d="M738.85 574.51C738.2 574.51 737.54 574.4 736.89 574.18C736.16 573.93 718.72 567.89 701.22 559.02C675.45 545.97 663.42 533.86 664.44 521.98C665.01 515.36 668.23 511.65 670.84 509.7C680.22 502.69 697 506.12 716.44 510.08C725.98 512.03 735.85 514.04 745.01 514.84C749.49 515.23 751.05 514.52 751.36 514.34C752.44 511.22 745.96 499.59 742.83 493.96C737.22 483.89 733.17 476.61 735.09 470.67C736.99 464.77 740.75 460.57 745.96 458.5C750.65 456.64 758.68 455.76 770.25 462.14C784.16 469.81 785.09 468.92 788.18 465.99C790.59 463.71 794.38 463.81 796.66 466.22C798.94 468.63 798.84 472.42 796.43 474.7C786.04 484.55 776.51 479.29 764.45 472.64C758.7 469.47 753.57 468.38 750.38 469.65C748.65 470.34 747.41 471.77 746.62 474.02C746.82 476.44 750.71 483.44 753.31 488.12C759.98 500.1 766.87 512.48 761.41 520.9C756.87 527.9 747.16 527.06 743.96 526.78C734.12 525.92 723.91 523.84 714.04 521.83C699.53 518.87 683.09 515.51 678.02 519.3C677.37 519.79 676.59 520.65 676.39 522.99C675.51 533.23 708.98 551.85 740.8 562.81C743.93 563.89 745.6 567.31 744.52 570.44C743.66 572.93 741.34 574.49 738.85 574.49V574.51Z" fill="#F2F2F2"/>
<path d="M1007.55 1028.72C996.48 1028.72 984.31 1017.53 970.44 994.65C960.27 977.87 952.92 960.94 952.61 960.23C951.3 957.19 952.69 953.66 955.74 952.34C958.78 951.03 962.31 952.42 963.63 955.46C976.99 986.35 998.12 1018.34 1008.24 1016.65C1010.56 1016.27 1011.36 1015.43 1011.8 1014.74C1015.19 1009.4 1010.59 993.26 1006.54 979.02C1003.78 969.33 1000.93 959.31 999.32 949.56C998.8 946.4 997.22 936.77 1003.86 931.71C1011.84 925.63 1024.72 931.56 1037.16 937.29C1042.02 939.53 1049.29 942.88 1051.72 942.89C1053.91 941.93 1055.24 940.59 1055.79 938.81C1056.81 935.52 1055.33 930.49 1051.74 925C1044.19 913.48 1038.23 904.38 1047.26 893.27C1049.35 890.7 1053.13 890.31 1055.7 892.4C1058.27 894.49 1058.66 898.27 1056.57 900.84C1053.88 904.15 1053.07 905.14 1061.78 918.43C1069.02 929.48 1068.75 937.55 1067.26 942.37C1065.6 947.72 1061.69 951.79 1055.96 954.13C1050.18 956.49 1042.62 953.01 1032.15 948.19C1026.31 945.5 1014.21 939.93 1011.19 941.24C1011.03 941.56 1010.45 943.17 1011.18 947.61C1012.67 956.68 1015.43 966.37 1018.1 975.73C1023.53 994.81 1028.22 1011.29 1021.95 1021.17C1020.21 1023.92 1016.75 1027.42 1010.2 1028.49C1009.33 1028.63 1008.46 1028.7 1007.58 1028.7L1007.55 1028.72Z" fill="#F2F2F2"/>
<path d="M1009.69 483.38C1005.47 483.38 1000.9 483.19 995.96 482.82C976.39 481.35 958.35 477.49 957.59 477.33C954.35 476.63 952.29 473.44 952.99 470.2C953.69 466.96 956.87 464.9 960.12 465.6C993.02 472.67 1031.3 474.06 1035.84 464.85C1036.88 462.74 1036.66 461.6 1036.36 460.85C1033.98 454.99 1018.18 449.35 1004.23 444.38C994.74 441 984.93 437.5 976.06 433.13C973.18 431.71 964.43 427.41 964.17 419.07C963.86 409.04 976.17 402.01 988.07 395.21C992.71 392.56 999.67 388.58 1001.09 386.61C1001.58 384.27 1001.26 382.41 1000.13 380.92C998.05 378.18 993.1 376.46 986.54 376.2C972.78 375.65 961.91 375.22 958.11 361.41C957.23 358.21 959.11 354.91 962.3 354.03C965.49 353.15 968.8 355.03 969.68 358.22C970.81 362.33 971.15 363.57 987.02 364.2C1000.22 364.73 1006.63 369.63 1009.69 373.65C1013.08 378.11 1014.12 383.65 1012.69 389.68C1011.26 395.76 1004.02 399.89 994.02 405.61C988.44 408.8 976.88 415.41 976.18 418.63C976.35 418.94 977.32 420.36 981.35 422.34C989.6 426.4 999.09 429.78 1008.26 433.05C1026.94 439.71 1043.08 445.47 1047.48 456.32C1048.7 459.34 1049.54 464.18 1046.6 470.14C1042.23 479 1030.1 483.36 1009.69 483.36V483.38Z" fill="#F2F2F2"/>
<path d="M352.55 483.38C348.33 483.38 343.76 483.19 338.82 482.82C319.25 481.35 301.21 477.49 300.45 477.33C297.21 476.63 295.15 473.44 295.85 470.2C296.55 466.96 299.74 464.9 302.98 465.6C335.88 472.67 374.16 474.06 378.7 464.85C379.74 462.74 379.52 461.6 379.22 460.85C376.84 454.99 361.04 449.35 347.09 444.38C337.6 441 327.79 437.5 318.92 433.13C316.04 431.71 307.29 427.41 307.03 419.07C306.72 409.04 319.02 402.01 330.93 395.21C335.57 392.56 342.53 388.58 343.95 386.61C344.44 384.27 344.12 382.41 342.99 380.92C340.91 378.18 335.96 376.46 329.4 376.2C315.64 375.65 304.77 375.22 300.97 361.41C300.09 358.21 301.97 354.91 305.16 354.03C308.36 353.15 311.66 355.03 312.54 358.22C313.67 362.33 314.01 363.57 329.88 364.2C343.08 364.73 349.49 369.63 352.55 373.65C355.94 378.11 356.98 383.65 355.55 389.68C354.12 395.76 346.88 399.89 336.88 405.61C331.3 408.8 319.74 415.41 319.04 418.63C319.21 418.94 320.18 420.36 324.22 422.34C332.47 426.4 341.95 429.78 351.13 433.05C369.81 439.71 385.95 445.47 390.35 456.32C391.57 459.34 392.41 464.18 389.47 470.14C385.1 479 372.97 483.36 352.56 483.36L352.55 483.38Z" fill="#F2F2F2"/>
<path d="M221.9 247.75C217.68 247.75 213.11 247.56 208.17 247.19C188.6 245.72 170.56 241.86 169.8 241.7C166.56 241 164.5 237.81 165.2 234.57C165.9 231.33 169.09 229.27 172.33 229.97C205.23 237.04 243.51 238.43 248.05 229.22C249.09 227.11 248.87 225.97 248.57 225.22C246.19 219.36 230.39 213.72 216.44 208.75C206.95 205.37 197.14 201.87 188.27 197.51C185.39 196.09 176.64 191.79 176.38 183.45C176.07 173.42 188.37 166.39 200.28 159.59C204.92 156.94 211.88 152.96 213.3 150.99C213.79 148.65 213.47 146.79 212.35 145.3C210.27 142.56 205.32 140.84 198.76 140.58C185 140.03 174.13 139.6 170.33 125.79C169.45 122.6 171.33 119.29 174.52 118.41C177.71 117.53 181.02 119.41 181.9 122.6C183.03 126.71 183.37 127.95 199.24 128.58C212.44 129.11 218.85 134.01 221.91 138.04C225.3 142.5 226.34 148.04 224.91 154.07C223.48 160.15 216.24 164.28 206.24 170C200.66 173.19 189.09 179.8 188.4 183.02C188.57 183.33 189.54 184.74 193.58 186.73C201.83 190.79 211.31 194.17 220.49 197.44C239.17 204.1 255.31 209.86 259.71 220.71C260.93 223.73 261.77 228.57 258.84 234.53C254.47 243.39 242.34 247.75 221.93 247.75H221.9Z" fill="#F2F2F2"/>
<path d="M884.92 247.75C880.7 247.75 876.13 247.56 871.19 247.19C851.62 245.72 833.58 241.86 832.82 241.7C829.58 241 827.52 237.81 828.22 234.57C828.92 231.33 832.1 229.27 835.35 229.97C868.25 237.04 906.53 238.43 911.07 229.22C912.11 227.11 911.89 225.97 911.59 225.22C909.21 219.36 893.41 213.72 879.46 208.75C869.97 205.37 860.16 201.87 851.29 197.51C848.41 196.09 839.66 191.79 839.4 183.45C839.09 173.42 851.39 166.39 863.29 159.59C867.93 156.94 874.89 152.96 876.31 150.99C876.8 148.65 876.48 146.79 875.36 145.3C873.28 142.56 868.32 140.84 861.77 140.58C848.01 140.03 837.14 139.6 833.34 125.79C832.46 122.59 834.34 119.29 837.53 118.41C840.72 117.53 844.03 119.41 844.91 122.6C846.04 126.71 846.38 127.95 862.25 128.58C875.45 129.11 881.86 134.01 884.92 138.04C888.31 142.5 889.35 148.04 887.92 154.07C886.49 160.15 879.25 164.28 869.25 170C863.67 173.19 852.1 179.8 851.41 183.02C851.58 183.33 852.55 184.74 856.58 186.73C864.83 190.79 874.31 194.17 883.49 197.44C902.17 204.1 918.31 209.86 922.71 220.71C923.93 223.73 924.77 228.57 921.83 234.53C917.46 243.39 905.33 247.75 884.92 247.75Z" fill="#F2F2F2"/>
<path d="M346.01 147.1C334.94 147.1 322.77 135.91 308.9 113.03C298.73 96.25 291.38 79.33 291.07 78.61C289.76 75.57 291.15 72.04 294.2 70.72C297.24 69.4 300.77 70.8 302.09 73.85C315.45 104.74 336.56 136.68 346.7 135.04C349.02 134.66 349.82 133.82 350.26 133.13C353.65 127.79 349.05 111.65 345 97.41C342.24 87.72 339.39 77.7 337.78 67.95C337.26 64.79 335.68 55.16 342.32 50.1C350.3 44.02 363.18 49.95 375.62 55.68C380.48 57.92 387.75 61.27 390.18 61.28C392.37 60.32 393.7 58.98 394.25 57.2C395.27 53.92 393.79 48.88 390.2 43.39C382.65 31.87 376.69 22.77 385.72 11.66C387.81 9.09003 391.59 8.70003 394.16 10.79C396.73 12.88 397.12 16.66 395.03 19.23C392.34 22.54 391.53 23.53 400.24 36.82C407.48 47.87 407.21 55.94 405.72 60.76C404.06 66.11 400.15 70.18 394.41 72.52C388.63 74.89 381.07 71.4 370.6 66.58C364.76 63.89 352.66 58.32 349.64 59.63C349.49 59.95 348.9 61.56 349.63 66C351.12 75.07 353.88 84.76 356.55 94.12C361.98 113.2 366.67 129.68 360.4 139.56C358.66 142.31 355.2 145.81 348.65 146.88C347.78 147.02 346.91 147.09 346.03 147.09L346.01 147.1Z" fill="#F2F2F2"/>
<path d="M1008.62 147.1C997.55 147.1 985.38 135.91 971.51 113.03C961.34 96.25 953.99 79.33 953.68 78.61C952.37 75.57 953.76 72.04 956.81 70.72C959.85 69.41 963.38 70.8 964.7 73.85C978.06 104.74 999.18 136.68 1009.31 135.04C1011.63 134.66 1012.43 133.82 1012.87 133.13C1016.26 127.79 1011.66 111.65 1007.61 97.41C1004.85 87.72 1002 77.7 1000.39 67.95C999.87 64.79 998.29 55.16 1004.93 50.1C1012.91 44.02 1025.79 49.95 1038.23 55.68C1043.09 57.92 1050.36 61.27 1052.79 61.28C1054.98 60.32 1056.31 58.98 1056.86 57.2C1057.88 53.92 1056.4 48.88 1052.81 43.39C1045.26 31.87 1039.3 22.77 1048.33 11.66C1050.42 9.09003 1054.2 8.70003 1056.77 10.79C1059.34 12.88 1059.73 16.66 1057.64 19.23C1054.95 22.54 1054.14 23.53 1062.85 36.82C1070.09 47.87 1069.82 55.94 1068.33 60.76C1066.67 66.11 1062.76 70.18 1057.02 72.52C1051.24 74.88 1043.68 71.4 1033.21 66.58C1027.37 63.89 1015.27 58.32 1012.25 59.63C1012.09 59.95 1011.51 61.56 1012.24 66C1013.73 75.07 1016.49 84.76 1019.16 94.12C1024.59 113.2 1029.29 129.68 1023.01 139.56C1021.27 142.31 1017.81 145.81 1011.26 146.88C1010.39 147.02 1009.52 147.09 1008.64 147.09L1008.62 147.1Z" fill="#F2F2F2"/>
<path d="M277.24 836.81C277.13 836.81 277.02 836.81 276.91 836.81C227.85 834.16 175.7 818.07 173.51 817.39C170.35 816.41 168.58 813.04 169.56 809.88C170.54 806.72 173.91 804.95 177.07 805.93C177.59 806.09 230.02 822.25 277.56 824.82C280.87 825 283.41 827.83 283.23 831.14C283.06 834.34 280.41 836.82 277.24 836.82V836.81Z" fill="#F2F2F2"/>
<path d="M255.93 871.82C255.59 871.82 255.25 871.79 254.9 871.73C231.85 867.74 195.68 856.17 194.15 855.68C190.99 854.67 189.26 851.29 190.27 848.13C191.28 844.98 194.66 843.24 197.82 844.25C198.19 844.37 234.73 856.06 256.94 859.9C260.21 860.47 262.39 863.57 261.83 866.84C261.32 869.76 258.79 871.82 255.93 871.82Z" fill="#F2F2F2"/>
<path d="M235.63 898.24C235.41 898.24 235.19 898.23 234.96 898.2C234.09 898.1 213.59 895.74 198.72 886.29C195.92 884.51 195.1 880.81 196.87 878.01C198.65 875.21 202.35 874.39 205.15 876.16C217.64 884.09 236.1 886.25 236.29 886.27C239.58 886.64 241.95 889.61 241.58 892.9C241.24 895.97 238.64 898.23 235.63 898.23V898.24Z" fill="#F2F2F2"/>
<path d="M943.53 836.81C943.42 836.81 943.31 836.81 943.2 836.81C894.14 834.16 841.99 818.07 839.8 817.39C836.64 816.41 834.87 813.04 835.85 809.88C836.83 806.72 840.2 804.95 843.36 805.93C843.88 806.09 896.31 822.25 943.85 824.82C947.16 825 949.7 827.83 949.52 831.14C949.35 834.34 946.7 836.82 943.53 836.82V836.81Z" fill="#F2F2F2"/>
<path d="M922.22 871.82C921.88 871.82 921.54 871.79 921.19 871.73C898.14 867.74 861.97 856.17 860.44 855.68C857.28 854.67 855.55 851.29 856.56 848.13C857.57 844.98 860.95 843.24 864.11 844.25C864.48 844.37 901.02 856.06 923.23 859.9C926.49 860.47 928.68 863.57 928.12 866.84C927.62 869.76 925.08 871.82 922.21 871.82H922.22Z" fill="#F2F2F2"/>
<path d="M901.92 898.24C901.7 898.24 901.47 898.23 901.25 898.2C900.38 898.1 879.88 895.74 865.01 886.29C862.21 884.51 861.38 880.81 863.16 878.01C864.94 875.21 868.64 874.38 871.44 876.16C883.99 884.13 902.39 886.25 902.57 886.27C905.86 886.64 908.24 889.6 907.87 892.89C907.53 895.96 904.93 898.23 901.91 898.23L901.92 898.24Z" fill="#F2F2F2"/>
<path d="M1205.76 659.06C1205.65 659.06 1205.54 659.06 1205.43 659.06C1156.37 656.41 1104.22 640.32 1102.03 639.64C1098.87 638.66 1097.1 635.29 1098.08 632.13C1099.06 628.97 1102.43 627.2 1105.59 628.18C1106.11 628.34 1158.54 644.5 1206.08 647.07C1209.39 647.25 1211.93 650.08 1211.75 653.39C1211.58 656.59 1208.93 659.07 1205.76 659.07V659.06Z" fill="#F2F2F2"/>
<path d="M1184.45 694.07C1184.11 694.07 1183.77 694.04 1183.42 693.98C1160.37 689.99 1124.2 678.42 1122.67 677.93C1119.51 676.92 1117.78 673.54 1118.79 670.38C1119.8 667.23 1123.18 665.49 1126.34 666.5C1126.71 666.62 1163.25 678.31 1185.46 682.15C1188.72 682.72 1190.91 685.82 1190.35 689.09C1189.85 692.01 1187.31 694.07 1184.44 694.07H1184.45Z" fill="#F2F2F2"/>
<path d="M1164.15 720.49C1163.93 720.49 1163.7 720.48 1163.48 720.45C1162.61 720.35 1142.11 717.99 1127.24 708.54C1124.44 706.76 1123.61 703.06 1125.39 700.26C1127.17 697.46 1130.87 696.64 1133.67 698.41C1146.22 706.38 1164.62 708.5 1164.8 708.52C1168.09 708.89 1170.47 711.85 1170.1 715.14C1169.76 718.21 1167.16 720.48 1164.14 720.48L1164.15 720.49Z" fill="#F2F2F2"/>
<path d="M536.7 653.55C536.59 653.55 536.48 653.55 536.37 653.55C487.31 650.9 435.16 634.81 432.97 634.13C429.81 633.15 428.04 629.78 429.02 626.62C430 623.46 433.37 621.69 436.53 622.67C437.05 622.83 489.48 638.99 537.02 641.56C540.33 641.74 542.87 644.57 542.69 647.88C542.52 651.08 539.87 653.56 536.7 653.56V653.55Z" fill="#F2F2F2"/>
<path d="M515.39 688.56C515.05 688.56 514.71 688.53 514.36 688.47C491.31 684.48 455.14 672.91 453.61 672.42C450.45 671.41 448.72 668.03 449.73 664.87C450.74 661.72 454.12 659.98 457.28 660.99C457.65 661.11 494.19 672.8 516.4 676.64C519.67 677.21 521.85 680.31 521.29 683.58C520.79 686.5 518.25 688.56 515.39 688.56Z" fill="#F2F2F2"/>
<path d="M495.09 714.99C494.87 714.99 494.65 714.98 494.42 714.95C493.55 714.85 473.05 712.49 458.18 703.04C455.38 701.26 454.56 697.56 456.33 694.76C458.11 691.96 461.81 691.14 464.61 692.91C477.16 700.88 495.56 703 495.74 703.02C499.03 703.39 501.41 706.35 501.04 709.64C500.7 712.71 498.1 714.98 495.08 714.98L495.09 714.99Z" fill="#F2F2F2"/>
<path d="M136.8 382.56C135.03 382.56 133.29 381.78 132.1 380.3C131.76 379.87 97.49 337.03 59.63 308.18C56.99 306.17 56.49 302.41 58.49 299.77C60.49 297.13 64.26 296.63 66.9 298.63C105.98 328.41 140.06 371.03 141.49 372.83C143.55 375.42 143.12 379.2 140.53 381.26C139.43 382.14 138.11 382.57 136.8 382.57V382.56Z" fill="#F2F2F2"/>
<path d="M141.23 339.24C139.45 339.24 137.68 338.45 136.5 336.93C136.26 336.63 112.62 306.41 96.41 290.74C94.03 288.44 93.9599 284.64 96.2699 282.26C98.5699 279.88 102.37 279.81 104.75 282.12C121.57 298.38 144.97 328.29 145.96 329.55C148 332.16 147.54 335.93 144.92 337.97C143.82 338.83 142.52 339.24 141.23 339.24Z" fill="#F2F2F2"/>
<path d="M153.89 310.05C151.57 310.05 149.36 308.7 148.38 306.43C142.51 292.85 128.46 280.68 128.32 280.56C125.81 278.4 125.52 274.62 127.67 272.1C129.83 269.59 133.61 269.29 136.12 271.44C136.78 272.01 152.4 285.49 159.39 301.66C160.7 304.7 159.3 308.23 156.26 309.55C155.48 309.88 154.68 310.04 153.88 310.04L153.89 310.05Z" fill="#F2F2F2"/>
<path d="M803.19 385.96C801.42 385.96 799.68 385.18 798.49 383.7C798.15 383.27 763.88 340.43 726.02 311.58C723.38 309.57 722.88 305.81 724.88 303.17C726.89 300.53 730.65 300.03 733.29 302.03C772.37 331.81 806.45 374.43 807.88 376.23C809.94 378.82 809.51 382.6 806.92 384.66C805.82 385.54 804.5 385.97 803.19 385.97V385.96Z" fill="#F2F2F2"/>
<path d="M807.62 342.64C805.84 342.64 804.07 341.85 802.89 340.33C802.65 340.03 779.01 309.81 762.8 294.14C760.42 291.84 760.35 288.04 762.66 285.66C764.96 283.28 768.76 283.21 771.14 285.52C787.96 301.78 811.36 331.69 812.35 332.95C814.39 335.56 813.93 339.33 811.31 341.37C810.21 342.23 808.91 342.64 807.62 342.64Z" fill="#F2F2F2"/>
<path d="M820.28 313.44C817.96 313.44 815.75 312.09 814.77 309.82C808.9 296.24 794.85 284.07 794.71 283.95C792.2 281.79 791.91 278.01 794.06 275.49C796.22 272.98 800 272.68 802.52 274.83C803.18 275.4 818.81 288.88 825.79 305.05C827.1 308.09 825.7 311.62 822.66 312.94C821.88 313.27 821.08 313.43 820.28 313.43V313.44Z" fill="#F2F2F2"/>
<path d="M444.13 235.05C443.46 235.05 442.77 234.94 442.1 234.69C438.98 233.57 437.36 230.13 438.49 227.01C455.13 180.78 485.51 135.45 486.8 133.55C488.65 130.8 492.38 130.08 495.13 131.93C497.88 133.78 498.6 137.51 496.75 140.26C496.44 140.72 465.9 186.29 449.78 231.08C448.9 233.53 446.59 235.05 444.13 235.05Z" fill="#F2F2F2"/>
<path d="M416.72 204.57C415.82 204.57 414.91 204.37 414.05 203.94C411.08 202.46 409.88 198.86 411.36 195.89C421.8 174.96 443.28 143.64 444.19 142.32C446.07 139.59 449.8 138.9 452.53 140.77C455.26 142.65 455.95 146.38 454.08 149.11C453.86 149.43 432.16 181.07 422.1 201.24C421.05 203.34 418.93 204.56 416.73 204.56L416.72 204.57Z" fill="#F2F2F2"/>
<path d="M397.25 177.53C396.47 177.53 395.67 177.38 394.9 177.05C391.85 175.75 390.43 172.23 391.73 169.18C392.07 168.38 400.23 149.42 413.55 137.89C416.05 135.72 419.84 135.99 422.01 138.5C424.18 141 423.91 144.79 421.4 146.96C410.16 156.69 402.84 173.71 402.77 173.88C401.8 176.16 399.58 177.53 397.25 177.53Z" fill="#F2F2F2"/>
<path d="M1103.44 235.05C1102.77 235.05 1102.08 234.94 1101.41 234.69C1098.29 233.57 1096.67 230.13 1097.8 227.01C1114.44 180.78 1144.82 135.45 1146.11 133.55C1147.96 130.8 1151.69 130.08 1154.44 131.93C1157.19 133.78 1157.91 137.51 1156.06 140.26C1155.75 140.71 1125.21 186.29 1109.09 231.08C1108.21 233.53 1105.9 235.05 1103.44 235.05Z" fill="#F2F2F2"/>
<path d="M1076.02 204.57C1075.12 204.57 1074.21 204.37 1073.35 203.94C1070.39 202.46 1069.18 198.86 1070.66 195.89C1081.1 174.96 1102.58 143.64 1103.49 142.32C1105.37 139.59 1109.1 138.9 1111.83 140.77C1114.56 142.65 1115.25 146.38 1113.38 149.11C1113.16 149.43 1091.46 181.07 1081.4 201.24C1080.35 203.34 1078.23 204.56 1076.03 204.56L1076.02 204.57Z" fill="#F2F2F2"/>
<path d="M1056.55 177.53C1055.76 177.53 1054.97 177.38 1054.2 177.05C1051.15 175.75 1049.73 172.23 1051.03 169.18C1051.37 168.38 1059.53 149.42 1072.85 137.89C1075.35 135.72 1079.14 135.99 1081.31 138.5C1083.48 141 1083.21 144.79 1080.7 146.96C1069.51 156.65 1062.14 173.71 1062.07 173.88C1061.1 176.16 1058.88 177.53 1056.55 177.53Z" fill="#F2F2F2"/>
<path d="M13.6801 898.24C-8.56993 898.24 -26.6699 880.14 -26.6699 857.89C-26.6699 835.64 -8.56993 817.54 13.6801 817.54C35.9301 817.54 54.0301 835.64 54.0301 857.89C54.0301 880.14 35.9301 898.24 13.6801 898.24ZM13.6801 829.54C-1.94993 829.54 -14.6699 842.26 -14.6699 857.89C-14.6699 873.52 -1.94993 886.24 13.6801 886.24C29.3101 886.24 42.0301 873.52 42.0301 857.89C42.0301 842.26 29.3101 829.54 13.6801 829.54Z" fill="#F2F2F2"/>
<path d="M5.74994 686.2C-18.6801 686.2 -38.5601 666.32 -38.5601 641.89C-38.5601 617.46 -18.6801 597.58 5.74994 597.58C30.1799 597.58 50.0599 617.46 50.0599 641.89C50.0599 666.32 30.1799 686.2 5.74994 686.2ZM5.74994 609.58C-12.0701 609.58 -26.5601 624.08 -26.5601 641.89C-26.5601 659.7 -12.0601 674.2 5.74994 674.2C23.5599 674.2 38.0599 659.7 38.0599 641.89C38.0599 624.08 23.5599 609.58 5.74994 609.58Z" fill="#F2F2F2"/>
<path d="M201.94 515.78C175.32 515.78 153.67 494.12 153.67 467.5C153.67 440.88 175.33 419.23 201.94 419.23C228.55 419.23 250.22 440.89 250.22 467.5C250.22 494.11 228.56 515.78 201.94 515.78ZM201.94 431.23C181.94 431.23 165.67 447.5 165.67 467.5C165.67 487.5 181.94 503.78 201.94 503.78C221.94 503.78 238.22 487.51 238.22 467.5C238.22 447.49 221.95 431.23 201.94 431.23Z" fill="#F2F2F2"/>
<path d="M538.16 794.53C520.28 794.53 505.74 779.99 505.74 762.11C505.74 744.23 520.28 729.69 538.16 729.69C556.04 729.69 570.58 744.23 570.58 762.11C570.58 779.99 556.04 794.53 538.16 794.53ZM538.16 741.69C526.9 741.69 517.74 750.85 517.74 762.11C517.74 773.37 526.9 782.53 538.16 782.53C549.42 782.53 558.58 773.37 558.58 762.11C558.58 750.85 549.42 741.69 538.16 741.69Z" fill="#F2F2F2"/>
<path d="M672.25 892.64C654.19 892.64 639.5 877.95 639.5 859.89C639.5 841.83 654.19 827.14 672.25 827.14C690.31 827.14 705 841.83 705 859.89C705 877.95 690.31 892.64 672.25 892.64ZM672.25 839.14C660.81 839.14 651.5 848.45 651.5 859.89C651.5 871.33 660.81 880.64 672.25 880.64C683.69 880.64 693 871.33 693 859.89C693 848.45 683.69 839.14 672.25 839.14Z" fill="#F2F2F2"/>
<path d="M865.46 523.38C837.02 523.38 813.88 500.24 813.88 471.8C813.88 443.36 837.02 420.22 865.46 420.22C893.9 420.22 917.04 443.36 917.04 471.8C917.04 500.24 893.9 523.38 865.46 523.38ZM865.46 432.22C843.64 432.22 825.88 449.97 825.88 471.8C825.88 493.63 843.63 511.38 865.46 511.38C887.29 511.38 905.04 493.63 905.04 471.8C905.04 449.97 887.29 432.22 865.46 432.22Z" fill="#F2F2F2"/>
<path d="M1010.12 907.82C993.15 907.82 979.35 894.02 979.35 877.05C979.35 860.08 993.15 846.28 1010.12 846.28C1027.09 846.28 1040.89 860.08 1040.89 877.05C1040.89 894.02 1027.09 907.82 1010.12 907.82ZM1010.12 858.28C999.77 858.28 991.35 866.7 991.35 877.05C991.35 887.4 999.77 895.82 1010.12 895.82C1020.47 895.82 1028.89 887.4 1028.89 877.05C1028.89 866.7 1020.47 858.28 1010.12 858.28Z" fill="#F2F2F2"/>
<path d="M1201.35 794.53C1183.47 794.53 1168.93 779.99 1168.93 762.11C1168.93 744.23 1183.47 729.69 1201.35 729.69C1219.23 729.69 1233.77 744.23 1233.77 762.11C1233.77 779.99 1219.23 794.53 1201.35 794.53ZM1201.35 741.69C1190.09 741.69 1180.93 750.85 1180.93 762.11C1180.93 773.37 1190.09 782.53 1201.35 782.53C1212.61 782.53 1221.77 773.37 1221.77 762.11C1221.77 750.85 1212.61 741.69 1201.35 741.69Z" fill="#F2F2F2"/>
<path d="M972.47 229.6C957.96 229.6 946.16 217.8 946.16 203.29C946.16 188.78 957.96 176.98 972.47 176.98C986.98 176.98 998.78 188.78 998.78 203.29C998.78 217.8 986.98 229.6 972.47 229.6ZM972.47 188.98C964.58 188.98 958.16 195.4 958.16 203.29C958.16 211.18 964.58 217.6 972.47 217.6C980.36 217.6 986.78 211.18 986.78 203.29C986.78 195.4 980.36 188.98 972.47 188.98Z" fill="#F2F2F2"/>
<path d="M735.66 252.9C712.14 252.9 693 233.76 693 210.24C693 186.72 712.14 167.58 735.66 167.58C759.18 167.58 778.32 186.72 778.32 210.24C778.32 233.76 759.18 252.9 735.66 252.9ZM735.66 179.58C718.75 179.58 705 193.33 705 210.24C705 227.15 718.75 240.9 735.66 240.9C752.57 240.9 766.32 227.15 766.32 210.24C766.32 193.33 752.57 179.58 735.66 179.58Z" fill="#F2F2F2"/>
<path d="M313.57 233.06C297.15 233.06 283.79 219.7 283.79 203.28C283.79 186.86 297.15 173.5 313.57 173.5C329.99 173.5 343.35 186.86 343.35 203.28C343.35 219.7 329.99 233.06 313.57 233.06ZM313.57 185.5C303.77 185.5 295.79 193.48 295.79 203.28C295.79 213.08 303.77 221.06 313.57 221.06C323.37 221.06 331.35 213.08 331.35 203.28C331.35 193.48 323.37 185.5 313.57 185.5Z" fill="#F2F2F2"/>
<path d="M82.71 252.9C59.19 252.9 40.05 233.76 40.05 210.24C40.05 186.72 59.19 167.58 82.71 167.58C106.23 167.58 125.37 186.72 125.37 210.24C125.37 233.76 106.23 252.9 82.71 252.9ZM82.71 179.58C65.8 179.58 52.05 193.33 52.05 210.24C52.05 227.15 65.8 240.9 82.71 240.9C99.62 240.9 113.37 227.15 113.37 210.24C113.37 193.33 99.62 179.58 82.71 179.58Z" fill="#F2F2F2"/>
<path d="M347.51 902.61C330.68 902.61 316.99 888.92 316.99 872.09C316.99 855.26 330.68 841.57 347.51 841.57C364.34 841.57 378.03 855.26 378.03 872.09C378.03 888.92 364.34 902.61 347.51 902.61ZM347.51 853.57C337.3 853.57 328.99 861.88 328.99 872.09C328.99 882.3 337.3 890.61 347.51 890.61C357.72 890.61 366.03 882.3 366.03 872.09C366.03 861.88 357.72 853.57 347.51 853.57Z" fill="#F2F2F2"/>
<path d="M665.31 681.58C643.43 681.58 625.62 663.78 625.62 641.89C625.62 620 643.42 602.2 665.31 602.2C687.2 602.2 705 620 705 641.89C705 663.78 687.2 681.58 665.31 681.58ZM665.31 614.2C650.04 614.2 637.62 626.62 637.62 641.89C637.62 657.16 650.04 669.58 665.31 669.58C680.58 669.58 693 657.16 693 641.89C693 626.62 680.58 614.2 665.31 614.2Z" fill="#F2F2F2"/>
<path d="M179.5 101.28C177.58 101.28 175.69 100.36 174.53 98.65C172.67 95.91 173.39 92.18 176.13 90.32C176.58 90.01 221.92 59.12 253.58 23.56C255.78 21.09 259.58 20.87 262.05 23.07C264.52 25.27 264.74 29.07 262.54 31.54C229.86 68.23 184.77 98.96 182.86 100.25C181.83 100.95 180.66 101.28 179.5 101.28Z" fill="#F2F2F2"/>
<path d="M845.22 101.28C843.3 101.28 841.41 100.36 840.25 98.65C838.39 95.91 839.11 92.18 841.85 90.32C842.3 90.01 887.64 59.12 919.3 23.56C921.5 21.09 925.3 20.87 927.77 23.07C930.24 25.27 930.46 29.07 928.26 31.54C895.58 68.23 850.49 98.96 848.58 100.25C847.55 100.95 846.38 101.28 845.22 101.28Z" fill="#F2F2F2"/>
</svg>
