<svg width="20" height="21" viewBox="0 0 20 21" fill="none" xmlns="http://www.w3.org/2000/svg">
<path fill-rule="evenodd" clip-rule="evenodd" d="M13.9396 16.38C13.9396 16.38 13.4295 15.778 13.0043 15.246C14.8608 14.728 15.5694 13.58 15.5694 13.58C14.9883 13.958 14.4356 14.224 13.9396 14.406C13.2311 14.7 12.5508 14.896 11.8848 15.008C10.5243 15.26 9.27725 15.19 8.21439 14.994C7.40662 14.84 6.71222 14.616 6.13119 14.392C5.80525 14.266 5.45096 14.112 5.09668 13.916C5.07542 13.902 5.05416 13.8915 5.03291 13.881C5.01165 13.8705 4.99039 13.86 4.96913 13.846C4.94079 13.832 4.92662 13.818 4.91245 13.804C4.65736 13.664 4.51565 13.566 4.51565 13.566C4.51565 13.566 5.19588 14.686 6.99565 15.218C6.57051 15.75 6.04616 16.38 6.04616 16.38C2.91428 16.282 1.72388 14.252 1.72388 14.252C1.72388 9.74399 3.76456 6.08999 3.76456 6.08999C5.80525 4.57799 7.74673 4.61999 7.74673 4.61999L7.88845 4.78799C5.33759 5.51599 4.16136 6.62199 4.16136 6.62199C4.16136 6.62199 4.47313 6.45399 4.99748 6.21599C6.51382 5.55799 7.71839 5.37599 8.21439 5.33399L8.24616 5.32868C8.31765 5.31666 8.38108 5.30599 8.45531 5.30599C9.31976 5.19399 10.2976 5.16599 11.3179 5.27799C12.6642 5.43199 14.1097 5.82399 15.5835 6.62199C15.5835 6.62199 14.464 5.57199 12.0548 4.84399L12.2532 4.61999C12.2532 4.61999 14.1947 4.57799 16.2354 6.08999C16.2354 6.08999 18.2761 9.74399 18.2761 14.252C18.2761 14.252 17.0715 16.282 13.9396 16.38ZM7.74906 10.096C6.94765 10.096 6.31496 10.8167 6.31496 11.696C6.31496 12.5753 6.96171 13.296 7.74906 13.296C8.55046 13.296 9.18315 12.5753 9.18315 11.696C9.19721 10.8167 8.55046 10.096 7.74906 10.096ZM11.4468 11.696C11.4468 10.8167 12.0795 10.096 12.8809 10.096C13.6823 10.096 14.315 10.8167 14.315 11.696C14.315 12.5753 13.6823 13.296 12.8809 13.296C12.0935 13.296 11.4468 12.5753 11.4468 11.696Z" fill="white"/>
</svg>
