<svg width="27" height="38" viewBox="0 0 27 38" fill="none" xmlns="http://www.w3.org/2000/svg">
<g clip-path="url(#clip0_28_322)">
<path d="M14.1682 15.5108V18.0326C11.973 18.0326 9.81358 18.0326 7.65418 18.0326C5.96102 18.0326 5.87042 18.1119 5.48913 19.8126C4.57554 23.886 3.65629 27.9594 2.74459 32.0328C2.66908 32.3688 2.59924 32.7123 2.58225 33.0559C2.51241 34.4225 3.0164 34.9378 4.36791 34.9378C10.4667 34.9378 16.5673 34.9416 22.6661 34.9453C24.2441 34.9453 24.8066 34.3545 24.5499 32.7331C24.3253 31.3098 23.944 29.9111 23.6326 28.5011C22.9813 25.5584 22.3358 22.6157 21.6751 19.6748C21.3297 18.1326 21.19 18.0326 19.5818 18.0307C19.2062 18.0307 18.8324 18.0307 18.3775 18.0307V15.5788C19.393 15.5788 20.418 15.4277 21.3769 15.6127C22.9077 15.9091 23.6439 17.1209 23.978 18.5385C24.6424 21.3491 25.2464 24.1729 25.8788 26.9911C26.228 28.554 26.6867 30.0999 26.9018 31.6798C27.0491 32.7671 27.0491 33.9487 26.7773 35.002C26.3412 36.6876 25.0803 37.4766 23.3287 37.4785C16.9769 37.4841 10.6271 37.4822 4.27541 37.4785C1.3742 37.4785 -0.479402 35.3398 0.111411 32.4594C1.07974 27.7555 2.15566 23.0743 3.24668 18.3969C3.70914 16.4131 4.97004 15.5108 6.97654 15.5089C9.35678 15.5051 11.737 15.5089 14.1701 15.5089L14.1682 15.5108Z" fill="white"/>
<path d="M14.8137 15.6995C14.8137 14.6312 14.7817 13.5628 14.8251 12.4963C14.8515 11.8527 14.6741 11.5129 14.0342 11.2354C11.7559 10.2463 10.5252 7.96235 10.7856 5.41034C11.0159 3.16223 12.8091 1.14441 15.0176 0.651749C17.7942 0.0326223 20.535 1.56156 21.4656 4.25137C22.4018 6.95627 21.207 10.0009 18.621 11.1618C17.8509 11.5072 17.7206 11.9149 17.7338 12.6398C17.7697 14.7123 17.7489 16.7849 17.7452 18.8575C17.7452 19.1387 17.7659 19.4313 17.7017 19.7012C17.5224 20.46 17.1392 21.0659 16.2559 21.0452C15.3838 21.0244 14.9421 20.4374 14.8723 19.6521C14.7854 18.6857 14.827 17.7079 14.8137 16.7358C14.81 16.3904 14.8137 16.045 14.8137 15.6995Z" fill="white"/>
<path d="M12.3033 26.2643H13.9341V18.8877C13.9757 18.8877 14.0172 18.8914 14.0587 18.8933C14.2343 19.6427 14.1795 20.6469 14.6476 21.0716C15.1441 21.5208 16.1464 21.5624 16.9165 21.5303C18.738 21.4529 18.1548 19.924 18.4039 18.5724C18.5795 19.0141 18.7003 19.1954 18.721 19.3879C19.1061 22.7912 19.4647 26.1964 19.863 29.5978C19.948 30.3189 19.7063 30.5397 19.0004 30.5303C16.8033 30.4982 14.6042 30.5189 12.2674 30.5189C12.2674 31.4552 12.2504 32.2593 12.2731 33.0615C12.29 33.6504 12.0767 33.9204 11.452 33.9109C9.8494 33.8845 8.24496 33.877 6.6424 33.9128C5.93078 33.9279 5.78167 33.624 5.86849 32.9955C6.263 30.1641 6.62164 27.3289 7.04635 24.5032C7.08221 24.2635 7.50691 23.9143 7.76551 23.9011C9.02075 23.8388 10.2798 23.8898 11.5369 23.8652C12.1032 23.8539 12.341 24.0672 12.3089 24.641C12.2787 25.1658 12.3033 25.6943 12.3033 26.2643Z" fill="white"/>
</g>
<defs>
<clipPath id="clip0_28_322">
<rect width="27" height="36.9683" fill="white" transform="translate(0 0.515869)"/>
</clipPath>
</defs>
</svg>
