<svg width="20" height="21" viewBox="0 0 20 21" fill="#622B86" xmlns="http://www.w3.org/2000/svg">
<path fill-rule="evenodd" clip-rule="evenodd" d="M9.17956 3.0057C9.33887 3.00546 9.51025 3.00553 9.69519 3.00562L10 3.0057C12.4419 3.0057 12.7313 3.01447 13.6956 3.05829C14.5873 3.09907 15.0713 3.24807 15.3937 3.37325C15.8205 3.53901 16.1248 3.73717 16.4447 4.05727C16.7648 4.37737 16.9629 4.68223 17.1291 5.10902C17.2543 5.43103 17.4035 5.91499 17.444 6.80669C17.4879 7.7708 17.4974 8.06042 17.4974 10.5012C17.4974 12.9419 17.4879 13.2315 17.444 14.1957C17.4033 15.0874 17.2543 15.5713 17.1291 15.8933C16.9633 16.3201 16.7648 16.624 16.4447 16.9439C16.1246 17.264 15.8207 17.4622 15.3937 17.628C15.0717 17.7537 14.5873 17.9023 13.6956 17.9431C12.7315 17.9869 12.4419 17.9965 10 17.9965C7.55792 17.9965 7.26849 17.9869 6.30438 17.9431C5.41268 17.902 4.92872 17.753 4.60614 17.6278C4.17934 17.462 3.87449 17.2638 3.55439 16.9437C3.23429 16.6236 3.03613 16.3196 2.86998 15.8926C2.7448 15.5706 2.59561 15.0866 2.55503 14.1949C2.51121 13.2308 2.50244 12.9412 2.50244 10.4989C2.50244 8.05661 2.51121 7.76852 2.55503 6.80441C2.5958 5.9127 2.7448 5.42874 2.86998 5.10636C3.03575 4.67956 3.23429 4.3747 3.55439 4.0546C3.87449 3.7345 4.17934 3.53635 4.60614 3.3702C4.92853 3.24445 5.41268 3.09583 6.30438 3.05486C7.14808 3.01676 7.47503 3.00532 9.17956 3.00342V3.0057ZM14.8819 4.52427C14.276 4.52427 13.7844 5.01528 13.7844 5.62138C13.7844 6.22728 14.276 6.71886 14.8819 6.71886C15.4878 6.71886 15.9794 6.22728 15.9794 5.62138C15.9794 5.01547 15.4878 4.52389 14.8819 4.52389V4.52427ZM5.30321 10.5033C5.30321 7.90952 7.40615 5.80658 9.99991 5.80658H9.99972C12.5935 5.80658 14.6958 7.90952 14.6958 10.5033C14.6958 13.097 12.5937 15.199 9.99991 15.199C7.40615 15.199 5.30321 13.097 5.30321 10.5033Z" fill="#622B86"/>
<path d="M10.0002 7.59741C11.6046 7.59741 12.9054 8.89822 12.9054 10.503C12.9054 12.1077 11.6046 13.4086 10.0002 13.4086C8.39555 13.4086 7.09491 12.1077 7.09491 10.503C7.09491 8.89822 8.39555 7.59741 10.0002 7.59741Z" fill="#622B86"/>
</svg>
