<svg width="46" height="35" viewBox="0 0 46 35" fill="none" xmlns="http://www.w3.org/2000/svg">
<path d="M21.1865 34.6156L21.1486 34.5966C19.8967 33.6862 12.1391 20.6366 6.27818 10.6978H21.1865V34.6156Z" fill="white"/>
<path d="M39.4521 10.6978C33.6101 20.6366 25.8335 33.6672 24.5817 34.5966L24.5437 34.6156V10.6978H39.4521Z" fill="#622B86"/>
<path d="M0 0H18.8346C20.2381 2.21918 21.6228 4.02107 21.6228 4.02107C21.6228 4.02107 22.8746 5.72813 22.8746 5.76607L24.1264 4.02107C24.1264 4.02107 25.53 2.21918 26.9146 0H45.7492C45.0664 1.13804 43.4731 3.86934 41.4247 7.34036H4.32455C2.27608 3.86934 0.682824 1.13804 0 0Z" fill="white"/>
</svg>
