<svg width="20" height="21" viewBox="0 0 20 21" fill="none" xmlns="http://www.w3.org/2000/svg">
<path d="M9.76891 7.69219L9.8036 8.21122L9.22555 8.14767C7.12147 7.90404 5.28329 7.07782 3.72257 5.6902L2.95955 5.00169L2.76302 5.51013C2.34683 6.64353 2.61273 7.84048 3.47979 8.64552C3.94223 9.0904 3.83818 9.15396 3.04048 8.88914C2.76302 8.8044 2.52024 8.74085 2.49712 8.77263C2.41619 8.84677 2.69365 9.81069 2.91331 10.192C3.21389 10.7217 3.82662 11.2407 4.49715 11.5479L5.06363 11.7915L4.3931 11.8021C3.74569 11.8021 3.72257 11.8127 3.79194 12.0351C4.02315 12.7236 4.93646 13.4545 5.95382 13.7723L6.6706 13.9947L6.04631 14.3337C5.12144 14.821 4.03472 15.0964 2.94799 15.1175C2.42775 15.1281 2 15.1705 2 15.2023C2 15.3082 3.41043 15.9014 4.23125 16.1344C6.69372 16.8229 9.61862 16.5264 11.8152 15.3506C13.3759 14.5138 14.9366 12.8507 15.665 11.2407C16.058 10.3827 16.4511 8.815 16.4511 8.06293C16.4511 7.57567 16.4858 7.51212 17.1332 6.92953C17.5147 6.59056 17.8731 6.21983 17.9425 6.1139C18.0581 5.91264 18.0465 5.91264 17.4569 6.09272C16.4742 6.41049 16.3355 6.36812 16.8211 5.89146C17.1794 5.5525 17.6072 4.93813 17.6072 4.75806C17.6072 4.72628 17.4338 4.77924 17.2372 4.87458C17.0291 4.9805 16.5667 5.13939 16.2199 5.23472L15.5956 5.41479L15.0291 5.06524C14.717 4.87458 14.2777 4.66273 14.0464 4.59917C13.4568 4.45087 12.5551 4.47206 12.0233 4.64154C10.5782 5.1182 9.66486 6.34694 9.76891 7.69219Z" fill="white"/>
</svg>
